G04*
G04 #@! TF.GenerationSoftware,Altium Limited,Altium Designer,21.2.1 (34)*
G04*
G04 Layer_Color=8421504*
%FSLAX25Y25*%
%MOIN*%
G70*
G04*
G04 #@! TF.SameCoordinates,309C0993-0839-4B3B-9E80-2D82E5661E4B*
G04*
G04*
G04 #@! TF.FilePolarity,Positive*
G04*
G01*
G75*
%ADD20R,0.01181X0.03150*%
%ADD21R,0.03937X0.02756*%
%ADD22R,0.01181X0.02756*%
%ADD23R,0.01968X0.01772*%
%ADD24R,0.01772X0.01968*%
%ADD25R,0.06693X0.03937*%
%ADD26C,0.00787*%
%ADD27R,0.02362X0.02874*%
%ADD28R,0.01575X0.01181*%
%ADD29R,0.01181X0.01575*%
%ADD30R,0.02559X0.01772*%
%ADD31R,0.04331X0.07480*%
%ADD32R,0.03386X0.01969*%
%ADD33R,0.01102X0.02303*%
%ADD34R,0.02126X0.02506*%
%ADD35R,0.10205X0.08691*%
G36*
X123163Y166534D02*
Y164256D01*
X123005Y164099D01*
X121195D01*
X121037Y164256D01*
Y166534D01*
X121195Y166691D01*
X123005D01*
X123163Y166534D01*
D02*
G37*
G36*
Y162382D02*
Y160105D01*
X123005Y159947D01*
X121195D01*
X121037Y160105D01*
Y162382D01*
X121195Y162540D01*
X123005D01*
X123163Y162382D01*
D02*
G37*
G36*
X117767Y167379D02*
X117864Y167369D01*
X117961Y167355D01*
X118058Y167335D01*
X118153Y167311D01*
X118246Y167282D01*
X118339Y167249D01*
X118429Y167211D01*
X118518Y167168D01*
X118604Y167121D01*
X118688Y167070D01*
X118769Y167015D01*
X118847Y166955D01*
X118922Y166892D01*
X118994Y166825D01*
X119063Y166755D01*
X119128Y166682D01*
X119189Y166605D01*
X119246Y166525D01*
X119299Y166443D01*
X119348Y166358D01*
X119393Y166270D01*
X119433Y166181D01*
X119469Y166090D01*
X119501Y165997D01*
X119527Y165902D01*
X119549Y165806D01*
X119566Y165710D01*
X119578Y165612D01*
X119586Y165514D01*
X119588Y165416D01*
Y159117D01*
X119586Y159019D01*
X119578Y158921D01*
X119566Y158824D01*
X119549Y158727D01*
X119527Y158631D01*
X119501Y158537D01*
X119469Y158444D01*
X119433Y158352D01*
X119393Y158263D01*
X119348Y158176D01*
X119299Y158091D01*
X119246Y158008D01*
X119189Y157929D01*
X119128Y157852D01*
X119063Y157778D01*
X118994Y157708D01*
X118922Y157641D01*
X118847Y157578D01*
X118769Y157519D01*
X118688Y157464D01*
X118604Y157412D01*
X118518Y157365D01*
X118429Y157323D01*
X118339Y157285D01*
X118246Y157251D01*
X118153Y157222D01*
X118058Y157198D01*
X117961Y157178D01*
X117864Y157164D01*
X117767Y157154D01*
X117669Y157149D01*
X117570D01*
X117473Y157154D01*
X117375Y157164D01*
X117278Y157178D01*
X117182Y157198D01*
X117087Y157222D01*
X116993Y157251D01*
X116900Y157285D01*
X116810Y157323D01*
X116721Y157365D01*
X116635Y157412D01*
X116552Y157464D01*
X116471Y157519D01*
X116392Y157578D01*
X116317Y157641D01*
X116245Y157708D01*
X116177Y157778D01*
X116112Y157852D01*
X116050Y157929D01*
X115993Y158008D01*
X115940Y158091D01*
X115891Y158176D01*
X115846Y158263D01*
X115806Y158352D01*
X115770Y158444D01*
X115739Y158537D01*
X115712Y158631D01*
X115690Y158727D01*
X115673Y158824D01*
X115661Y158921D01*
X115654Y159019D01*
X115651Y159117D01*
Y165416D01*
X115654Y165514D01*
X115661Y165612D01*
X115673Y165710D01*
X115690Y165806D01*
X115712Y165902D01*
X115739Y165997D01*
X115770Y166090D01*
X115806Y166181D01*
X115846Y166270D01*
X115891Y166358D01*
X115940Y166443D01*
X115993Y166525D01*
X116050Y166605D01*
X116112Y166682D01*
X116177Y166755D01*
X116245Y166825D01*
X116317Y166892D01*
X116392Y166955D01*
X116471Y167015D01*
X116552Y167070D01*
X116635Y167121D01*
X116721Y167168D01*
X116810Y167211D01*
X116900Y167249D01*
X116993Y167282D01*
X117087Y167311D01*
X117182Y167335D01*
X117278Y167355D01*
X117375Y167369D01*
X117473Y167379D01*
X117570Y167384D01*
X117669D01*
X117767Y167379D01*
D02*
G37*
G36*
X83751D02*
X83848Y167369D01*
X83945Y167355D01*
X84042Y167335D01*
X84137Y167311D01*
X84231Y167282D01*
X84323Y167249D01*
X84413Y167211D01*
X84502Y167168D01*
X84588Y167121D01*
X84672Y167070D01*
X84753Y167015D01*
X84831Y166955D01*
X84906Y166892D01*
X84978Y166825D01*
X85047Y166755D01*
X85112Y166682D01*
X85173Y166605D01*
X85230Y166525D01*
X85283Y166443D01*
X85332Y166358D01*
X85377Y166270D01*
X85417Y166181D01*
X85453Y166090D01*
X85485Y165997D01*
X85511Y165902D01*
X85533Y165806D01*
X85550Y165710D01*
X85562Y165612D01*
X85570Y165514D01*
X85572Y165416D01*
Y159117D01*
X85570Y159019D01*
X85562Y158921D01*
X85550Y158824D01*
X85533Y158727D01*
X85511Y158631D01*
X85485Y158537D01*
X85453Y158444D01*
X85417Y158352D01*
X85377Y158263D01*
X85332Y158176D01*
X85283Y158091D01*
X85230Y158008D01*
X85173Y157929D01*
X85112Y157852D01*
X85047Y157778D01*
X84978Y157708D01*
X84906Y157641D01*
X84831Y157578D01*
X84753Y157519D01*
X84672Y157464D01*
X84588Y157412D01*
X84502Y157365D01*
X84413Y157323D01*
X84323Y157285D01*
X84231Y157251D01*
X84137Y157222D01*
X84042Y157198D01*
X83945Y157178D01*
X83848Y157164D01*
X83751Y157154D01*
X83653Y157149D01*
X83555D01*
X83456Y157154D01*
X83359Y157164D01*
X83262Y157178D01*
X83166Y157198D01*
X83070Y157222D01*
X82977Y157251D01*
X82884Y157285D01*
X82794Y157323D01*
X82705Y157365D01*
X82619Y157412D01*
X82536Y157464D01*
X82455Y157519D01*
X82376Y157578D01*
X82301Y157641D01*
X82229Y157708D01*
X82161Y157778D01*
X82096Y157852D01*
X82034Y157929D01*
X81977Y158008D01*
X81924Y158091D01*
X81875Y158176D01*
X81830Y158263D01*
X81790Y158352D01*
X81754Y158444D01*
X81723Y158537D01*
X81696Y158631D01*
X81674Y158727D01*
X81657Y158824D01*
X81645Y158921D01*
X81638Y159019D01*
X81635Y159117D01*
Y165416D01*
X81638Y165514D01*
X81645Y165612D01*
X81657Y165710D01*
X81674Y165806D01*
X81696Y165902D01*
X81723Y165997D01*
X81754Y166090D01*
X81790Y166181D01*
X81830Y166270D01*
X81875Y166358D01*
X81924Y166443D01*
X81977Y166525D01*
X82034Y166605D01*
X82096Y166682D01*
X82161Y166755D01*
X82229Y166825D01*
X82301Y166892D01*
X82376Y166955D01*
X82455Y167015D01*
X82536Y167070D01*
X82619Y167121D01*
X82705Y167168D01*
X82794Y167211D01*
X82884Y167249D01*
X82977Y167282D01*
X83070Y167311D01*
X83166Y167335D01*
X83262Y167355D01*
X83359Y167369D01*
X83456Y167379D01*
X83555Y167384D01*
X83653D01*
X83751Y167379D01*
D02*
G37*
G36*
X110060Y143291D02*
X108879D01*
Y146047D01*
X110060D01*
Y143291D01*
D02*
G37*
G36*
X108092D02*
X106911D01*
Y146047D01*
X108092D01*
Y143291D01*
D02*
G37*
G36*
X106123D02*
X104942D01*
Y146047D01*
X106123D01*
Y143291D01*
D02*
G37*
G36*
X104155D02*
X102973D01*
Y146047D01*
X104155D01*
Y143291D01*
D02*
G37*
G36*
X102186D02*
X101005D01*
Y146047D01*
X102186D01*
Y143291D01*
D02*
G37*
G36*
X100218D02*
X99037D01*
Y146047D01*
X100218D01*
Y143291D01*
D02*
G37*
G36*
X98249D02*
X97068D01*
Y146047D01*
X98249D01*
Y143291D01*
D02*
G37*
G36*
X96281D02*
X95100D01*
Y146047D01*
X96281D01*
Y143291D01*
D02*
G37*
G36*
X94312D02*
X93131D01*
Y146047D01*
X94312D01*
Y143291D01*
D02*
G37*
G36*
X92344D02*
X91163D01*
Y146047D01*
X92344D01*
Y143291D01*
D02*
G37*
G36*
X90375D02*
X87226D01*
Y146047D01*
X90375D01*
X90375Y143291D01*
D02*
G37*
G36*
X113997Y143291D02*
X110848D01*
Y146046D01*
X113997D01*
Y143291D01*
D02*
G37*
G36*
X107091Y138173D02*
X105910D01*
Y140928D01*
X107091D01*
Y138173D01*
D02*
G37*
G36*
X105123D02*
X103942D01*
Y140928D01*
X105123D01*
Y138173D01*
D02*
G37*
G36*
X99217D02*
X98036D01*
Y140928D01*
X99217D01*
Y138173D01*
D02*
G37*
G36*
X89391D02*
X88210D01*
Y140928D01*
X89391D01*
Y138173D01*
D02*
G37*
G36*
X97265Y138172D02*
X96084D01*
Y140928D01*
X97265D01*
Y138172D01*
D02*
G37*
G36*
X95296D02*
X94115D01*
Y140928D01*
X95296D01*
Y138172D01*
D02*
G37*
G36*
X93328D02*
X92147D01*
Y140928D01*
X93328D01*
Y138172D01*
D02*
G37*
G36*
X91359D02*
X90178D01*
Y140928D01*
X91359D01*
Y138172D01*
D02*
G37*
G36*
X113005Y138172D02*
X111824D01*
Y140928D01*
X113005D01*
Y138172D01*
D02*
G37*
G36*
X111036D02*
X109855D01*
Y140928D01*
X111036D01*
Y138172D01*
D02*
G37*
G36*
X109068D02*
X107887D01*
Y140928D01*
X109068D01*
Y138172D01*
D02*
G37*
G36*
X103170D02*
X101989D01*
Y140928D01*
X103170D01*
Y138172D01*
D02*
G37*
G36*
X117767Y145293D02*
X117864Y145283D01*
X117961Y145269D01*
X118058Y145249D01*
X118153Y145225D01*
X118246Y145196D01*
X118339Y145162D01*
X118429Y145124D01*
X118518Y145082D01*
X118604Y145035D01*
X118688Y144984D01*
X118769Y144928D01*
X118847Y144869D01*
X118922Y144806D01*
X118994Y144739D01*
X119063Y144669D01*
X119128Y144595D01*
X119189Y144519D01*
X119246Y144439D01*
X119299Y144357D01*
X119348Y144272D01*
X119393Y144184D01*
X119433Y144095D01*
X119469Y144003D01*
X119501Y143910D01*
X119527Y143816D01*
X119549Y143720D01*
X119566Y143623D01*
X119578Y143526D01*
X119586Y143428D01*
X119588Y143330D01*
Y138999D01*
X119586Y138901D01*
X119578Y138803D01*
X119566Y138706D01*
X119549Y138609D01*
X119527Y138514D01*
X119501Y138419D01*
X119469Y138326D01*
X119433Y138235D01*
X119393Y138145D01*
X119348Y138058D01*
X119299Y137973D01*
X119246Y137890D01*
X119189Y137811D01*
X119128Y137734D01*
X119063Y137660D01*
X118994Y137590D01*
X118922Y137523D01*
X118847Y137460D01*
X118769Y137401D01*
X118688Y137346D01*
X118604Y137294D01*
X118518Y137248D01*
X118429Y137205D01*
X118339Y137167D01*
X118246Y137133D01*
X118153Y137104D01*
X118058Y137080D01*
X117961Y137061D01*
X117864Y137046D01*
X117767Y137036D01*
X117669Y137031D01*
X117570D01*
X117473Y137036D01*
X117375Y137046D01*
X117278Y137061D01*
X117182Y137080D01*
X117087Y137104D01*
X116993Y137133D01*
X116900Y137167D01*
X116810Y137205D01*
X116721Y137248D01*
X116635Y137294D01*
X116552Y137346D01*
X116471Y137401D01*
X116392Y137460D01*
X116317Y137523D01*
X116245Y137590D01*
X116177Y137660D01*
X116112Y137734D01*
X116050Y137811D01*
X115993Y137890D01*
X115940Y137973D01*
X115891Y138058D01*
X115846Y138145D01*
X115806Y138235D01*
X115770Y138326D01*
X115739Y138419D01*
X115712Y138514D01*
X115690Y138609D01*
X115673Y138706D01*
X115661Y138803D01*
X115654Y138901D01*
X115651Y138999D01*
Y143330D01*
X115654Y143428D01*
X115661Y143526D01*
X115673Y143623D01*
X115690Y143720D01*
X115712Y143816D01*
X115739Y143910D01*
X115770Y144003D01*
X115806Y144095D01*
X115846Y144184D01*
X115891Y144272D01*
X115940Y144357D01*
X115993Y144439D01*
X116050Y144519D01*
X116112Y144595D01*
X116177Y144669D01*
X116245Y144739D01*
X116317Y144806D01*
X116392Y144869D01*
X116471Y144928D01*
X116552Y144984D01*
X116635Y145035D01*
X116721Y145082D01*
X116810Y145124D01*
X116900Y145162D01*
X116993Y145196D01*
X117087Y145225D01*
X117182Y145249D01*
X117278Y145269D01*
X117375Y145283D01*
X117473Y145293D01*
X117570Y145298D01*
X117669D01*
X117767Y145293D01*
D02*
G37*
G36*
X83751D02*
X83848Y145283D01*
X83945Y145269D01*
X84042Y145249D01*
X84137Y145225D01*
X84231Y145196D01*
X84323Y145162D01*
X84413Y145124D01*
X84502Y145082D01*
X84588Y145035D01*
X84672Y144984D01*
X84753Y144928D01*
X84831Y144869D01*
X84906Y144806D01*
X84978Y144739D01*
X85047Y144669D01*
X85112Y144595D01*
X85173Y144519D01*
X85230Y144439D01*
X85283Y144357D01*
X85332Y144272D01*
X85377Y144184D01*
X85417Y144095D01*
X85453Y144003D01*
X85485Y143910D01*
X85511Y143816D01*
X85533Y143720D01*
X85550Y143623D01*
X85562Y143526D01*
X85570Y143428D01*
X85572Y143330D01*
Y138999D01*
X85570Y138901D01*
X85562Y138803D01*
X85550Y138706D01*
X85533Y138609D01*
X85511Y138514D01*
X85485Y138419D01*
X85453Y138326D01*
X85417Y138235D01*
X85377Y138145D01*
X85332Y138058D01*
X85283Y137973D01*
X85230Y137890D01*
X85173Y137811D01*
X85112Y137734D01*
X85047Y137660D01*
X84978Y137590D01*
X84906Y137523D01*
X84831Y137460D01*
X84753Y137401D01*
X84672Y137346D01*
X84588Y137294D01*
X84502Y137248D01*
X84413Y137205D01*
X84323Y137167D01*
X84231Y137133D01*
X84137Y137104D01*
X84042Y137080D01*
X83945Y137061D01*
X83848Y137046D01*
X83751Y137036D01*
X83653Y137031D01*
X83555D01*
X83456Y137036D01*
X83359Y137046D01*
X83262Y137061D01*
X83166Y137080D01*
X83070Y137104D01*
X82977Y137133D01*
X82884Y137167D01*
X82794Y137205D01*
X82705Y137248D01*
X82619Y137294D01*
X82536Y137346D01*
X82455Y137401D01*
X82376Y137460D01*
X82301Y137523D01*
X82229Y137590D01*
X82161Y137660D01*
X82096Y137734D01*
X82034Y137811D01*
X81977Y137890D01*
X81924Y137973D01*
X81875Y138058D01*
X81830Y138145D01*
X81790Y138235D01*
X81754Y138326D01*
X81723Y138419D01*
X81696Y138514D01*
X81674Y138609D01*
X81657Y138706D01*
X81645Y138803D01*
X81638Y138901D01*
X81635Y138999D01*
Y143330D01*
X81638Y143428D01*
X81645Y143526D01*
X81657Y143623D01*
X81674Y143720D01*
X81696Y143816D01*
X81723Y143910D01*
X81754Y144003D01*
X81790Y144095D01*
X81830Y144184D01*
X81875Y144272D01*
X81924Y144357D01*
X81977Y144439D01*
X82034Y144519D01*
X82096Y144595D01*
X82161Y144669D01*
X82229Y144739D01*
X82301Y144806D01*
X82376Y144869D01*
X82455Y144928D01*
X82536Y144984D01*
X82619Y145035D01*
X82705Y145082D01*
X82794Y145124D01*
X82884Y145162D01*
X82977Y145196D01*
X83070Y145225D01*
X83166Y145249D01*
X83262Y145269D01*
X83359Y145283D01*
X83456Y145293D01*
X83555Y145298D01*
X83653D01*
X83751Y145293D01*
D02*
G37*
G36*
X70418Y135805D02*
X69316D01*
Y138423D01*
X70418D01*
Y135805D01*
D02*
G37*
G36*
X68450D02*
X67348D01*
Y138423D01*
X68450D01*
Y135805D01*
D02*
G37*
G36*
X66481D02*
X65379D01*
Y138423D01*
X66481D01*
Y135805D01*
D02*
G37*
G36*
X64513D02*
X63411D01*
Y138423D01*
X64513D01*
Y135805D01*
D02*
G37*
G36*
X71796Y133974D02*
X69178D01*
Y135077D01*
X71796D01*
Y133974D01*
D02*
G37*
G36*
X64650D02*
X62032D01*
Y135077D01*
X64650D01*
Y133974D01*
D02*
G37*
G36*
X67899Y132558D02*
X65930D01*
Y134526D01*
X67899D01*
Y132558D01*
D02*
G37*
G36*
X71796Y132006D02*
X69178D01*
Y133108D01*
X71796D01*
Y132006D01*
D02*
G37*
G36*
X64650D02*
X62032D01*
Y133108D01*
X64650D01*
Y132006D01*
D02*
G37*
G36*
X70418Y128659D02*
X69316D01*
Y131277D01*
X70418D01*
Y128659D01*
D02*
G37*
G36*
X68450D02*
X67348D01*
Y131277D01*
X68450D01*
Y128659D01*
D02*
G37*
G36*
X66481D02*
X65379D01*
Y131277D01*
X66481D01*
Y128659D01*
D02*
G37*
G36*
X64513D02*
X63411D01*
Y131277D01*
X64513D01*
Y128659D01*
D02*
G37*
D20*
X112423Y139354D02*
D03*
X106517D02*
D03*
X104549D02*
D03*
X102580D02*
D03*
X98643D02*
D03*
X96675D02*
D03*
X94706D02*
D03*
X88801D02*
D03*
X110454D02*
D03*
X108486D02*
D03*
X90769D02*
D03*
X92738D02*
D03*
D21*
X112817Y144669D02*
D03*
X88406Y144669D02*
D03*
D22*
X105532D02*
D03*
X103565D02*
D03*
X101595D02*
D03*
X99628D02*
D03*
X97658D02*
D03*
X95691D02*
D03*
X91754D02*
D03*
X93721D02*
D03*
X109469D02*
D03*
X107502D02*
D03*
D23*
X59964Y137116D02*
D03*
Y140462D02*
D03*
X63914Y140568D02*
D03*
X63914Y143914D02*
D03*
X70014D02*
D03*
X70014Y140568D02*
D03*
X59714Y97941D02*
D03*
Y101288D02*
D03*
X85309Y103102D02*
D03*
X85309Y106449D02*
D03*
X85309Y112322D02*
D03*
X85309Y108976D02*
D03*
X141697Y102297D02*
D03*
Y105644D02*
D03*
D24*
X63428Y111341D02*
D03*
X60082Y111341D02*
D03*
X68741Y111241D02*
D03*
X72088Y111241D02*
D03*
X68745Y104461D02*
D03*
X72091Y104461D02*
D03*
X60064Y107702D02*
D03*
X63410Y107702D02*
D03*
X72088Y107841D02*
D03*
X68741D02*
D03*
X60062Y104349D02*
D03*
X63408D02*
D03*
X63764Y97089D02*
D03*
X67110D02*
D03*
X141610Y109635D02*
D03*
X138263D02*
D03*
X141621Y112979D02*
D03*
X138275Y112979D02*
D03*
X132381Y130359D02*
D03*
X135728Y130359D02*
D03*
X138249Y130381D02*
D03*
X141596Y130381D02*
D03*
X138382Y97922D02*
D03*
X141729Y97922D02*
D03*
X141732Y78764D02*
D03*
X138385Y78764D02*
D03*
X141705Y85893D02*
D03*
X138358Y85893D02*
D03*
X138370Y82325D02*
D03*
X141717Y82325D02*
D03*
X141740Y75157D02*
D03*
X138393Y75157D02*
D03*
X119747Y57007D02*
D03*
X123093D02*
D03*
X119731Y60147D02*
D03*
X123077D02*
D03*
X119736Y53880D02*
D03*
X123083D02*
D03*
D25*
X61714Y122513D02*
D03*
Y115820D02*
D03*
X70514Y122513D02*
D03*
Y115820D02*
D03*
D26*
X98042Y107240D02*
D03*
X123632D02*
D03*
Y102122D02*
D03*
Y99563D02*
D03*
Y89327D02*
D03*
Y86768D02*
D03*
Y81650D02*
D03*
X121073Y107240D02*
D03*
Y102122D02*
D03*
Y99563D02*
D03*
Y89327D02*
D03*
Y86768D02*
D03*
Y81650D02*
D03*
X118514Y107240D02*
D03*
Y102122D02*
D03*
Y99563D02*
D03*
Y89327D02*
D03*
Y86768D02*
D03*
Y81650D02*
D03*
X115955Y107240D02*
D03*
Y102122D02*
D03*
Y99563D02*
D03*
Y89327D02*
D03*
Y86768D02*
D03*
Y81650D02*
D03*
X113396Y107240D02*
D03*
Y102122D02*
D03*
Y99563D02*
D03*
Y89327D02*
D03*
Y86768D02*
D03*
Y81650D02*
D03*
X110837Y107240D02*
D03*
Y102122D02*
D03*
Y99563D02*
D03*
Y89327D02*
D03*
Y86768D02*
D03*
Y81650D02*
D03*
X108278Y107240D02*
D03*
Y102122D02*
D03*
Y99563D02*
D03*
Y89327D02*
D03*
Y86768D02*
D03*
Y81650D02*
D03*
X105719Y107240D02*
D03*
Y102122D02*
D03*
Y99563D02*
D03*
Y89327D02*
D03*
Y86768D02*
D03*
Y81650D02*
D03*
X103160Y107240D02*
D03*
Y102122D02*
D03*
Y99563D02*
D03*
Y89327D02*
D03*
Y86768D02*
D03*
Y81650D02*
D03*
X100601Y107240D02*
D03*
Y102122D02*
D03*
Y99563D02*
D03*
Y89327D02*
D03*
Y86768D02*
D03*
Y81650D02*
D03*
X98042Y102122D02*
D03*
Y99563D02*
D03*
Y89327D02*
D03*
Y86768D02*
D03*
Y81650D02*
D03*
X123632Y84209D02*
D03*
X121073D02*
D03*
X118514D02*
D03*
X115955D02*
D03*
X113396D02*
D03*
X110837D02*
D03*
X108278D02*
D03*
X105719D02*
D03*
X103160D02*
D03*
X100601D02*
D03*
X98042D02*
D03*
X123632Y91886D02*
D03*
X121073D02*
D03*
X118514D02*
D03*
X115955D02*
D03*
X113396D02*
D03*
X110837D02*
D03*
X108278D02*
D03*
X105719D02*
D03*
X103160D02*
D03*
X100601D02*
D03*
X98042D02*
D03*
X123632Y94445D02*
D03*
X121073D02*
D03*
X118514D02*
D03*
X115955D02*
D03*
X113396D02*
D03*
X110837D02*
D03*
X108278D02*
D03*
X105719D02*
D03*
X103160D02*
D03*
X100601D02*
D03*
X98042D02*
D03*
X123632Y97004D02*
D03*
X121073D02*
D03*
X118514D02*
D03*
X115955D02*
D03*
X113396D02*
D03*
X110837D02*
D03*
X108278D02*
D03*
X105719D02*
D03*
X103160D02*
D03*
X100601D02*
D03*
X98042D02*
D03*
X123632Y104682D02*
D03*
X121073D02*
D03*
X118514D02*
D03*
X115955D02*
D03*
X113396D02*
D03*
X110837D02*
D03*
X108278D02*
D03*
X105719D02*
D03*
X103160D02*
D03*
X100601D02*
D03*
X98042D02*
D03*
X128947Y112556D02*
D03*
Y110745D02*
D03*
Y108933D02*
D03*
Y107122D02*
D03*
Y105311D02*
D03*
Y103500D02*
D03*
Y101689D02*
D03*
Y99878D02*
D03*
Y98067D02*
D03*
Y96256D02*
D03*
Y94445D02*
D03*
Y92634D02*
D03*
Y90823D02*
D03*
Y89012D02*
D03*
Y87201D02*
D03*
Y85390D02*
D03*
Y83579D02*
D03*
Y81768D02*
D03*
Y79957D02*
D03*
Y78146D02*
D03*
Y76335D02*
D03*
X127136Y112556D02*
D03*
Y110745D02*
D03*
Y108933D02*
D03*
Y107122D02*
D03*
Y105311D02*
D03*
Y103500D02*
D03*
Y101689D02*
D03*
Y99878D02*
D03*
Y98067D02*
D03*
Y96256D02*
D03*
Y94445D02*
D03*
Y92634D02*
D03*
Y90823D02*
D03*
Y89012D02*
D03*
Y87201D02*
D03*
Y85390D02*
D03*
Y83579D02*
D03*
Y81768D02*
D03*
Y79957D02*
D03*
Y78146D02*
D03*
Y76335D02*
D03*
X125325Y112556D02*
D03*
Y110745D02*
D03*
Y78146D02*
D03*
Y76335D02*
D03*
X123514Y112556D02*
D03*
Y110745D02*
D03*
Y78146D02*
D03*
Y76335D02*
D03*
X121703Y112556D02*
D03*
Y110745D02*
D03*
Y78146D02*
D03*
Y76335D02*
D03*
X119892Y112556D02*
D03*
Y110745D02*
D03*
Y78146D02*
D03*
Y76335D02*
D03*
X118081Y112556D02*
D03*
Y110745D02*
D03*
Y78146D02*
D03*
Y76335D02*
D03*
X116270Y112556D02*
D03*
Y110745D02*
D03*
Y78146D02*
D03*
Y76335D02*
D03*
X114459Y112556D02*
D03*
Y110745D02*
D03*
Y78146D02*
D03*
Y76335D02*
D03*
X112648Y112556D02*
D03*
Y110745D02*
D03*
Y78146D02*
D03*
Y76335D02*
D03*
X110837Y112556D02*
D03*
Y110745D02*
D03*
Y78146D02*
D03*
Y76335D02*
D03*
X109026Y112556D02*
D03*
Y110745D02*
D03*
Y78146D02*
D03*
Y76335D02*
D03*
X107215Y112556D02*
D03*
Y110745D02*
D03*
X105404Y78146D02*
D03*
Y76335D02*
D03*
X103593Y112556D02*
D03*
Y110745D02*
D03*
X101782Y78146D02*
D03*
Y76335D02*
D03*
X99971Y112556D02*
D03*
Y110745D02*
D03*
X98160Y78146D02*
D03*
Y76335D02*
D03*
X96349Y112556D02*
D03*
Y110745D02*
D03*
X94538Y108933D02*
D03*
Y107122D02*
D03*
Y105311D02*
D03*
Y103500D02*
D03*
Y101689D02*
D03*
Y98067D02*
D03*
Y96256D02*
D03*
Y94445D02*
D03*
Y92634D02*
D03*
Y89012D02*
D03*
Y85390D02*
D03*
Y81768D02*
D03*
Y78146D02*
D03*
Y76335D02*
D03*
X92727Y112556D02*
D03*
Y110745D02*
D03*
Y108933D02*
D03*
Y107122D02*
D03*
Y105311D02*
D03*
Y103500D02*
D03*
Y101689D02*
D03*
Y98067D02*
D03*
Y96256D02*
D03*
Y94445D02*
D03*
Y92634D02*
D03*
Y89012D02*
D03*
Y85390D02*
D03*
Y81768D02*
D03*
Y78146D02*
D03*
Y76335D02*
D03*
X98160Y110745D02*
D03*
X101782Y112556D02*
D03*
X98160D02*
D03*
X101782Y110745D02*
D03*
X94538D02*
D03*
X105404Y112556D02*
D03*
X94538D02*
D03*
X105404Y110745D02*
D03*
X99971Y78146D02*
D03*
X103593D02*
D03*
X99971Y76335D02*
D03*
X103593D02*
D03*
X92727Y99878D02*
D03*
X94538D02*
D03*
Y87201D02*
D03*
Y83579D02*
D03*
X92727Y87201D02*
D03*
Y83579D02*
D03*
Y90823D02*
D03*
X94538Y79957D02*
D03*
X96349Y76335D02*
D03*
X107215D02*
D03*
X94538Y90823D02*
D03*
X92727Y79957D02*
D03*
X96349Y78146D02*
D03*
X107215D02*
D03*
D27*
X78242Y105574D02*
D03*
Y109905D02*
D03*
X81391D02*
D03*
Y105574D02*
D03*
D28*
X85729Y127041D02*
D03*
Y124876D02*
D03*
X88729D02*
D03*
Y127041D02*
D03*
X103665D02*
D03*
Y124876D02*
D03*
X106665D02*
D03*
Y127041D02*
D03*
X109100Y61000D02*
D03*
Y63165D02*
D03*
X106100D02*
D03*
Y61000D02*
D03*
X99963Y57709D02*
D03*
Y59873D02*
D03*
X96963D02*
D03*
Y57709D02*
D03*
X78365Y60660D02*
D03*
Y62824D02*
D03*
X81365D02*
D03*
Y60660D02*
D03*
X76350Y51795D02*
D03*
Y53959D02*
D03*
X73350D02*
D03*
Y51795D02*
D03*
D29*
X85976Y131864D02*
D03*
X83811D02*
D03*
X88494D02*
D03*
X90658D02*
D03*
X103865D02*
D03*
X101700D02*
D03*
X106400D02*
D03*
X108564D02*
D03*
D30*
X132484Y125475D02*
D03*
Y122916D02*
D03*
Y120357D02*
D03*
Y117798D02*
D03*
X141343Y122916D02*
D03*
Y125475D02*
D03*
Y117798D02*
D03*
Y120357D02*
D03*
D31*
X136914Y121636D02*
D03*
D32*
X138000Y91900D02*
D03*
D33*
X138984Y89075D02*
D03*
X137016D02*
D03*
Y94725D02*
D03*
X138984D02*
D03*
D34*
X122100Y165438D02*
D03*
Y161200D02*
D03*
D35*
X134400Y40776D02*
D03*
Y68424D02*
D03*
M02*
