G04*
G04 #@! TF.GenerationSoftware,Altium Limited,Altium Designer,21.2.1 (34)*
G04*
G04 Layer_Physical_Order=4*
G04 Layer_Color=16711680*
%FSLAX25Y25*%
%MOIN*%
G70*
G04*
G04 #@! TF.SameCoordinates,309C0993-0839-4B3B-9E80-2D82E5661E4B*
G04*
G04*
G04 #@! TF.FilePolarity,Positive*
G04*
G01*
G75*
%ADD15C,0.01000*%
%ADD23R,0.01968X0.01772*%
%ADD24R,0.01772X0.01968*%
%ADD28R,0.01575X0.01181*%
%ADD29R,0.01181X0.01575*%
%ADD60C,0.00436*%
%ADD61C,0.00436*%
%ADD68C,0.00500*%
%ADD70C,0.02000*%
%ADD71C,0.00450*%
%ADD72C,0.00350*%
%ADD74C,0.15748*%
%ADD75O,0.03937X0.08263*%
%ADD76O,0.03937X0.10231*%
%ADD77C,0.04331*%
%ADD78C,0.06299*%
%ADD79C,0.01181*%
%ADD80O,0.06000X0.03937*%
%ADD81R,0.06693X0.01181*%
%ADD82R,0.01102X0.02362*%
%ADD83R,0.01181X0.06102*%
%ADD84R,0.04724X0.10827*%
%ADD85C,0.01500*%
G36*
X129330Y113685D02*
Y112372D01*
X129270Y112321D01*
X129212Y112263D01*
X129159Y112200D01*
X129112Y112133D01*
X129071Y112062D01*
X129036Y111988D01*
X129008Y111910D01*
X128987Y111831D01*
X128972Y111750D01*
X128965Y111668D01*
Y111586D01*
X128972Y111504D01*
X128987Y111424D01*
X129008Y111344D01*
X129036Y111267D01*
X129071Y111193D01*
X129112Y111121D01*
X129159Y111054D01*
X129212Y110991D01*
X129270Y110933D01*
X129333Y110880D01*
X129400Y110833D01*
X129471Y110792D01*
X129546Y110758D01*
X129623Y110730D01*
X129701Y110708D01*
X129669Y110703D01*
X129590Y110682D01*
X129513Y110654D01*
X129439Y110619D01*
X129367Y110578D01*
X129300Y110531D01*
X129237Y110478D01*
X129179Y110420D01*
X129126Y110357D01*
X129079Y110290D01*
X129038Y110219D01*
X129004Y110144D01*
X128975Y110067D01*
X128954Y109988D01*
X128940Y109907D01*
X128933Y109825D01*
Y109743D01*
X128940Y109661D01*
X128954Y109580D01*
X128975Y109501D01*
X129004Y109423D01*
X129038Y109349D01*
X129079Y109278D01*
X129126Y109211D01*
X129179Y109148D01*
X129237Y109090D01*
X129300Y109037D01*
X129367Y108990D01*
X129439Y108949D01*
X129513Y108914D01*
X129590Y108886D01*
X129627Y108876D01*
X129584Y108865D01*
X129507Y108837D01*
X129432Y108802D01*
X129361Y108761D01*
X129294Y108714D01*
X129231Y108661D01*
X129173Y108603D01*
X129120Y108540D01*
X129073Y108473D01*
X129032Y108402D01*
X128997Y108327D01*
X128969Y108250D01*
X128948Y108171D01*
X128934Y108090D01*
X128927Y108008D01*
Y107926D01*
X128934Y107844D01*
X128948Y107763D01*
X128969Y107684D01*
X128997Y107607D01*
X129032Y107532D01*
X129073Y107461D01*
X129120Y107394D01*
X129173Y107331D01*
X129231Y107273D01*
X129294Y107220D01*
X129361Y107173D01*
X129432Y107132D01*
X129507Y107097D01*
X129584Y107069D01*
X129630Y107057D01*
X129570Y107040D01*
X129493Y107012D01*
X129418Y106978D01*
X129347Y106937D01*
X129280Y106889D01*
X129217Y106837D01*
X129159Y106779D01*
X129106Y106716D01*
X129059Y106648D01*
X129018Y106577D01*
X128983Y106503D01*
X128955Y106426D01*
X128934Y106346D01*
X128920Y106265D01*
X128912Y106184D01*
Y106102D01*
X128920Y106020D01*
X128934Y105939D01*
X128955Y105859D01*
X128983Y105782D01*
X129018Y105708D01*
X129059Y105637D01*
X129106Y105569D01*
X129159Y105507D01*
X129217Y105448D01*
X129280Y105396D01*
X129347Y105349D01*
X129418Y105307D01*
X129493Y105273D01*
X129570Y105245D01*
X129649Y105223D01*
X129730Y105209D01*
X129812Y105202D01*
X129853D01*
X129853Y90949D01*
X129793D01*
X129711Y90942D01*
X129631Y90928D01*
X129551Y90907D01*
X129474Y90879D01*
X129400Y90844D01*
X129329Y90803D01*
X129261Y90756D01*
X129198Y90703D01*
X129140Y90645D01*
X129087Y90582D01*
X129040Y90515D01*
X128999Y90444D01*
X128965Y90369D01*
X128937Y90292D01*
X128915Y90213D01*
X128901Y90132D01*
X128894Y90050D01*
Y89968D01*
X128901Y89886D01*
X128915Y89805D01*
X128937Y89726D01*
X128958Y89668D01*
X128901Y89671D01*
X127132D01*
Y90429D01*
X124660D01*
Y87761D01*
X127132D01*
Y88519D01*
X128663D01*
X129853Y87328D01*
Y83705D01*
X129793D01*
X129711Y83698D01*
X129631Y83684D01*
X129551Y83663D01*
X129474Y83635D01*
X129400Y83600D01*
X129329Y83559D01*
X129261Y83512D01*
X129198Y83459D01*
X129140Y83401D01*
X129087Y83338D01*
X129040Y83271D01*
X128999Y83200D01*
X128965Y83125D01*
X128937Y83048D01*
X128915Y82969D01*
X128901Y82888D01*
X128894Y82806D01*
Y82724D01*
X128901Y82642D01*
X128915Y82561D01*
X128937Y82482D01*
X128965Y82405D01*
X128999Y82330D01*
X129040Y82259D01*
X129087Y82192D01*
X129140Y82129D01*
X129198Y82071D01*
X129261Y82018D01*
X129329Y81971D01*
X129400Y81930D01*
X129474Y81895D01*
X129551Y81867D01*
X129580Y81859D01*
X129551Y81852D01*
X129474Y81824D01*
X129400Y81789D01*
X129329Y81748D01*
X129261Y81701D01*
X129198Y81648D01*
X129140Y81590D01*
X129087Y81527D01*
X129040Y81460D01*
X128999Y81388D01*
X128965Y81314D01*
X128937Y81237D01*
X128915Y81157D01*
X128901Y81077D01*
X128894Y80995D01*
Y80913D01*
X128901Y80831D01*
X128915Y80750D01*
X128937Y80671D01*
X128965Y80594D01*
X128999Y80519D01*
X129040Y80448D01*
X129087Y80381D01*
X129140Y80318D01*
X129198Y80260D01*
X129261Y80207D01*
X129329Y80160D01*
X129400Y80119D01*
X129474Y80084D01*
X129551Y80056D01*
X129580Y80048D01*
X129551Y80041D01*
X129474Y80013D01*
X129400Y79978D01*
X129329Y79937D01*
X129261Y79890D01*
X129198Y79837D01*
X129140Y79779D01*
X129087Y79716D01*
X129040Y79649D01*
X128999Y79577D01*
X128965Y79503D01*
X128937Y79426D01*
X128915Y79347D01*
X128901Y79266D01*
X128894Y79184D01*
Y79102D01*
X128901Y79020D01*
X128915Y78939D01*
X128937Y78860D01*
X128949Y78826D01*
X127192Y77069D01*
X123785D01*
Y78702D01*
X123803Y78707D01*
X123830Y78718D01*
X123857Y78730D01*
X123883Y78744D01*
X123909Y78758D01*
X123933Y78775D01*
X123939Y78779D01*
X124004Y78768D01*
X124086Y78761D01*
X124168D01*
X124250Y78768D01*
X124331Y78782D01*
X124410Y78803D01*
X124487Y78831D01*
X124562Y78866D01*
X124633Y78907D01*
X124700Y78954D01*
X124763Y79007D01*
X124821Y79065D01*
X124874Y79128D01*
X124921Y79195D01*
X124962Y79267D01*
X124997Y79341D01*
X125025Y79418D01*
X125046Y79497D01*
X125060Y79578D01*
X125067Y79660D01*
Y79742D01*
X125060Y79824D01*
X125046Y79905D01*
X125025Y79984D01*
X124997Y80062D01*
X124962Y80136D01*
X124921Y80207D01*
X124874Y80274D01*
X124873Y80276D01*
X127132D01*
X127178Y80279D01*
X127223Y80288D01*
X127266Y80303D01*
X127307Y80323D01*
X127346Y80348D01*
X127380Y80379D01*
X127410Y80413D01*
X127436Y80451D01*
X127456Y80493D01*
X127471Y80536D01*
X127480Y80581D01*
X127483Y80627D01*
Y83295D01*
X127480Y83341D01*
X127471Y83386D01*
X127456Y83429D01*
X127436Y83471D01*
X127410Y83509D01*
X127380Y83543D01*
X127380Y83543D01*
X124136Y86787D01*
Y94731D01*
X124136Y94739D01*
X124136Y94747D01*
X124134Y94762D01*
X124133Y94777D01*
X124132Y94784D01*
X124131Y94792D01*
X124127Y94807D01*
X124124Y94822D01*
X124122Y94829D01*
X124120Y94837D01*
X124115Y94851D01*
X124110Y94866D01*
X124106Y94872D01*
X124103Y94880D01*
X124096Y94893D01*
X124089Y94907D01*
X124085Y94913D01*
X124081Y94920D01*
X124072Y94932D01*
X124064Y94945D01*
X124059Y94951D01*
X124054Y94957D01*
X124022Y94995D01*
X123992Y95038D01*
X123967Y95082D01*
X123945Y95129D01*
X123927Y95177D01*
X123914Y95227D01*
X123905Y95278D01*
X123900Y95329D01*
Y95380D01*
X123905Y95432D01*
X123914Y95483D01*
X123927Y95532D01*
X123945Y95581D01*
X123967Y95627D01*
X123992Y95672D01*
X124022Y95714D01*
X124054Y95753D01*
X124059Y95759D01*
X124064Y95764D01*
X124072Y95777D01*
X124081Y95790D01*
X124085Y95796D01*
X124089Y95803D01*
X124096Y95816D01*
X124103Y95830D01*
X124106Y95837D01*
X124110Y95844D01*
X124115Y95858D01*
X124120Y95873D01*
X124122Y95880D01*
X124124Y95887D01*
X124127Y95902D01*
X124131Y95917D01*
X124132Y95925D01*
X124133Y95932D01*
X124134Y95948D01*
X124136Y95963D01*
X124136Y95970D01*
X124136Y95978D01*
Y111831D01*
X124133Y111876D01*
X124124Y111921D01*
X124110Y111965D01*
X124089Y112006D01*
X124064Y112044D01*
X124033Y112079D01*
X123999Y112109D01*
X123961Y112134D01*
X123920Y112155D01*
X123876Y112169D01*
X123831Y112178D01*
X123785Y112181D01*
X121314D01*
X121268Y112178D01*
X121223Y112169D01*
X121180Y112155D01*
X121139Y112134D01*
X121100Y112109D01*
X121066Y112079D01*
X121036Y112044D01*
X121010Y112006D01*
X120990Y111965D01*
X120975Y111921D01*
X120966Y111876D01*
X120963Y111831D01*
Y85816D01*
X120966Y85770D01*
X120975Y85725D01*
X120990Y85681D01*
X121000Y85661D01*
X121010Y85640D01*
X121036Y85602D01*
X121066Y85568D01*
X121470Y85163D01*
X121483Y85128D01*
X121518Y85054D01*
X121559Y84983D01*
X121606Y84915D01*
X121659Y84852D01*
X121717Y84794D01*
X121780Y84742D01*
X121847Y84694D01*
X121918Y84654D01*
X121993Y84619D01*
X122028Y84606D01*
X123338Y83295D01*
X121314D01*
Y80627D01*
X122024D01*
Y79728D01*
X121314D01*
Y77069D01*
X117093D01*
Y79728D01*
X114645D01*
X115192Y80276D01*
X117093D01*
X117138Y80279D01*
X117183Y80288D01*
X117227Y80303D01*
X117268Y80323D01*
X117306Y80348D01*
X117341Y80379D01*
X117371Y80413D01*
X117396Y80451D01*
X117417Y80493D01*
X117431Y80536D01*
X117440Y80581D01*
X117443Y80627D01*
Y82012D01*
X117518Y82032D01*
X117595Y82060D01*
X117669Y82094D01*
X117741Y82135D01*
X117808Y82183D01*
X117871Y82235D01*
X117929Y82293D01*
X117982Y82356D01*
X118029Y82424D01*
X118070Y82495D01*
X118105Y82569D01*
X118133Y82646D01*
X118154Y82726D01*
X118168Y82807D01*
X118175Y82888D01*
Y82971D01*
X118168Y83052D01*
X118154Y83133D01*
X118133Y83213D01*
X118105Y83290D01*
X118070Y83364D01*
X118029Y83435D01*
X117982Y83503D01*
X117929Y83565D01*
X117871Y83624D01*
X117808Y83676D01*
X117741Y83723D01*
X117669Y83765D01*
X117595Y83799D01*
X117518Y83827D01*
X117443Y83847D01*
Y84571D01*
X117518Y84591D01*
X117595Y84619D01*
X117669Y84654D01*
X117741Y84694D01*
X117808Y84742D01*
X117871Y84794D01*
X117929Y84852D01*
X117982Y84915D01*
X118029Y84983D01*
X118070Y85054D01*
X118105Y85128D01*
X118133Y85205D01*
X118154Y85285D01*
X118168Y85366D01*
X118175Y85448D01*
Y85530D01*
X118168Y85611D01*
X118154Y85692D01*
X118133Y85772D01*
X118105Y85849D01*
X118070Y85923D01*
X118029Y85994D01*
X117982Y86062D01*
X117929Y86125D01*
X117871Y86183D01*
X117808Y86235D01*
X117741Y86283D01*
X117669Y86324D01*
X117595Y86358D01*
X117518Y86386D01*
X117443Y86406D01*
Y87130D01*
X117518Y87150D01*
X117595Y87178D01*
X117669Y87213D01*
X117741Y87254D01*
X117808Y87301D01*
X117871Y87353D01*
X117929Y87412D01*
X117982Y87475D01*
X118029Y87542D01*
X118070Y87613D01*
X118105Y87687D01*
X118133Y87765D01*
X118154Y87844D01*
X118168Y87925D01*
X118175Y88007D01*
Y88089D01*
X118168Y88170D01*
X118154Y88251D01*
X118133Y88331D01*
X118105Y88408D01*
X118070Y88482D01*
X118029Y88553D01*
X117982Y88621D01*
X117929Y88684D01*
X117871Y88742D01*
X117808Y88794D01*
X117741Y88842D01*
X117669Y88883D01*
X117595Y88917D01*
X117518Y88946D01*
X117443Y88965D01*
Y89689D01*
X117518Y89709D01*
X117595Y89737D01*
X117669Y89772D01*
X117741Y89813D01*
X117808Y89860D01*
X117871Y89912D01*
X117929Y89971D01*
X117982Y90034D01*
X118029Y90101D01*
X118070Y90172D01*
X118105Y90246D01*
X118133Y90324D01*
X118154Y90403D01*
X118168Y90484D01*
X118175Y90566D01*
Y90648D01*
X118168Y90729D01*
X118154Y90810D01*
X118133Y90890D01*
X118105Y90967D01*
X118070Y91041D01*
X118029Y91113D01*
X117982Y91180D01*
X117929Y91243D01*
X117871Y91301D01*
X117808Y91353D01*
X117741Y91401D01*
X117669Y91442D01*
X117595Y91476D01*
X117518Y91505D01*
X117438Y91526D01*
X117358Y91540D01*
X117276Y91547D01*
X117194D01*
X117112Y91540D01*
X117031Y91526D01*
X116952Y91505D01*
X116875Y91476D01*
X116800Y91442D01*
X116729Y91401D01*
X116662Y91353D01*
X116599Y91301D01*
X116541Y91243D01*
X116488Y91180D01*
X116441Y91113D01*
X116400Y91041D01*
X116365Y90967D01*
X116337Y90890D01*
X116316Y90810D01*
X116310Y90780D01*
X115600Y90780D01*
X115595Y90810D01*
X115574Y90890D01*
X115545Y90967D01*
X115511Y91041D01*
X115470Y91113D01*
X115423Y91180D01*
X115370Y91243D01*
X115312Y91301D01*
X115249Y91353D01*
X115182Y91401D01*
X115110Y91442D01*
X115036Y91476D01*
X114959Y91505D01*
X114879Y91526D01*
X114799Y91540D01*
X114717Y91547D01*
X114635D01*
X114553Y91540D01*
X114472Y91526D01*
X114393Y91505D01*
X114315Y91476D01*
X114241Y91442D01*
X114170Y91401D01*
X114103Y91353D01*
X114040Y91301D01*
X113982Y91243D01*
X113929Y91180D01*
X113882Y91113D01*
X113841Y91041D01*
X113806Y90967D01*
X113778Y90890D01*
X113757Y90810D01*
X113751Y90780D01*
X113041Y90780D01*
X113036Y90810D01*
X113014Y90890D01*
X112986Y90967D01*
X112952Y91041D01*
X112911Y91113D01*
X112864Y91180D01*
X112811Y91243D01*
X112753Y91301D01*
X112690Y91353D01*
X112622Y91401D01*
X112551Y91442D01*
X112477Y91476D01*
X112400Y91505D01*
X112320Y91526D01*
X112240Y91540D01*
X112158Y91547D01*
X112076D01*
X111994Y91540D01*
X111913Y91526D01*
X111834Y91505D01*
X111756Y91476D01*
X111682Y91442D01*
X111611Y91401D01*
X111544Y91353D01*
X111481Y91301D01*
X111423Y91243D01*
X111370Y91180D01*
X111323Y91113D01*
X111282Y91041D01*
X111247Y90967D01*
X111219Y90890D01*
X111197Y90810D01*
X111190Y90769D01*
X111184Y90768D01*
X111140Y90753D01*
X111099Y90733D01*
X111061Y90707D01*
X111027Y90677D01*
X110996Y90643D01*
X110971Y90605D01*
X110951Y90563D01*
X110936Y90520D01*
X110927Y90475D01*
X110924Y90429D01*
Y90429D01*
X110924Y77069D01*
X107404D01*
Y82081D01*
X107433Y82094D01*
X107504Y82135D01*
X107572Y82183D01*
X107635Y82235D01*
X107693Y82293D01*
X107745Y82356D01*
X107792Y82424D01*
X107834Y82495D01*
X107868Y82569D01*
X107896Y82646D01*
X107918Y82726D01*
X107932Y82807D01*
X107939Y82888D01*
Y82971D01*
X107932Y83052D01*
X107918Y83133D01*
X107896Y83213D01*
X107868Y83290D01*
X107834Y83364D01*
X107792Y83435D01*
X107745Y83503D01*
X107693Y83565D01*
X107635Y83624D01*
X107572Y83676D01*
X107504Y83723D01*
X107433Y83765D01*
X107404Y83778D01*
Y84640D01*
X107433Y84654D01*
X107504Y84694D01*
X107572Y84742D01*
X107635Y84794D01*
X107693Y84852D01*
X107745Y84915D01*
X107792Y84983D01*
X107834Y85054D01*
X107868Y85128D01*
X107896Y85205D01*
X107918Y85285D01*
X107932Y85366D01*
X107939Y85448D01*
Y85530D01*
X107932Y85611D01*
X107918Y85692D01*
X107896Y85772D01*
X107868Y85849D01*
X107834Y85923D01*
X107792Y85994D01*
X107745Y86062D01*
X107693Y86125D01*
X107635Y86183D01*
X107572Y86235D01*
X107504Y86283D01*
X107433Y86324D01*
X107404Y86337D01*
Y86862D01*
X107401Y86908D01*
X107392Y86953D01*
X107377Y86997D01*
X107357Y87038D01*
X107332Y87076D01*
X107301Y87110D01*
X107301Y87110D01*
X107267Y87141D01*
X107261Y87144D01*
X107282Y87150D01*
X107359Y87178D01*
X107433Y87213D01*
X107504Y87254D01*
X107572Y87301D01*
X107635Y87353D01*
X107693Y87412D01*
X107745Y87475D01*
X107792Y87542D01*
X107834Y87613D01*
X107868Y87687D01*
X107896Y87765D01*
X107918Y87844D01*
X107932Y87925D01*
X107939Y88007D01*
Y88089D01*
X107932Y88170D01*
X107918Y88251D01*
X107896Y88331D01*
X107868Y88408D01*
X107834Y88482D01*
X107792Y88553D01*
X107745Y88621D01*
X107693Y88684D01*
X107635Y88742D01*
X107572Y88794D01*
X107504Y88842D01*
X107433Y88883D01*
X107404Y88896D01*
Y89758D01*
X107433Y89772D01*
X107504Y89813D01*
X107572Y89860D01*
X107635Y89912D01*
X107693Y89971D01*
X107745Y90034D01*
X107792Y90101D01*
X107834Y90172D01*
X107868Y90246D01*
X107896Y90324D01*
X107918Y90403D01*
X107932Y90484D01*
X107939Y90566D01*
Y90648D01*
X107932Y90729D01*
X107918Y90810D01*
X107896Y90890D01*
X107868Y90967D01*
X107864Y90977D01*
X108953D01*
X108961Y90977D01*
X108969Y90977D01*
X108984Y90979D01*
X108999Y90980D01*
X109007Y90981D01*
X109014Y90982D01*
X109029Y90986D01*
X109044Y90989D01*
X109051Y90991D01*
X109059Y90993D01*
X109073Y90999D01*
X109088Y91003D01*
X109095Y91007D01*
X109102Y91010D01*
X109115Y91017D01*
X109129Y91024D01*
X109135Y91028D01*
X109142Y91032D01*
X109154Y91041D01*
X109167Y91049D01*
X109173Y91054D01*
X109179Y91059D01*
X109198Y91075D01*
X109240Y91105D01*
X109285Y91130D01*
X109332Y91152D01*
X109380Y91170D01*
X109430Y91183D01*
X109481Y91192D01*
X109532Y91197D01*
X109583D01*
X109635Y91192D01*
X109685Y91183D01*
X109735Y91170D01*
X109783Y91152D01*
X109830Y91130D01*
X109875Y91105D01*
X109917Y91075D01*
X109936Y91059D01*
X109942Y91054D01*
X109948Y91049D01*
X109961Y91041D01*
X109973Y91032D01*
X109980Y91028D01*
X109986Y91024D01*
X110000Y91017D01*
X110013Y91010D01*
X110021Y91007D01*
X110028Y91003D01*
X110042Y90999D01*
X110056Y90993D01*
X110064Y90991D01*
X110071Y90989D01*
X110086Y90986D01*
X110101Y90982D01*
X110108Y90981D01*
X110116Y90980D01*
X110131Y90979D01*
X110146Y90977D01*
X110154Y90977D01*
X110162Y90977D01*
X110400D01*
X110445Y90980D01*
X110491Y90989D01*
X110534Y91003D01*
X110575Y91024D01*
X110613Y91049D01*
X110648Y91079D01*
X110678Y91114D01*
X110704Y91152D01*
X110724Y91193D01*
X110739Y91237D01*
X110748Y91282D01*
X110750Y91328D01*
Y104697D01*
X110750Y104697D01*
X110748Y104740D01*
X110748Y104743D01*
X110739Y104788D01*
X110724Y104831D01*
X110710Y104859D01*
X110704Y104872D01*
X110678Y104910D01*
X110648Y104945D01*
X110648Y104945D01*
X110648Y104945D01*
X110613Y104975D01*
X110575Y105001D01*
X110554Y105011D01*
X110534Y105021D01*
X110512Y105028D01*
X110490Y105036D01*
X110445Y105045D01*
X110400Y105048D01*
X109783D01*
X109841Y105063D01*
X109918Y105091D01*
X109992Y105126D01*
X110063Y105167D01*
X110131Y105214D01*
X110167Y105245D01*
X110398D01*
X110400Y105245D01*
X110445Y105247D01*
X110491Y105256D01*
X110512Y105264D01*
X110534Y105271D01*
X110555Y105281D01*
X110575Y105291D01*
X110613Y105317D01*
X110648Y105347D01*
X110678Y105382D01*
X110704Y105420D01*
X110714Y105440D01*
X110724Y105461D01*
X110731Y105483D01*
X110739Y105504D01*
X110748Y105549D01*
X110750Y105595D01*
Y111831D01*
X110748Y111876D01*
X110739Y111921D01*
X110724Y111965D01*
X110704Y112006D01*
X110678Y112044D01*
X110648Y112079D01*
X110613Y112109D01*
X110575Y112134D01*
X110534Y112155D01*
X110491Y112169D01*
X110445Y112178D01*
X110400Y112181D01*
X104583D01*
X104582Y112181D01*
X104536Y112179D01*
X104491Y112170D01*
X104469Y112162D01*
X104447Y112155D01*
X104406Y112135D01*
X104368Y112109D01*
X104334Y112079D01*
X104303Y112044D01*
X104278Y112006D01*
X104268Y111986D01*
X104258Y111965D01*
X104250Y111943D01*
X104243Y111922D01*
X104234Y111876D01*
X104231Y111831D01*
X104231Y109456D01*
X104165Y109432D01*
X104091Y109397D01*
X104020Y109356D01*
X103952Y109309D01*
X103889Y109256D01*
X103831Y109198D01*
X103779Y109135D01*
X103732Y109068D01*
X103690Y108996D01*
X103656Y108922D01*
X103628Y108845D01*
X103606Y108766D01*
X103592Y108685D01*
X103586Y108615D01*
X103322D01*
X103276Y108612D01*
X103231Y108603D01*
X103188Y108588D01*
X103146Y108568D01*
X103108Y108542D01*
X103074Y108512D01*
X103043Y108477D01*
X103018Y108439D01*
X102998Y108398D01*
X102983Y108355D01*
X102974Y108310D01*
X102971Y108264D01*
Y108264D01*
X102974Y108218D01*
X102983Y108173D01*
X102998Y108130D01*
X103018Y108088D01*
X103043Y108050D01*
X103074Y108016D01*
X103108Y107985D01*
X103146Y107960D01*
X103188Y107940D01*
X103231Y107925D01*
X103276Y107916D01*
X103322Y107913D01*
X103356D01*
Y105946D01*
X101586D01*
Y107913D01*
X101620D01*
X101666Y107916D01*
X101711Y107925D01*
X101754Y107940D01*
X101796Y107960D01*
X101834Y107985D01*
X101868Y108016D01*
X101899Y108050D01*
X101924Y108088D01*
X101944Y108130D01*
X101959Y108173D01*
X101968Y108218D01*
X101971Y108264D01*
Y108264D01*
X101968Y108310D01*
X101959Y108355D01*
X101944Y108398D01*
X101924Y108439D01*
X101899Y108477D01*
X101868Y108512D01*
X101834Y108542D01*
X101796Y108568D01*
X101754Y108588D01*
X101711Y108603D01*
X101666Y108612D01*
X101620Y108615D01*
X97889D01*
X97843Y108612D01*
X97798Y108603D01*
X97755Y108588D01*
X97713Y108568D01*
X97675Y108542D01*
X97641Y108512D01*
X97610Y108477D01*
X97585Y108439D01*
X97565Y108398D01*
X97550Y108355D01*
X97541Y108310D01*
X97538Y108264D01*
X97538Y80341D01*
X97541Y80295D01*
X97550Y80250D01*
X97565Y80207D01*
X97585Y80166D01*
X97610Y80128D01*
X97641Y80093D01*
X97675Y80063D01*
X97713Y80037D01*
X97755Y80017D01*
X97798Y80002D01*
X97843Y79993D01*
X97889Y79990D01*
X100163D01*
Y78220D01*
X97889D01*
X97843Y78217D01*
X97798Y78208D01*
X97755Y78194D01*
X97713Y78173D01*
X97675Y78148D01*
X97641Y78118D01*
X97610Y78083D01*
X97585Y78045D01*
X97565Y78004D01*
X97550Y77960D01*
X97541Y77915D01*
X97538Y77870D01*
Y77069D01*
X93587D01*
X91600Y79057D01*
X91600Y104233D01*
X91622Y104280D01*
X91650Y104357D01*
X91671Y104436D01*
X91685Y104517D01*
X91693Y104599D01*
Y104681D01*
X91685Y104763D01*
X91671Y104844D01*
X91650Y104923D01*
X91622Y105000D01*
X91600Y105047D01*
Y111937D01*
X93661Y113998D01*
X112937D01*
X112926Y113956D01*
X112911Y113875D01*
X112904Y113793D01*
Y113711D01*
X112911Y113629D01*
X112926Y113548D01*
X112947Y113469D01*
X112975Y113392D01*
X113010Y113317D01*
X113051Y113246D01*
X113098Y113179D01*
X113151Y113116D01*
X113209Y113058D01*
X113271Y113005D01*
X113339Y112958D01*
X113410Y112917D01*
X113484Y112882D01*
X113561Y112854D01*
X113641Y112833D01*
X113722Y112819D01*
X113804Y112811D01*
X113886D01*
X113968Y112819D01*
X114048Y112833D01*
X114128Y112854D01*
X114205Y112882D01*
X114279Y112917D01*
X114350Y112958D01*
X114418Y113005D01*
X114481Y113058D01*
X114539Y113116D01*
X114592Y113179D01*
X114639Y113246D01*
X114680Y113317D01*
X114714Y113392D01*
X114743Y113469D01*
X114750Y113497D01*
X114758Y113469D01*
X114786Y113392D01*
X114821Y113317D01*
X114862Y113246D01*
X114909Y113179D01*
X114962Y113116D01*
X115020Y113058D01*
X115083Y113005D01*
X115150Y112958D01*
X115221Y112917D01*
X115295Y112882D01*
X115373Y112854D01*
X115452Y112833D01*
X115533Y112819D01*
X115615Y112811D01*
X115697D01*
X115779Y112819D01*
X115859Y112833D01*
X115939Y112854D01*
X116016Y112882D01*
X116090Y112917D01*
X116162Y112958D01*
X116229Y113005D01*
X116292Y113058D01*
X116350Y113116D01*
X116402Y113179D01*
X116450Y113246D01*
X116491Y113317D01*
X116525Y113392D01*
X116553Y113469D01*
X116561Y113497D01*
X116569Y113469D01*
X116597Y113392D01*
X116632Y113317D01*
X116673Y113246D01*
X116720Y113179D01*
X116772Y113116D01*
X116831Y113058D01*
X116893Y113005D01*
X116961Y112958D01*
X117032Y112917D01*
X117106Y112882D01*
X117183Y112854D01*
X117263Y112833D01*
X117344Y112819D01*
X117426Y112811D01*
X117508D01*
X117589Y112819D01*
X117670Y112833D01*
X117750Y112854D01*
X117827Y112882D01*
X117901Y112917D01*
X117973Y112958D01*
X118040Y113005D01*
X118103Y113058D01*
X118161Y113116D01*
X118213Y113179D01*
X118261Y113246D01*
X118302Y113317D01*
X118336Y113392D01*
X118365Y113469D01*
X118372Y113497D01*
X118380Y113469D01*
X118408Y113392D01*
X118443Y113317D01*
X118484Y113246D01*
X118531Y113179D01*
X118584Y113116D01*
X118642Y113058D01*
X118704Y113005D01*
X118772Y112958D01*
X118843Y112917D01*
X118917Y112882D01*
X118995Y112854D01*
X119074Y112833D01*
X119155Y112819D01*
X119237Y112811D01*
X119319D01*
X119401Y112819D01*
X119481Y112833D01*
X119561Y112854D01*
X119638Y112882D01*
X119712Y112917D01*
X119783Y112958D01*
X119851Y113005D01*
X119914Y113058D01*
X119972Y113116D01*
X120025Y113179D01*
X120072Y113246D01*
X120113Y113317D01*
X120148Y113392D01*
X120176Y113469D01*
X120183Y113497D01*
X120191Y113469D01*
X120219Y113392D01*
X120254Y113317D01*
X120295Y113246D01*
X120342Y113179D01*
X120395Y113116D01*
X120453Y113058D01*
X120516Y113005D01*
X120583Y112958D01*
X120654Y112917D01*
X120728Y112882D01*
X120806Y112854D01*
X120885Y112833D01*
X120966Y112819D01*
X121048Y112811D01*
X121130D01*
X121212Y112819D01*
X121292Y112833D01*
X121372Y112854D01*
X121449Y112882D01*
X121523Y112917D01*
X121595Y112958D01*
X121662Y113005D01*
X121725Y113058D01*
X121783Y113116D01*
X121836Y113179D01*
X121883Y113246D01*
X121924Y113317D01*
X121958Y113392D01*
X121987Y113469D01*
X121994Y113497D01*
X122002Y113469D01*
X122030Y113392D01*
X122065Y113317D01*
X122106Y113246D01*
X122153Y113179D01*
X122206Y113116D01*
X122264Y113058D01*
X122327Y113005D01*
X122394Y112958D01*
X122465Y112917D01*
X122539Y112882D01*
X122617Y112854D01*
X122696Y112833D01*
X122777Y112819D01*
X122859Y112811D01*
X122941D01*
X123023Y112819D01*
X123103Y112833D01*
X123183Y112854D01*
X123260Y112882D01*
X123334Y112917D01*
X123406Y112958D01*
X123473Y113005D01*
X123536Y113058D01*
X123594Y113116D01*
X123647Y113179D01*
X123694Y113246D01*
X123700Y113256D01*
X123705Y113246D01*
X123752Y113179D01*
X123805Y113116D01*
X123863Y113058D01*
X123926Y113005D01*
X123994Y112958D01*
X124065Y112917D01*
X124139Y112882D01*
X124216Y112854D01*
X124296Y112833D01*
X124377Y112819D01*
X124458Y112811D01*
X124540D01*
X124622Y112819D01*
X124703Y112833D01*
X124783Y112854D01*
X124860Y112882D01*
X124934Y112917D01*
X125005Y112958D01*
X125073Y113005D01*
X125136Y113058D01*
X125194Y113116D01*
X125246Y113179D01*
X125294Y113246D01*
X125335Y113317D01*
X125369Y113392D01*
X125397Y113469D01*
X125419Y113548D01*
X125433Y113629D01*
X125440Y113711D01*
Y113793D01*
X125433Y113875D01*
X125419Y113956D01*
X125407Y113998D01*
X129017D01*
X129330Y113685D01*
D02*
G37*
G36*
X104582Y111831D02*
X110400D01*
Y105595D01*
X110400Y105595D01*
X104582D01*
X104582Y107674D01*
Y104697D01*
Y101778D01*
X104581Y101773D01*
X104580D01*
X104562Y101776D01*
X104481Y101783D01*
X104398D01*
X104317Y101776D01*
X104236Y101762D01*
X104156Y101741D01*
X104079Y101713D01*
X104005Y101678D01*
X103934Y101637D01*
X103866Y101590D01*
X103803Y101537D01*
X103745Y101479D01*
X103693Y101416D01*
X103646Y101349D01*
X103604Y101278D01*
X103570Y101203D01*
X103543Y101130D01*
X102783D01*
X102777Y101130D01*
X102775Y101135D01*
X102757Y101185D01*
X102750Y101203D01*
X102744Y101217D01*
X102744Y101217D01*
X102722Y101264D01*
X102722Y101264D01*
X102716Y101278D01*
X102708Y101291D01*
X102708Y101291D01*
X102694Y101314D01*
X102674Y101349D01*
X102640Y101397D01*
X102636Y101403D01*
X102627Y101416D01*
X102618Y101428D01*
X102617Y101428D01*
X102594Y101455D01*
X102575Y101479D01*
X102516Y101537D01*
X102485Y101563D01*
X102465Y101580D01*
X102465Y101580D01*
X102453Y101590D01*
X102441Y101599D01*
X102441Y101599D01*
X102432Y101605D01*
X102386Y101637D01*
X102373Y101645D01*
X102373Y101645D01*
X102360Y101652D01*
X102315Y101678D01*
X102301Y101684D01*
X102301Y101684D01*
X102255Y101706D01*
X102255Y101706D01*
X102241Y101713D01*
X102226Y101718D01*
X102226Y101718D01*
X102178Y101735D01*
X102178Y101735D01*
X102164Y101741D01*
X102084Y101762D01*
X102003Y101776D01*
X101988Y101778D01*
X101988D01*
X101957Y101780D01*
X101921Y101783D01*
X101839D01*
X101794Y101779D01*
X101773Y101778D01*
X101773D01*
X101758Y101776D01*
X101677Y101762D01*
X101597Y101741D01*
X101583Y101735D01*
X101583Y101735D01*
X101534Y101718D01*
X101534Y101718D01*
X101520Y101713D01*
X101506Y101706D01*
X101506Y101706D01*
X101460Y101684D01*
X101460Y101684D01*
X101446Y101678D01*
X101433Y101670D01*
X101432Y101670D01*
X101409Y101657D01*
X101375Y101637D01*
X101326Y101603D01*
X101320Y101599D01*
X101307Y101590D01*
X101296Y101580D01*
X101295Y101580D01*
X101268Y101557D01*
X101244Y101537D01*
X101234Y101526D01*
X101197Y101490D01*
X101186Y101479D01*
X101160Y101447D01*
X101143Y101428D01*
X101143Y101428D01*
X101134Y101416D01*
X101125Y101403D01*
X101125Y101403D01*
X101119Y101395D01*
X101086Y101349D01*
X101079Y101335D01*
X101079Y101335D01*
X101071Y101323D01*
X101045Y101278D01*
X101039Y101264D01*
X101039Y101264D01*
X101017Y101217D01*
X101017Y101217D01*
X101011Y101203D01*
X101005Y101189D01*
X101005Y101189D01*
X100988Y101140D01*
X100988Y101140D01*
X100983Y101126D01*
X100961Y101047D01*
X100947Y100966D01*
X100946Y100950D01*
Y100950D01*
X100943Y100919D01*
X100940Y100884D01*
Y100869D01*
Y100817D01*
Y100802D01*
X100944Y100756D01*
X100946Y100735D01*
Y100735D01*
X100947Y100720D01*
X100961Y100639D01*
X100983Y100560D01*
X100988Y100545D01*
X100988Y100545D01*
X101005Y100497D01*
X101005Y100497D01*
X101011Y100483D01*
X101017Y100469D01*
X101017Y100469D01*
X101039Y100422D01*
X101039Y100422D01*
X101045Y100408D01*
X101053Y100395D01*
X101053Y100395D01*
X101067Y100371D01*
X101086Y100337D01*
X101121Y100288D01*
X101125Y100282D01*
X101134Y100270D01*
X101143Y100258D01*
X101143Y100258D01*
X101177Y100219D01*
X101177Y100218D01*
X101186Y100207D01*
X101197Y100196D01*
X101197Y100196D01*
X101227Y100166D01*
X101234Y100158D01*
X101235Y100146D01*
Y98812D01*
Y98461D01*
X103510D01*
X103516Y98461D01*
X103516Y98461D01*
X103506Y98407D01*
X103499Y98325D01*
Y98243D01*
X103506Y98161D01*
X103520Y98080D01*
X103542Y98001D01*
X103570Y97923D01*
X103604Y97849D01*
X103646Y97778D01*
X103693Y97711D01*
X103745Y97648D01*
X103803Y97590D01*
X103866Y97537D01*
X103934Y97490D01*
X104005Y97449D01*
X104079Y97414D01*
X104156Y97386D01*
X104236Y97365D01*
X104317Y97350D01*
X104398Y97343D01*
X104481D01*
X104562Y97350D01*
X104580Y97354D01*
X104581D01*
X104582Y97348D01*
Y96661D01*
X104581Y96655D01*
X104580D01*
X104562Y96658D01*
X104481Y96665D01*
X104398D01*
X104317Y96658D01*
X104236Y96644D01*
X104156Y96623D01*
X104079Y96595D01*
X104005Y96560D01*
X103934Y96519D01*
X103866Y96472D01*
X103803Y96419D01*
X103745Y96361D01*
X103707Y96315D01*
Y96323D01*
X103707Y96326D01*
Y97212D01*
Y97563D01*
X101235D01*
Y97212D01*
Y96421D01*
X101234Y96410D01*
X101227Y96402D01*
X101197Y96372D01*
X101197Y96372D01*
X101186Y96361D01*
X101177Y96349D01*
X101143Y96310D01*
X101143Y96310D01*
X101134Y96298D01*
X101125Y96285D01*
X101125Y96285D01*
X101119Y96277D01*
X101086Y96231D01*
X101079Y96217D01*
X101079Y96217D01*
X101071Y96205D01*
X101045Y96159D01*
X101039Y96146D01*
X101039Y96146D01*
X101017Y96099D01*
X101017Y96099D01*
X101011Y96085D01*
X101005Y96071D01*
X101005Y96071D01*
X100988Y96022D01*
X100988Y96022D01*
X100983Y96008D01*
X100961Y95929D01*
X100947Y95848D01*
X100946Y95832D01*
Y95832D01*
X100943Y95801D01*
X100940Y95766D01*
Y95750D01*
Y95699D01*
Y95684D01*
X100944Y95638D01*
X100946Y95617D01*
Y95617D01*
X100947Y95602D01*
X100961Y95521D01*
X100983Y95442D01*
X100988Y95427D01*
X100988Y95427D01*
X101005Y95379D01*
X101005Y95379D01*
X101011Y95364D01*
X101017Y95351D01*
X101017Y95350D01*
X101039Y95304D01*
X101039Y95304D01*
X101045Y95290D01*
X101053Y95277D01*
X101053Y95277D01*
X101067Y95253D01*
X101086Y95219D01*
X101121Y95170D01*
X101125Y95164D01*
X101134Y95152D01*
X101143Y95140D01*
X101143Y95140D01*
X101177Y95100D01*
X101177Y95100D01*
X101186Y95089D01*
X101197Y95078D01*
X101197Y95078D01*
X101227Y95048D01*
X101235Y95039D01*
X101235Y95039D01*
X101235Y95039D01*
X101235Y95039D01*
X101235Y95039D01*
X101235Y95038D01*
Y94894D01*
X101435D01*
X101437Y94894D01*
X101438Y94893D01*
X101443Y94891D01*
X101446Y94890D01*
X101492Y94868D01*
X101520Y94855D01*
X101534Y94850D01*
X101534Y94850D01*
X101583Y94832D01*
X101583Y94832D01*
X101597Y94827D01*
X101677Y94806D01*
X101758Y94791D01*
X101773Y94790D01*
X101773D01*
X101804Y94787D01*
X101839Y94784D01*
X101921D01*
X101967Y94788D01*
X101988Y94790D01*
X101988D01*
X102003Y94791D01*
X102084Y94806D01*
X102164Y94827D01*
X102178Y94832D01*
X102178Y94832D01*
X102226Y94850D01*
X102226Y94850D01*
X102241Y94855D01*
X102255Y94861D01*
X102255Y94862D01*
X102315Y94890D01*
X102318Y94891D01*
X102322Y94893D01*
X102324Y94894D01*
X102335Y94894D01*
X103707D01*
Y95134D01*
X103707Y95135D01*
X103745Y95089D01*
X103803Y95031D01*
X103866Y94978D01*
X103934Y94931D01*
X104005Y94890D01*
X104079Y94855D01*
X104156Y94827D01*
X104236Y94806D01*
X104317Y94791D01*
X104398Y94784D01*
X104481D01*
X104562Y94791D01*
X104580Y94794D01*
X104581D01*
X104582Y94789D01*
Y94101D01*
X104581Y94096D01*
X104580D01*
X104562Y94099D01*
X104481Y94106D01*
X104398D01*
X104317Y94099D01*
X104236Y94085D01*
X104156Y94064D01*
X104079Y94036D01*
X104005Y94001D01*
X103934Y93960D01*
X103866Y93913D01*
X103803Y93860D01*
X103745Y93802D01*
X103707Y93756D01*
X103707Y93756D01*
Y93996D01*
X102335D01*
X102324Y93997D01*
X102322Y93997D01*
X102318Y93999D01*
X102315Y94001D01*
X102269Y94023D01*
X102241Y94036D01*
X102226Y94041D01*
X102226Y94041D01*
X102178Y94058D01*
X102178Y94058D01*
X102164Y94064D01*
X102084Y94085D01*
X102003Y94099D01*
X101988Y94100D01*
X101988D01*
X101957Y94103D01*
X101921Y94106D01*
X101839D01*
X101794Y94102D01*
X101773Y94100D01*
X101773D01*
X101758Y94099D01*
X101677Y94085D01*
X101597Y94064D01*
X101583Y94058D01*
X101583Y94058D01*
X101534Y94041D01*
X101534Y94041D01*
X101520Y94036D01*
X101506Y94029D01*
X101506Y94029D01*
X101446Y94001D01*
X101443Y93999D01*
X101438Y93997D01*
X101437Y93997D01*
X101435Y93996D01*
X101235D01*
Y93852D01*
X101235Y93852D01*
X101235Y93851D01*
X101227Y93843D01*
X101197Y93813D01*
X101197Y93813D01*
X101186Y93802D01*
X101177Y93790D01*
X101143Y93751D01*
X101143Y93751D01*
X101134Y93739D01*
X101125Y93726D01*
X101125Y93726D01*
X101119Y93718D01*
X101086Y93672D01*
X101079Y93658D01*
X101079Y93658D01*
X101071Y93646D01*
X101045Y93600D01*
X101039Y93586D01*
X101039Y93586D01*
X101017Y93540D01*
X101017Y93540D01*
X101011Y93526D01*
X101005Y93512D01*
X101005Y93512D01*
X100988Y93463D01*
X100988Y93463D01*
X100983Y93449D01*
X100961Y93370D01*
X100947Y93289D01*
X100946Y93273D01*
Y93273D01*
X100943Y93242D01*
X100940Y93207D01*
Y93191D01*
Y93140D01*
Y93125D01*
X100944Y93079D01*
X100946Y93058D01*
Y93058D01*
X100947Y93043D01*
X100961Y92962D01*
X100983Y92883D01*
X100988Y92868D01*
X100988Y92868D01*
X101005Y92820D01*
X101005Y92820D01*
X101011Y92805D01*
X101017Y92792D01*
X101017Y92791D01*
X101039Y92745D01*
X101039Y92745D01*
X101045Y92731D01*
X101053Y92718D01*
X101053Y92718D01*
X101067Y92694D01*
X101086Y92660D01*
X101121Y92611D01*
X101125Y92605D01*
X101134Y92593D01*
X101143Y92581D01*
X101143Y92581D01*
X101177Y92541D01*
X101177Y92541D01*
X101186Y92530D01*
X101197Y92519D01*
X101197Y92519D01*
X101227Y92489D01*
X101234Y92480D01*
X101235Y92469D01*
Y91491D01*
Y91328D01*
X101276D01*
X101270Y91323D01*
X101268Y91320D01*
X101256Y91311D01*
X101256Y91311D01*
X101244Y91301D01*
X101186Y91243D01*
X101160Y91211D01*
X101143Y91192D01*
X101143Y91192D01*
X101134Y91180D01*
X101125Y91167D01*
X101125Y91167D01*
X101119Y91159D01*
X101086Y91113D01*
X101079Y91099D01*
X101079Y91099D01*
X101071Y91087D01*
X101045Y91041D01*
X101039Y91027D01*
X101039Y91027D01*
X101017Y90981D01*
X101017Y90981D01*
X101011Y90967D01*
X101005Y90953D01*
X101005Y90953D01*
X100988Y90904D01*
X100988Y90904D01*
X100983Y90890D01*
X100961Y90810D01*
X100947Y90729D01*
X100946Y90714D01*
Y90714D01*
X100943Y90683D01*
X100940Y90648D01*
Y90632D01*
Y90581D01*
Y90566D01*
X100944Y90520D01*
X100946Y90499D01*
Y90499D01*
X100947Y90484D01*
X100961Y90403D01*
X100983Y90324D01*
X100988Y90309D01*
X100988Y90309D01*
X101005Y90261D01*
X101005Y90261D01*
X101011Y90246D01*
X101017Y90232D01*
X101017Y90232D01*
X101039Y90186D01*
X101039Y90186D01*
X101045Y90172D01*
X101053Y90159D01*
X101053Y90159D01*
X101067Y90135D01*
X101086Y90101D01*
X101121Y90052D01*
X101125Y90046D01*
X101134Y90034D01*
X101143Y90022D01*
X101143Y90022D01*
X101177Y89982D01*
X101177Y89982D01*
X101186Y89971D01*
X101197Y89960D01*
X101197Y89960D01*
X101227Y89930D01*
X101234Y89921D01*
X101235Y89910D01*
Y88744D01*
X101234Y88733D01*
X101227Y88724D01*
X101197Y88695D01*
X101197Y88694D01*
X101186Y88684D01*
X101177Y88672D01*
X101143Y88633D01*
X101143Y88632D01*
X101134Y88621D01*
X101125Y88608D01*
X101125Y88608D01*
X101119Y88599D01*
X101086Y88553D01*
X101079Y88540D01*
X101079Y88540D01*
X101071Y88527D01*
X101045Y88482D01*
X101039Y88468D01*
X101039Y88468D01*
X101017Y88422D01*
X101017Y88422D01*
X101011Y88408D01*
X101005Y88394D01*
X101005Y88393D01*
X100988Y88345D01*
X100988Y88345D01*
X100983Y88331D01*
X100961Y88251D01*
X100947Y88170D01*
X100946Y88155D01*
Y88155D01*
X100943Y88124D01*
X100940Y88089D01*
Y88073D01*
Y88022D01*
Y88007D01*
X100944Y87961D01*
X100946Y87940D01*
Y87940D01*
X100947Y87925D01*
X100961Y87844D01*
X100983Y87765D01*
X100988Y87750D01*
X100988Y87750D01*
X101005Y87702D01*
X101005Y87702D01*
X101011Y87687D01*
X101017Y87673D01*
X101017Y87673D01*
X101039Y87627D01*
X101039Y87627D01*
X101045Y87613D01*
X101053Y87600D01*
X101053Y87600D01*
X101067Y87576D01*
X101086Y87542D01*
X101121Y87493D01*
X101125Y87487D01*
X101134Y87475D01*
X101143Y87463D01*
X101143Y87463D01*
X101167Y87435D01*
X101186Y87412D01*
X101197Y87401D01*
X101234Y87364D01*
X101244Y87353D01*
X101276Y87327D01*
X101296Y87311D01*
X101296Y87310D01*
X101307Y87301D01*
X101320Y87292D01*
X101320Y87292D01*
X101329Y87286D01*
X101375Y87254D01*
X101388Y87246D01*
X101388Y87246D01*
X101401Y87239D01*
X101446Y87213D01*
X101460Y87206D01*
X101460Y87206D01*
X101506Y87184D01*
X101506Y87184D01*
X101520Y87178D01*
X101534Y87173D01*
X101534Y87173D01*
X101583Y87155D01*
X101583Y87155D01*
X101597Y87150D01*
X101677Y87129D01*
X101758Y87114D01*
X101773Y87113D01*
X101773D01*
X101804Y87110D01*
X101839Y87107D01*
X101921D01*
X101967Y87111D01*
X101988Y87113D01*
X101988D01*
X102003Y87114D01*
X102084Y87129D01*
X102164Y87150D01*
X102178Y87155D01*
X102178Y87155D01*
X102226Y87173D01*
X102226Y87173D01*
X102241Y87178D01*
X102255Y87184D01*
X102255Y87184D01*
X102301Y87206D01*
X102301Y87206D01*
X102315Y87213D01*
X102328Y87220D01*
X102328Y87220D01*
X102352Y87234D01*
X102386Y87254D01*
X102435Y87288D01*
X102441Y87292D01*
X102453Y87301D01*
X102465Y87311D01*
X102465Y87311D01*
X102493Y87334D01*
X102516Y87353D01*
X102575Y87412D01*
X102601Y87443D01*
X102618Y87463D01*
X102618Y87463D01*
X102627Y87475D01*
X102636Y87487D01*
X102636Y87487D01*
X102642Y87496D01*
X102674Y87542D01*
X102682Y87555D01*
X102682Y87555D01*
X102690Y87568D01*
X102716Y87613D01*
X102722Y87627D01*
X102722Y87627D01*
X102744Y87673D01*
X102744Y87673D01*
X102750Y87687D01*
X102755Y87702D01*
X102755Y87702D01*
X102775Y87754D01*
X102775Y87755D01*
X102777Y87760D01*
X102783Y87761D01*
X103543D01*
X103570Y87687D01*
X103604Y87613D01*
X103646Y87542D01*
X103693Y87475D01*
X103745Y87412D01*
X103803Y87353D01*
X103866Y87301D01*
X103934Y87254D01*
X104005Y87213D01*
X104079Y87178D01*
X104156Y87150D01*
X104236Y87129D01*
X104317Y87114D01*
X104398Y87107D01*
X104481D01*
X104562Y87114D01*
X104582Y87118D01*
Y86862D01*
X107053D01*
X107053Y86862D01*
Y77060D01*
X103707D01*
Y79728D01*
X103072D01*
Y79965D01*
X103087Y79978D01*
X103111Y79997D01*
X103169Y80055D01*
X103195Y80087D01*
X103212Y80107D01*
X103212Y80107D01*
X103222Y80118D01*
X103231Y80131D01*
X103231Y80131D01*
X103237Y80140D01*
X103269Y80186D01*
X103277Y80199D01*
X103277Y80199D01*
X103284Y80212D01*
X103310Y80257D01*
X103316Y80271D01*
X103316Y80271D01*
X103338Y80317D01*
X103338Y80317D01*
X103345Y80331D01*
X103350Y80346D01*
X103350Y80346D01*
X103367Y80394D01*
X103368Y80394D01*
X103373Y80408D01*
X103394Y80488D01*
X103408Y80569D01*
X103410Y80584D01*
Y80584D01*
X103413Y80621D01*
X103414Y80626D01*
X103415Y80627D01*
X103707D01*
Y83295D01*
X102759D01*
X102755Y83296D01*
X102748D01*
X102745Y83302D01*
X102743Y83306D01*
X102716Y83364D01*
X102708Y83377D01*
X102708Y83377D01*
X102682Y83422D01*
X102682Y83422D01*
X102674Y83435D01*
X102640Y83484D01*
X102636Y83490D01*
X102627Y83503D01*
X102618Y83514D01*
X102617Y83514D01*
X102594Y83542D01*
X102575Y83565D01*
X102516Y83624D01*
X102485Y83650D01*
X102465Y83666D01*
X102465Y83667D01*
X102453Y83676D01*
X102441Y83685D01*
X102441Y83685D01*
X102432Y83691D01*
X102386Y83723D01*
X102373Y83731D01*
X102373Y83731D01*
X102360Y83738D01*
X102315Y83765D01*
X102301Y83771D01*
X102301Y83771D01*
X102255Y83793D01*
X102255Y83793D01*
X102241Y83799D01*
X102226Y83805D01*
X102226Y83805D01*
X102178Y83822D01*
X102178Y83822D01*
X102164Y83827D01*
X102084Y83849D01*
X102003Y83863D01*
X101988Y83864D01*
X101988D01*
X101957Y83867D01*
X101921Y83870D01*
X101839D01*
X101794Y83866D01*
X101773Y83864D01*
X101773D01*
X101758Y83863D01*
X101677Y83849D01*
X101597Y83827D01*
X101583Y83822D01*
X101583Y83822D01*
X101534Y83805D01*
X101534Y83805D01*
X101520Y83799D01*
X101506Y83793D01*
X101506Y83793D01*
X101460Y83771D01*
X101460Y83771D01*
X101446Y83765D01*
X101433Y83757D01*
X101432Y83757D01*
X101409Y83743D01*
X101375Y83723D01*
X101326Y83689D01*
X101320Y83685D01*
X101307Y83676D01*
X101296Y83666D01*
X101295Y83666D01*
X101268Y83643D01*
X101244Y83624D01*
X101234Y83613D01*
X101197Y83576D01*
X101186Y83565D01*
X101160Y83534D01*
X101143Y83514D01*
X101143Y83514D01*
X101134Y83503D01*
X101125Y83490D01*
X101125Y83490D01*
X101119Y83481D01*
X101086Y83435D01*
X101079Y83422D01*
X101079Y83422D01*
X101071Y83409D01*
X101045Y83364D01*
X101039Y83350D01*
X101039Y83350D01*
X101017Y83304D01*
X101017Y83304D01*
X101011Y83290D01*
X101005Y83276D01*
X101005Y83275D01*
X100988Y83227D01*
X100988Y83227D01*
X100983Y83213D01*
X100961Y83133D01*
X100947Y83052D01*
X100946Y83037D01*
Y83037D01*
X100943Y83006D01*
X100940Y82971D01*
Y82955D01*
Y82904D01*
Y82888D01*
X100944Y82843D01*
X100946Y82822D01*
Y82822D01*
X100947Y82807D01*
X100961Y82726D01*
X100983Y82646D01*
X100988Y82632D01*
X100988Y82632D01*
X101005Y82584D01*
X101005Y82584D01*
X101011Y82569D01*
X101017Y82555D01*
X101017Y82555D01*
X101039Y82509D01*
X101039Y82509D01*
X101045Y82495D01*
X101053Y82481D01*
X101053Y82481D01*
X101067Y82458D01*
X101086Y82424D01*
X101121Y82375D01*
X101125Y82369D01*
X101134Y82356D01*
X101143Y82345D01*
X101143Y82345D01*
X101177Y82305D01*
X101177Y82305D01*
X101186Y82293D01*
X101197Y82283D01*
X101197Y82283D01*
X101227Y82253D01*
X101234Y82244D01*
X101235Y82233D01*
Y80974D01*
Y80627D01*
X101535D01*
X101536Y80626D01*
X101537Y80621D01*
X101540Y80584D01*
Y80584D01*
X101541Y80569D01*
X101556Y80488D01*
X101577Y80408D01*
X101582Y80394D01*
X101582Y80394D01*
X101600Y80346D01*
X101600Y80346D01*
X101605Y80331D01*
X101612Y80317D01*
X101612Y80317D01*
X101633Y80271D01*
X101633Y80271D01*
X101640Y80257D01*
X101647Y80243D01*
X101647Y80243D01*
X101661Y80220D01*
X101681Y80186D01*
X101715Y80137D01*
X101719Y80131D01*
X101728Y80118D01*
X101738Y80107D01*
X101738Y80107D01*
X101761Y80079D01*
X101781Y80055D01*
X101792Y80045D01*
X101828Y80008D01*
X101839Y79997D01*
X101870Y79971D01*
Y79728D01*
X101235D01*
Y79378D01*
Y77069D01*
Y77060D01*
X97889Y77060D01*
Y77858D01*
X97889Y77869D01*
X97900Y77870D01*
X100514D01*
Y80341D01*
X97900D01*
X97889Y80342D01*
X97889Y80353D01*
X97889Y108252D01*
X97889Y108263D01*
X97900Y108264D01*
X101609D01*
X101609Y108264D01*
X101609Y108264D01*
X101235D01*
Y107913D01*
Y105946D01*
Y105595D01*
X103707D01*
Y108264D01*
X103333D01*
X103333Y108264D01*
X103333Y108264D01*
X104582D01*
X104582Y111831D01*
X104582Y111831D01*
D02*
G37*
G36*
X101957Y101428D02*
X102008Y101419D01*
X102058Y101406D01*
X102106Y101388D01*
X102153Y101366D01*
X102198Y101341D01*
X102240Y101311D01*
X102279Y101278D01*
X102316Y101242D01*
X102349Y101202D01*
X102378Y101160D01*
X102404Y101115D01*
X102426Y101069D01*
X102447Y101010D01*
X102450Y101003D01*
X102453Y100996D01*
X102460Y100982D01*
X102466Y100968D01*
X102470Y100961D01*
X102473Y100954D01*
X102482Y100942D01*
X102490Y100929D01*
X102494Y100923D01*
X102499Y100916D01*
X102509Y100905D01*
X102518Y100893D01*
X102524Y100888D01*
X102529Y100882D01*
X102540Y100872D01*
X102551Y100861D01*
X102558Y100857D01*
X102563Y100852D01*
X102576Y100843D01*
X102588Y100834D01*
X102595Y100830D01*
X102602Y100826D01*
X102615Y100819D01*
X102629Y100812D01*
X102636Y100809D01*
X102643Y100806D01*
X102657Y100801D01*
X102671Y100795D01*
X102679Y100794D01*
X102686Y100791D01*
X102701Y100788D01*
X102716Y100785D01*
X102724Y100784D01*
X102731Y100782D01*
X102746Y100781D01*
X102762Y100779D01*
X102769Y100780D01*
X102777Y100779D01*
X103501D01*
X103506Y100720D01*
X103520Y100639D01*
X103542Y100560D01*
X103570Y100483D01*
X103604Y100408D01*
X103646Y100337D01*
X103693Y100270D01*
X103745Y100207D01*
X103803Y100149D01*
X103866Y100096D01*
X103934Y100049D01*
X104005Y100008D01*
X104079Y99973D01*
X104156Y99945D01*
X104231Y99925D01*
Y99202D01*
X104156Y99182D01*
X104079Y99154D01*
X104005Y99119D01*
X103934Y99078D01*
X103866Y99031D01*
X103803Y98978D01*
X103745Y98920D01*
X103693Y98857D01*
X103646Y98790D01*
X103644Y98787D01*
X103635Y98790D01*
X103621Y98796D01*
X103614Y98798D01*
X103606Y98800D01*
X103591Y98803D01*
X103577Y98807D01*
X103569Y98808D01*
X103561Y98809D01*
X103546Y98810D01*
X103531Y98812D01*
X103523Y98812D01*
X103516Y98812D01*
X101586D01*
Y100158D01*
X101583Y100204D01*
X101574Y100249D01*
X101559Y100292D01*
X101539Y100333D01*
X101513Y100372D01*
X101483Y100406D01*
X101483Y100406D01*
X101445Y100444D01*
X101412Y100483D01*
X101383Y100526D01*
X101357Y100570D01*
X101335Y100617D01*
X101317Y100665D01*
X101304Y100715D01*
X101295Y100766D01*
X101291Y100817D01*
Y100869D01*
X101295Y100920D01*
X101304Y100971D01*
X101317Y101020D01*
X101335Y101069D01*
X101357Y101115D01*
X101383Y101160D01*
X101412Y101202D01*
X101445Y101242D01*
X101482Y101278D01*
X101521Y101311D01*
X101563Y101341D01*
X101608Y101366D01*
X101654Y101388D01*
X101703Y101406D01*
X101753Y101419D01*
X101803Y101428D01*
X101855Y101433D01*
X101906D01*
X101957Y101428D01*
D02*
G37*
G36*
X103356Y96315D02*
X103357Y96300D01*
X103357Y96284D01*
X103359Y96277D01*
X103359Y96269D01*
X103362Y96254D01*
X103364Y96239D01*
X103366Y96232D01*
X103368Y96224D01*
X103373Y96210D01*
X103377Y96195D01*
X103380Y96188D01*
X103383Y96181D01*
X103390Y96167D01*
X103396Y96153D01*
X103400Y96146D01*
X103403Y96139D01*
X103411Y96127D01*
X103419Y96114D01*
X103424Y96108D01*
X103428Y96101D01*
X103439Y96090D01*
X103448Y96078D01*
X103454Y96073D01*
X103459Y96067D01*
X103470Y96057D01*
X103481Y96046D01*
X103488Y96042D01*
X103493Y96037D01*
X103506Y96028D01*
X103518Y96019D01*
X103525Y96015D01*
X103531Y96011D01*
X103541Y96006D01*
X103520Y95929D01*
X103506Y95848D01*
X103499Y95766D01*
Y95684D01*
X103506Y95602D01*
X103520Y95521D01*
X103541Y95443D01*
X103531Y95438D01*
X103525Y95434D01*
X103518Y95430D01*
X103506Y95421D01*
X103493Y95413D01*
X103488Y95408D01*
X103481Y95403D01*
X103470Y95393D01*
X103459Y95383D01*
X103454Y95377D01*
X103448Y95372D01*
X103439Y95360D01*
X103428Y95348D01*
X103424Y95342D01*
X103419Y95336D01*
X103411Y95323D01*
X103403Y95310D01*
X103400Y95303D01*
X103396Y95297D01*
X103390Y95283D01*
X103383Y95269D01*
X103380Y95262D01*
X103377Y95255D01*
X103375Y95245D01*
X102323D01*
X102278Y95242D01*
X102251Y95237D01*
X102233Y95233D01*
X102233Y95233D01*
X102189Y95218D01*
X102169Y95209D01*
X102167Y95208D01*
X102167Y95208D01*
X102106Y95179D01*
X102058Y95162D01*
X102008Y95148D01*
X101957Y95139D01*
X101906Y95135D01*
X101855D01*
X101803Y95139D01*
X101753Y95148D01*
X101703Y95162D01*
X101655Y95179D01*
X101594Y95208D01*
X101593Y95208D01*
X101591Y95209D01*
X101572Y95218D01*
X101528Y95233D01*
X101528Y95233D01*
X101528D01*
X101527Y95234D01*
X101513Y95253D01*
X101483Y95288D01*
X101483Y95288D01*
X101445Y95326D01*
X101412Y95365D01*
X101383Y95408D01*
X101357Y95452D01*
X101335Y95499D01*
X101317Y95547D01*
X101304Y95597D01*
X101295Y95648D01*
X101291Y95699D01*
Y95750D01*
X101295Y95802D01*
X101304Y95853D01*
X101317Y95902D01*
X101335Y95951D01*
X101357Y95997D01*
X101383Y96042D01*
X101412Y96084D01*
X101445Y96124D01*
X101483Y96162D01*
X101513Y96196D01*
X101539Y96234D01*
X101549Y96255D01*
X101559Y96275D01*
X101574Y96319D01*
X101583Y96364D01*
X101586Y96410D01*
Y97212D01*
X103356D01*
Y96315D01*
D02*
G37*
G36*
X110400Y104697D02*
X110400Y104697D01*
Y91328D01*
X110162D01*
X110131Y91353D01*
X110063Y91401D01*
X109992Y91442D01*
X109918Y91476D01*
X109841Y91505D01*
X109761Y91526D01*
X109680Y91540D01*
X109599Y91547D01*
X109517D01*
X109435Y91540D01*
X109354Y91526D01*
X109274Y91505D01*
X109197Y91476D01*
X109123Y91442D01*
X109052Y91401D01*
X108984Y91353D01*
X108953Y91328D01*
X107053D01*
X107053Y91328D01*
Y87761D01*
X104582D01*
Y93745D01*
X104597Y93746D01*
X104612Y93746D01*
X104620Y93748D01*
X104627Y93748D01*
X104642Y93751D01*
X104657Y93753D01*
X104665Y93755D01*
X104672Y93757D01*
X104687Y93762D01*
X104701Y93766D01*
X104709Y93769D01*
X104716Y93772D01*
X104730Y93778D01*
X104744Y93785D01*
X104750Y93788D01*
X104757Y93792D01*
X104770Y93800D01*
X104783Y93808D01*
X104789Y93813D01*
X104795Y93817D01*
X104807Y93827D01*
X104818Y93837D01*
X104824Y93843D01*
X104830Y93848D01*
X104840Y93859D01*
X104850Y93870D01*
X104855Y93876D01*
X104860Y93882D01*
X104868Y93895D01*
X104877Y93907D01*
X104881Y93914D01*
X104885Y93920D01*
X104892Y93934D01*
X104900Y93947D01*
X104902Y93955D01*
X104906Y93962D01*
X104911Y93976D01*
X104916Y93990D01*
X104918Y93998D01*
X104920Y94005D01*
X104923Y94020D01*
X104927Y94035D01*
X104928Y94042D01*
X104929Y94050D01*
X104930Y94065D01*
X104932Y94080D01*
X104932Y94088D01*
X104932Y94096D01*
Y94795D01*
X104932Y94802D01*
X104932Y94810D01*
X104930Y94825D01*
X104929Y94841D01*
X104928Y94848D01*
X104927Y94856D01*
X104923Y94871D01*
X104920Y94885D01*
X104918Y94893D01*
X104916Y94900D01*
X104911Y94915D01*
X104906Y94929D01*
X104902Y94936D01*
X104900Y94943D01*
X104892Y94956D01*
X104885Y94970D01*
X104881Y94977D01*
X104877Y94983D01*
X104868Y94996D01*
X104860Y95008D01*
X104855Y95014D01*
X104850Y95020D01*
X104840Y95031D01*
X104830Y95043D01*
X104824Y95048D01*
X104818Y95053D01*
X104807Y95063D01*
X104795Y95073D01*
X104789Y95077D01*
X104783Y95082D01*
X104770Y95090D01*
X104757Y95099D01*
X104750Y95102D01*
X104744Y95106D01*
X104729Y95112D01*
X104716Y95119D01*
X104709Y95121D01*
X104701Y95124D01*
X104687Y95129D01*
X104672Y95134D01*
X104665Y95135D01*
X104657Y95137D01*
X104642Y95139D01*
X104627Y95143D01*
X104620Y95143D01*
X104612Y95144D01*
X104597Y95144D01*
X104582Y95145D01*
Y96304D01*
X104597Y96305D01*
X104612Y96305D01*
X104620Y96307D01*
X104627Y96307D01*
X104642Y96310D01*
X104657Y96312D01*
X104665Y96314D01*
X104672Y96316D01*
X104687Y96321D01*
X104701Y96325D01*
X104709Y96328D01*
X104716Y96331D01*
X104730Y96337D01*
X104744Y96344D01*
X104750Y96348D01*
X104757Y96351D01*
X104770Y96359D01*
X104783Y96367D01*
X104789Y96372D01*
X104795Y96377D01*
X104807Y96387D01*
X104818Y96396D01*
X104824Y96402D01*
X104830Y96407D01*
X104840Y96418D01*
X104850Y96429D01*
X104855Y96435D01*
X104860Y96441D01*
X104868Y96454D01*
X104877Y96466D01*
X104881Y96473D01*
X104885Y96479D01*
X104892Y96493D01*
X104900Y96506D01*
X104902Y96514D01*
X104906Y96521D01*
X104911Y96535D01*
X104916Y96549D01*
X104918Y96557D01*
X104920Y96564D01*
X104923Y96579D01*
X104927Y96594D01*
X104928Y96601D01*
X104929Y96609D01*
X104930Y96624D01*
X104932Y96639D01*
X104932Y96647D01*
X104932Y96655D01*
Y97354D01*
X104932Y97361D01*
X104932Y97369D01*
X104930Y97385D01*
X104929Y97400D01*
X104928Y97407D01*
X104927Y97415D01*
X104923Y97430D01*
X104920Y97445D01*
X104918Y97452D01*
X104916Y97459D01*
X104911Y97474D01*
X104906Y97488D01*
X104902Y97495D01*
X104900Y97502D01*
X104892Y97515D01*
X104885Y97529D01*
X104881Y97536D01*
X104877Y97542D01*
X104868Y97555D01*
X104860Y97567D01*
X104855Y97573D01*
X104850Y97579D01*
X104840Y97590D01*
X104830Y97602D01*
X104824Y97607D01*
X104818Y97612D01*
X104807Y97622D01*
X104795Y97632D01*
X104789Y97636D01*
X104783Y97641D01*
X104770Y97649D01*
X104757Y97658D01*
X104750Y97661D01*
X104744Y97665D01*
X104730Y97671D01*
X104716Y97678D01*
X104709Y97680D01*
X104701Y97683D01*
X104687Y97688D01*
X104672Y97693D01*
X104665Y97694D01*
X104657Y97696D01*
X104642Y97699D01*
X104627Y97702D01*
X104620Y97702D01*
X104612Y97703D01*
X104597Y97703D01*
X104582Y97704D01*
Y101422D01*
X104597Y101423D01*
X104612Y101423D01*
X104620Y101425D01*
X104627Y101425D01*
X104642Y101428D01*
X104657Y101430D01*
X104665Y101433D01*
X104672Y101434D01*
X104687Y101439D01*
X104701Y101443D01*
X104709Y101446D01*
X104716Y101449D01*
X104730Y101456D01*
X104744Y101462D01*
X104750Y101466D01*
X104757Y101469D01*
X104770Y101478D01*
X104783Y101486D01*
X104789Y101490D01*
X104795Y101495D01*
X104807Y101505D01*
X104818Y101514D01*
X104824Y101520D01*
X104830Y101525D01*
X104840Y101536D01*
X104850Y101547D01*
X104855Y101554D01*
X104860Y101559D01*
X104868Y101572D01*
X104877Y101584D01*
X104881Y101591D01*
X104885Y101597D01*
X104892Y101611D01*
X104900Y101625D01*
X104902Y101632D01*
X104906Y101639D01*
X104911Y101653D01*
X104916Y101667D01*
X104918Y101675D01*
X104920Y101682D01*
X104923Y101697D01*
X104927Y101712D01*
X104928Y101719D01*
X104929Y101727D01*
X104930Y101742D01*
X104932Y101758D01*
X104932Y101765D01*
X104932Y101773D01*
Y102028D01*
Y104697D01*
X110400D01*
X110400Y104697D01*
D02*
G37*
G36*
X101957Y93751D02*
X102008Y93742D01*
X102058Y93729D01*
X102106Y93711D01*
X102167Y93683D01*
X102167Y93683D01*
X102169Y93682D01*
X102189Y93672D01*
X102233Y93657D01*
X102233Y93657D01*
X102233D01*
X102244Y93655D01*
X102278Y93648D01*
X102323Y93645D01*
X103375D01*
X103377Y93636D01*
X103380Y93629D01*
X103383Y93622D01*
X103390Y93608D01*
X103396Y93594D01*
X103400Y93587D01*
X103403Y93580D01*
X103411Y93568D01*
X103419Y93555D01*
X103424Y93549D01*
X103428Y93542D01*
X103439Y93531D01*
X103448Y93519D01*
X103454Y93514D01*
X103459Y93508D01*
X103470Y93498D01*
X103481Y93487D01*
X103488Y93483D01*
X103493Y93477D01*
X103506Y93469D01*
X103518Y93460D01*
X103525Y93456D01*
X103531Y93452D01*
X103541Y93447D01*
X103520Y93370D01*
X103506Y93289D01*
X103499Y93207D01*
Y93125D01*
X103506Y93043D01*
X103520Y92962D01*
X103542Y92883D01*
X103570Y92805D01*
X103604Y92731D01*
X103646Y92660D01*
X103693Y92593D01*
X103745Y92530D01*
X103803Y92472D01*
X103866Y92419D01*
X103934Y92372D01*
X104005Y92331D01*
X104079Y92296D01*
X104156Y92268D01*
X104231Y92248D01*
Y91524D01*
X104156Y91505D01*
X104079Y91476D01*
X104005Y91442D01*
X103934Y91401D01*
X103866Y91353D01*
X103803Y91301D01*
X103745Y91243D01*
X103693Y91180D01*
X103646Y91113D01*
X103604Y91041D01*
X103570Y90967D01*
X103542Y90890D01*
X103520Y90810D01*
X103506Y90729D01*
X103499Y90648D01*
Y90566D01*
X103506Y90484D01*
X103520Y90403D01*
X103542Y90324D01*
X103570Y90246D01*
X103604Y90172D01*
X103646Y90101D01*
X103693Y90034D01*
X103745Y89971D01*
X103803Y89912D01*
X103866Y89860D01*
X103934Y89813D01*
X104005Y89772D01*
X104079Y89737D01*
X104156Y89709D01*
X104231Y89689D01*
Y88965D01*
X104156Y88946D01*
X104079Y88917D01*
X104005Y88883D01*
X103934Y88842D01*
X103866Y88794D01*
X103803Y88742D01*
X103745Y88684D01*
X103693Y88621D01*
X103646Y88553D01*
X103604Y88482D01*
X103570Y88408D01*
X103542Y88331D01*
X103520Y88251D01*
X103506Y88170D01*
X103501Y88111D01*
X102777D01*
X102769Y88111D01*
X102762Y88111D01*
X102746Y88109D01*
X102731Y88108D01*
X102724Y88107D01*
X102716Y88106D01*
X102701Y88102D01*
X102686Y88099D01*
X102679Y88097D01*
X102671Y88095D01*
X102657Y88090D01*
X102643Y88085D01*
X102636Y88081D01*
X102629Y88078D01*
X102615Y88071D01*
X102602Y88064D01*
X102595Y88060D01*
X102588Y88056D01*
X102576Y88047D01*
X102563Y88039D01*
X102558Y88034D01*
X102551Y88029D01*
X102540Y88019D01*
X102529Y88009D01*
X102524Y88003D01*
X102518Y87998D01*
X102509Y87986D01*
X102499Y87974D01*
X102494Y87968D01*
X102490Y87962D01*
X102482Y87949D01*
X102473Y87936D01*
X102470Y87929D01*
X102466Y87923D01*
X102460Y87909D01*
X102453Y87895D01*
X102450Y87888D01*
X102447Y87880D01*
X102426Y87822D01*
X102404Y87775D01*
X102378Y87730D01*
X102349Y87688D01*
X102316Y87649D01*
X102279Y87612D01*
X102240Y87579D01*
X102198Y87550D01*
X102153Y87524D01*
X102106Y87502D01*
X102058Y87485D01*
X102008Y87471D01*
X101957Y87462D01*
X101906Y87458D01*
X101855D01*
X101803Y87462D01*
X101753Y87471D01*
X101703Y87485D01*
X101655Y87502D01*
X101608Y87524D01*
X101563Y87550D01*
X101521Y87579D01*
X101482Y87612D01*
X101445Y87649D01*
X101412Y87688D01*
X101383Y87730D01*
X101357Y87775D01*
X101335Y87822D01*
X101317Y87870D01*
X101304Y87920D01*
X101295Y87971D01*
X101291Y88022D01*
Y88073D01*
X101295Y88125D01*
X101304Y88175D01*
X101317Y88225D01*
X101335Y88274D01*
X101357Y88320D01*
X101383Y88365D01*
X101412Y88407D01*
X101445Y88446D01*
X101483Y88485D01*
X101513Y88519D01*
X101539Y88557D01*
X101549Y88578D01*
X101559Y88598D01*
X101574Y88642D01*
X101583Y88687D01*
X101586Y88732D01*
Y89922D01*
X101583Y89968D01*
X101574Y90013D01*
X101559Y90056D01*
X101539Y90097D01*
X101513Y90135D01*
X101483Y90170D01*
X101483Y90170D01*
X101445Y90208D01*
X101412Y90247D01*
X101383Y90289D01*
X101357Y90334D01*
X101335Y90381D01*
X101317Y90429D01*
X101304Y90479D01*
X101295Y90530D01*
X101291Y90581D01*
Y90632D01*
X101295Y90684D01*
X101304Y90734D01*
X101317Y90784D01*
X101335Y90833D01*
X101357Y90879D01*
X101383Y90924D01*
X101412Y90966D01*
X101445Y91005D01*
X101482Y91042D01*
X101502Y91059D01*
X101513Y91069D01*
X101524Y91079D01*
X101529Y91085D01*
X101535Y91091D01*
X101544Y91103D01*
X101555Y91114D01*
X101559Y91120D01*
X101564Y91126D01*
X101572Y91140D01*
X101580Y91152D01*
X101583Y91159D01*
X101587Y91166D01*
X101594Y91180D01*
X101600Y91193D01*
X101603Y91201D01*
X101606Y91207D01*
X101610Y91222D01*
X101615Y91237D01*
X101617Y91244D01*
X101619Y91252D01*
X101621Y91267D01*
X101624Y91282D01*
X101625Y91289D01*
X101626Y91297D01*
X101626Y91312D01*
X101627Y91328D01*
X101627Y91335D01*
X101627Y91343D01*
X101625Y91358D01*
X101624Y91373D01*
X101622Y91381D01*
X101622Y91388D01*
X101618Y91403D01*
X101615Y91418D01*
X101613Y91426D01*
X101611Y91433D01*
X101605Y91447D01*
X101600Y91462D01*
X101597Y91469D01*
X101594Y91476D01*
X101587Y91489D01*
X101586Y91491D01*
Y92481D01*
X101583Y92527D01*
X101574Y92572D01*
X101559Y92615D01*
X101539Y92656D01*
X101513Y92694D01*
X101483Y92729D01*
X101483Y92729D01*
X101445Y92767D01*
X101412Y92806D01*
X101383Y92848D01*
X101357Y92893D01*
X101335Y92940D01*
X101317Y92988D01*
X101304Y93038D01*
X101295Y93089D01*
X101291Y93140D01*
Y93191D01*
X101295Y93243D01*
X101304Y93294D01*
X101317Y93343D01*
X101335Y93392D01*
X101357Y93438D01*
X101383Y93483D01*
X101412Y93525D01*
X101445Y93565D01*
X101483Y93603D01*
X101513Y93637D01*
X101527Y93657D01*
X101528Y93657D01*
X101528Y93657D01*
X101572Y93672D01*
X101591Y93682D01*
X101593Y93683D01*
X101594Y93683D01*
X101654Y93711D01*
X101703Y93729D01*
X101753Y93742D01*
X101803Y93751D01*
X101855Y93756D01*
X101906D01*
X101957Y93751D01*
D02*
G37*
G36*
X123785Y95978D02*
X123743Y95928D01*
X123696Y95860D01*
X123655Y95789D01*
X123620Y95715D01*
X123592Y95638D01*
X123571Y95559D01*
X123557Y95478D01*
X123550Y95396D01*
Y95314D01*
X123557Y95232D01*
X123571Y95151D01*
X123592Y95072D01*
X123620Y94994D01*
X123655Y94920D01*
X123696Y94849D01*
X123743Y94782D01*
X123785Y94731D01*
Y86642D01*
X127132Y83295D01*
Y80627D01*
X124660D01*
Y82469D01*
X121314Y85816D01*
Y111831D01*
X123785D01*
Y95978D01*
D02*
G37*
G36*
X101957Y83515D02*
X102008Y83506D01*
X102058Y83492D01*
X102106Y83475D01*
X102153Y83453D01*
X102198Y83427D01*
X102240Y83398D01*
X102279Y83365D01*
X102316Y83328D01*
X102349Y83289D01*
X102378Y83247D01*
X102404Y83202D01*
X102430Y83147D01*
X102437Y83134D01*
X102444Y83120D01*
X102448Y83113D01*
X102452Y83107D01*
X102461Y83095D01*
X102469Y83082D01*
X102474Y83076D01*
X102479Y83070D01*
X102490Y83059D01*
X102500Y83047D01*
X102506Y83042D01*
X102511Y83037D01*
X102523Y83027D01*
X102534Y83017D01*
X102541Y83013D01*
X102547Y83008D01*
X102560Y83000D01*
X102572Y82991D01*
X102579Y82988D01*
X102586Y82984D01*
X102600Y82978D01*
X102613Y82971D01*
X102621Y82969D01*
X102628Y82966D01*
X102643Y82961D01*
X102657Y82956D01*
X102664Y82955D01*
X102672Y82953D01*
X102687Y82950D01*
X102702Y82947D01*
X102709Y82947D01*
X102717Y82946D01*
X102733Y82946D01*
X102748Y82945D01*
X103356D01*
Y80972D01*
X103352Y80972D01*
X103338Y80968D01*
X103323Y80966D01*
X103315Y80963D01*
X103308Y80961D01*
X103294Y80956D01*
X103279Y80951D01*
X103272Y80947D01*
X103265Y80945D01*
X103252Y80937D01*
X103238Y80931D01*
X103232Y80926D01*
X103225Y80923D01*
X103213Y80914D01*
X103200Y80905D01*
X103194Y80900D01*
X103188Y80895D01*
X103177Y80885D01*
X103165Y80875D01*
X103160Y80869D01*
X103155Y80864D01*
X103145Y80852D01*
X103135Y80840D01*
X103131Y80834D01*
X103126Y80828D01*
X103118Y80815D01*
X103110Y80802D01*
X103106Y80795D01*
X103102Y80789D01*
X103096Y80775D01*
X103089Y80761D01*
X103087Y80754D01*
X103084Y80747D01*
X103079Y80732D01*
X103075Y80717D01*
X103073Y80710D01*
X103071Y80703D01*
X103069Y80687D01*
X103066Y80673D01*
X103065Y80665D01*
X103064Y80657D01*
X103060Y80615D01*
X103051Y80564D01*
X103038Y80514D01*
X103020Y80466D01*
X102999Y80419D01*
X102973Y80374D01*
X102943Y80332D01*
X102910Y80293D01*
X102874Y80256D01*
X102834Y80223D01*
X102792Y80194D01*
X102747Y80168D01*
X102701Y80146D01*
X102653Y80129D01*
X102603Y80115D01*
X102552Y80106D01*
X102501Y80102D01*
X102449D01*
X102398Y80106D01*
X102347Y80115D01*
X102297Y80129D01*
X102249Y80146D01*
X102202Y80168D01*
X102158Y80194D01*
X102115Y80223D01*
X102076Y80256D01*
X102040Y80293D01*
X102007Y80332D01*
X101977Y80374D01*
X101951Y80419D01*
X101929Y80466D01*
X101912Y80514D01*
X101899Y80564D01*
X101890Y80615D01*
X101886Y80657D01*
X101885Y80665D01*
X101884Y80673D01*
X101881Y80687D01*
X101879Y80703D01*
X101877Y80710D01*
X101875Y80717D01*
X101870Y80732D01*
X101866Y80747D01*
X101863Y80754D01*
X101860Y80761D01*
X101854Y80775D01*
X101848Y80789D01*
X101844Y80795D01*
X101840Y80802D01*
X101832Y80815D01*
X101824Y80828D01*
X101819Y80834D01*
X101815Y80840D01*
X101805Y80852D01*
X101795Y80864D01*
X101789Y80869D01*
X101785Y80875D01*
X101773Y80885D01*
X101762Y80895D01*
X101756Y80900D01*
X101750Y80905D01*
X101737Y80914D01*
X101725Y80923D01*
X101718Y80926D01*
X101712Y80931D01*
X101698Y80937D01*
X101685Y80945D01*
X101678Y80947D01*
X101671Y80951D01*
X101656Y80956D01*
X101642Y80961D01*
X101635Y80963D01*
X101627Y80966D01*
X101612Y80968D01*
X101597Y80972D01*
X101590Y80973D01*
X101586Y80974D01*
Y82245D01*
X101583Y82290D01*
X101574Y82335D01*
X101559Y82379D01*
X101539Y82420D01*
X101513Y82458D01*
X101483Y82493D01*
X101483Y82493D01*
X101445Y82531D01*
X101412Y82570D01*
X101383Y82612D01*
X101357Y82657D01*
X101335Y82704D01*
X101317Y82752D01*
X101304Y82802D01*
X101295Y82853D01*
X101291Y82904D01*
Y82955D01*
X101295Y83007D01*
X101304Y83057D01*
X101317Y83107D01*
X101335Y83155D01*
X101357Y83202D01*
X101383Y83247D01*
X101412Y83289D01*
X101445Y83328D01*
X101482Y83365D01*
X101521Y83398D01*
X101563Y83427D01*
X101608Y83453D01*
X101654Y83475D01*
X101703Y83492D01*
X101753Y83506D01*
X101803Y83515D01*
X101855Y83519D01*
X101906D01*
X101957Y83515D01*
D02*
G37*
G36*
X81600Y76800D02*
Y66300D01*
X81191Y65891D01*
X74208D01*
X74000Y66100D01*
Y72300D01*
X73812Y72488D01*
Y72658D01*
X73642D01*
X73200Y73100D01*
X68600D01*
X68158Y72658D01*
X67993D01*
Y72493D01*
X67800Y72300D01*
Y66300D01*
X67400Y65900D01*
X64400D01*
X64100Y66200D01*
Y76400D01*
X65800Y78100D01*
X78015D01*
X78113Y78060D01*
X78487D01*
X78585Y78100D01*
X80300D01*
X81600Y76800D01*
D02*
G37*
G36*
X103356Y77069D02*
X101586D01*
Y79378D01*
X103356D01*
Y77069D01*
D02*
G37*
G36*
X117093Y90429D02*
Y80627D01*
X115047D01*
X113746Y79326D01*
Y77060D01*
X111275D01*
X111275Y90429D01*
X117093Y90429D01*
D02*
G37*
G36*
X136717Y72357D02*
Y63616D01*
X136040Y62939D01*
X131938Y62858D01*
X131203Y63593D01*
Y72389D01*
X131527Y72713D01*
X136361D01*
X136717Y72357D01*
D02*
G37*
%LPC*%
G36*
X97014Y111831D02*
X94542D01*
Y109162D01*
X95340D01*
X95335Y109136D01*
X95328Y109055D01*
Y108973D01*
X95335Y108891D01*
X95350Y108810D01*
X95371Y108730D01*
X95399Y108653D01*
X95434Y108579D01*
X95475Y108508D01*
X95522Y108440D01*
X95575Y108378D01*
X95633Y108319D01*
X95696Y108267D01*
X95763Y108220D01*
X95834Y108178D01*
X95909Y108144D01*
X95986Y108116D01*
X96065Y108094D01*
X96146Y108080D01*
X96228Y108073D01*
X96310D01*
X96392Y108080D01*
X96473Y108094D01*
X96552Y108116D01*
X96629Y108144D01*
X96703Y108178D01*
X96775Y108220D01*
X96842Y108267D01*
X96905Y108319D01*
X96963Y108378D01*
X97016Y108440D01*
X97063Y108508D01*
X97104Y108579D01*
X97139Y108653D01*
X97167Y108730D01*
X97188Y108810D01*
X97202Y108891D01*
X97209Y108973D01*
Y109055D01*
X97202Y109136D01*
X97188Y109217D01*
X97167Y109297D01*
X97139Y109374D01*
X97104Y109448D01*
X97063Y109519D01*
X97016Y109587D01*
X97014Y109589D01*
Y111831D01*
D02*
G37*
G36*
X117093Y112181D02*
X114621D01*
X114575Y112178D01*
X114530Y112169D01*
X114487Y112155D01*
X114446Y112134D01*
X114408Y112109D01*
X114373Y112079D01*
X114343Y112044D01*
X114317Y112006D01*
X114297Y111965D01*
X114282Y111921D01*
X114273Y111876D01*
X114270Y111831D01*
Y106810D01*
X114241Y106796D01*
X114170Y106755D01*
X114103Y106708D01*
X114040Y106655D01*
X113982Y106597D01*
X113929Y106534D01*
X113882Y106467D01*
X113841Y106396D01*
X113806Y106321D01*
X113778Y106244D01*
X113757Y106165D01*
X113742Y106084D01*
X113735Y106002D01*
Y105920D01*
X113742Y105838D01*
X113757Y105757D01*
X113778Y105678D01*
X113806Y105601D01*
X113841Y105526D01*
X113882Y105455D01*
X113929Y105388D01*
X113982Y105325D01*
X114040Y105267D01*
X114103Y105214D01*
X114170Y105167D01*
X114241Y105126D01*
X114270Y105112D01*
Y104251D01*
X114241Y104237D01*
X114170Y104196D01*
X114103Y104149D01*
X114040Y104096D01*
X113982Y104038D01*
X113929Y103975D01*
X113882Y103908D01*
X113841Y103837D01*
X113806Y103762D01*
X113778Y103685D01*
X113757Y103606D01*
X113742Y103525D01*
X113735Y103443D01*
Y103361D01*
X113742Y103279D01*
X113757Y103198D01*
X113778Y103119D01*
X113806Y103042D01*
X113841Y102967D01*
X113882Y102896D01*
X113929Y102829D01*
X113982Y102766D01*
X114040Y102708D01*
X114103Y102655D01*
X114170Y102608D01*
X114241Y102567D01*
X114270Y102553D01*
Y102028D01*
X114273Y101982D01*
X114282Y101937D01*
X114297Y101894D01*
X114317Y101853D01*
X114343Y101815D01*
X114373Y101780D01*
X114408Y101750D01*
X114446Y101725D01*
X114487Y101704D01*
X114530Y101690D01*
X114575Y101681D01*
X114621Y101678D01*
X117093D01*
X117138Y101681D01*
X117183Y101690D01*
X117227Y101704D01*
X117268Y101725D01*
X117306Y101750D01*
X117341Y101780D01*
X117371Y101815D01*
X117396Y101853D01*
X117417Y101894D01*
X117431Y101937D01*
X117440Y101982D01*
X117443Y102028D01*
Y102484D01*
X117518Y102504D01*
X117595Y102532D01*
X117669Y102567D01*
X117741Y102608D01*
X117808Y102655D01*
X117871Y102708D01*
X117929Y102766D01*
X117982Y102829D01*
X118029Y102896D01*
X118070Y102967D01*
X118105Y103042D01*
X118133Y103119D01*
X118154Y103198D01*
X118168Y103279D01*
X118175Y103361D01*
Y103443D01*
X118168Y103525D01*
X118154Y103606D01*
X118133Y103685D01*
X118105Y103762D01*
X118070Y103837D01*
X118029Y103908D01*
X117982Y103975D01*
X117929Y104038D01*
X117871Y104096D01*
X117808Y104149D01*
X117741Y104196D01*
X117669Y104237D01*
X117595Y104272D01*
X117518Y104300D01*
X117443Y104320D01*
Y105043D01*
X117518Y105063D01*
X117595Y105091D01*
X117669Y105126D01*
X117741Y105167D01*
X117808Y105214D01*
X117871Y105267D01*
X117929Y105325D01*
X117982Y105388D01*
X118029Y105455D01*
X118070Y105526D01*
X118105Y105601D01*
X118133Y105678D01*
X118154Y105757D01*
X118168Y105838D01*
X118175Y105920D01*
Y106002D01*
X118168Y106084D01*
X118154Y106165D01*
X118133Y106244D01*
X118105Y106321D01*
X118070Y106396D01*
X118029Y106467D01*
X117982Y106534D01*
X117929Y106597D01*
X117871Y106655D01*
X117808Y106708D01*
X117741Y106755D01*
X117669Y106796D01*
X117595Y106831D01*
X117518Y106859D01*
X117443Y106879D01*
Y111831D01*
X117440Y111876D01*
X117431Y111921D01*
X117417Y111965D01*
X117396Y112006D01*
X117371Y112044D01*
X117341Y112079D01*
X117306Y112109D01*
X117268Y112134D01*
X117227Y112155D01*
X117183Y112169D01*
X117138Y112178D01*
X117093Y112181D01*
D02*
G37*
G36*
Y101481D02*
X114621D01*
X114575Y101478D01*
X114530Y101469D01*
X114487Y101454D01*
X114446Y101434D01*
X114408Y101408D01*
X114373Y101378D01*
X114343Y101343D01*
X114317Y101305D01*
X114297Y101264D01*
X114282Y101221D01*
X114273Y101176D01*
X114270Y101130D01*
Y99133D01*
X114241Y99119D01*
X114170Y99078D01*
X114103Y99031D01*
X114040Y98978D01*
X113982Y98920D01*
X113929Y98857D01*
X113882Y98790D01*
X113841Y98719D01*
X113806Y98644D01*
X113778Y98567D01*
X113757Y98488D01*
X113742Y98407D01*
X113735Y98325D01*
Y98243D01*
X113742Y98161D01*
X113757Y98080D01*
X113778Y98001D01*
X113806Y97924D01*
X113841Y97849D01*
X113882Y97778D01*
X113929Y97711D01*
X113982Y97648D01*
X114040Y97590D01*
X114103Y97537D01*
X114170Y97490D01*
X114241Y97449D01*
X114270Y97435D01*
Y96574D01*
X114241Y96560D01*
X114170Y96519D01*
X114103Y96472D01*
X114040Y96419D01*
X113982Y96361D01*
X113929Y96298D01*
X113882Y96231D01*
X113841Y96159D01*
X113806Y96085D01*
X113778Y96008D01*
X113757Y95929D01*
X113742Y95848D01*
X113735Y95766D01*
Y95684D01*
X113742Y95602D01*
X113757Y95521D01*
X113778Y95442D01*
X113806Y95364D01*
X113841Y95290D01*
X113882Y95219D01*
X113929Y95152D01*
X113982Y95089D01*
X114040Y95031D01*
X114103Y94978D01*
X114170Y94931D01*
X114241Y94890D01*
X114271Y94876D01*
X114273Y94849D01*
X114282Y94804D01*
X114297Y94760D01*
X114317Y94719D01*
X114343Y94681D01*
X114373Y94646D01*
X114408Y94616D01*
X114446Y94591D01*
X114487Y94570D01*
X114530Y94556D01*
X114575Y94547D01*
X114621Y94544D01*
X117093D01*
X117138Y94547D01*
X117183Y94556D01*
X117227Y94570D01*
X117268Y94591D01*
X117306Y94616D01*
X117341Y94646D01*
X117371Y94681D01*
X117396Y94719D01*
X117417Y94760D01*
X117431Y94804D01*
X117432Y94804D01*
X117438Y94806D01*
X117518Y94827D01*
X117595Y94855D01*
X117669Y94890D01*
X117741Y94931D01*
X117808Y94978D01*
X117871Y95031D01*
X117929Y95089D01*
X117982Y95152D01*
X118029Y95219D01*
X118070Y95290D01*
X118105Y95364D01*
X118133Y95442D01*
X118154Y95521D01*
X118168Y95602D01*
X118175Y95684D01*
Y95766D01*
X118168Y95848D01*
X118154Y95929D01*
X118133Y96008D01*
X118105Y96085D01*
X118070Y96159D01*
X118029Y96231D01*
X117982Y96298D01*
X117929Y96361D01*
X117871Y96419D01*
X117808Y96472D01*
X117741Y96519D01*
X117669Y96560D01*
X117595Y96595D01*
X117518Y96623D01*
X117443Y96643D01*
Y97366D01*
X117518Y97386D01*
X117595Y97414D01*
X117669Y97449D01*
X117741Y97490D01*
X117808Y97537D01*
X117871Y97590D01*
X117929Y97648D01*
X117982Y97711D01*
X118029Y97778D01*
X118070Y97849D01*
X118105Y97924D01*
X118133Y98001D01*
X118154Y98080D01*
X118168Y98161D01*
X118175Y98243D01*
Y98325D01*
X118168Y98407D01*
X118154Y98488D01*
X118133Y98567D01*
X118105Y98644D01*
X118070Y98719D01*
X118029Y98790D01*
X117982Y98857D01*
X117929Y98920D01*
X117871Y98978D01*
X117808Y99031D01*
X117741Y99078D01*
X117669Y99119D01*
X117595Y99154D01*
X117518Y99182D01*
X117443Y99202D01*
Y101130D01*
X117440Y101176D01*
X117431Y101221D01*
X117417Y101264D01*
X117396Y101305D01*
X117371Y101343D01*
X117341Y101378D01*
X117306Y101408D01*
X117268Y101434D01*
X117227Y101454D01*
X117183Y101469D01*
X117138Y101478D01*
X117093Y101481D01*
D02*
G37*
G36*
X119835Y94106D02*
X119753D01*
X119671Y94099D01*
X119590Y94085D01*
X119511Y94064D01*
X119433Y94036D01*
X119359Y94001D01*
X119351Y93996D01*
X117967D01*
Y91328D01*
X120439D01*
Y92481D01*
X120488Y92530D01*
X120541Y92593D01*
X120588Y92660D01*
X120629Y92731D01*
X120664Y92805D01*
X120692Y92883D01*
X120713Y92962D01*
X120727Y93043D01*
X120734Y93125D01*
Y93207D01*
X120727Y93289D01*
X120713Y93370D01*
X120692Y93449D01*
X120664Y93526D01*
X120629Y93600D01*
X120588Y93672D01*
X120541Y93739D01*
X120488Y93802D01*
X120439Y93850D01*
Y93996D01*
X120237D01*
X120229Y94001D01*
X120154Y94036D01*
X120077Y94064D01*
X119998Y94085D01*
X119917Y94099D01*
X119835Y94106D01*
D02*
G37*
%LPD*%
G36*
X117093Y102028D02*
X114621D01*
Y111831D01*
X117093D01*
Y102028D01*
D02*
G37*
G36*
Y94894D02*
X114621D01*
Y101130D01*
X117093D01*
Y94894D01*
D02*
G37*
%LPC*%
G36*
X103707Y104697D02*
X101235D01*
Y104346D01*
Y104098D01*
X101234Y104087D01*
X101227Y104079D01*
X101197Y104049D01*
X101197Y104049D01*
X101186Y104038D01*
X101177Y104026D01*
D01*
X101143Y103987D01*
X101143Y103987D01*
X101134Y103975D01*
X101125Y103963D01*
X101125Y103963D01*
X101119Y103954D01*
X101086Y103908D01*
X101079Y103894D01*
X101079Y103894D01*
X101071Y103882D01*
X101045Y103837D01*
X101039Y103823D01*
X101039Y103823D01*
X101017Y103776D01*
X101017Y103776D01*
X101011Y103762D01*
X101005Y103748D01*
X101005Y103748D01*
X100988Y103700D01*
X100988Y103700D01*
X100983Y103685D01*
X100961Y103606D01*
X100947Y103525D01*
X100946Y103509D01*
Y103509D01*
X100943Y103478D01*
X100940Y103443D01*
Y103428D01*
Y103376D01*
Y103361D01*
X100944Y103315D01*
X100946Y103294D01*
Y103294D01*
X100947Y103279D01*
X100961Y103198D01*
X100983Y103119D01*
X100988Y103104D01*
X100988Y103104D01*
X101005Y103056D01*
X101005Y103056D01*
X101011Y103042D01*
X101017Y103028D01*
X101017Y103028D01*
X101039Y102981D01*
X101039Y102981D01*
X101045Y102967D01*
X101053Y102954D01*
X101053Y102954D01*
X101067Y102930D01*
X101086Y102896D01*
X101121Y102847D01*
X101125Y102841D01*
D01*
X101134Y102829D01*
X101143Y102817D01*
X101143Y102817D01*
X101177Y102778D01*
X101177Y102778D01*
X101186Y102766D01*
X101197Y102755D01*
X101197Y102755D01*
X101227Y102725D01*
X101234Y102717D01*
X101235Y102706D01*
Y102379D01*
Y102028D01*
X103707D01*
Y104697D01*
D02*
G37*
G36*
Y86862D02*
X101235D01*
Y86511D01*
Y86185D01*
X101234Y86174D01*
X101227Y86165D01*
X101197Y86136D01*
X101197Y86135D01*
X101186Y86125D01*
X101177Y86113D01*
D01*
X101143Y86073D01*
X101143Y86073D01*
X101134Y86062D01*
X101125Y86049D01*
X101125Y86049D01*
X101119Y86041D01*
X101086Y85994D01*
X101079Y85981D01*
X101079Y85981D01*
X101071Y85968D01*
X101045Y85923D01*
X101039Y85909D01*
X101039Y85909D01*
X101017Y85863D01*
X101017Y85863D01*
X101011Y85849D01*
X101005Y85834D01*
X101005Y85834D01*
X100988Y85786D01*
X100988Y85786D01*
X100983Y85772D01*
X100961Y85692D01*
X100947Y85611D01*
X100946Y85596D01*
Y85596D01*
X100943Y85565D01*
X100940Y85530D01*
Y85514D01*
Y85463D01*
Y85448D01*
X100944Y85402D01*
X100946Y85381D01*
Y85381D01*
X100947Y85366D01*
X100961Y85285D01*
X100983Y85205D01*
X100988Y85191D01*
X100988Y85191D01*
X101005Y85143D01*
X101005Y85143D01*
X101011Y85128D01*
X101017Y85114D01*
X101017Y85114D01*
X101039Y85068D01*
X101039Y85068D01*
X101045Y85054D01*
X101053Y85041D01*
X101053Y85040D01*
X101067Y85017D01*
X101086Y84983D01*
X101121Y84934D01*
X101125Y84928D01*
D01*
X101134Y84915D01*
X101143Y84904D01*
X101143Y84904D01*
X101177Y84864D01*
X101177Y84864D01*
X101186Y84852D01*
X101197Y84842D01*
X101197Y84842D01*
X101227Y84812D01*
X101234Y84803D01*
X101235Y84792D01*
Y84544D01*
Y84194D01*
X103707D01*
Y86862D01*
D02*
G37*
G36*
X99362Y83870D02*
X99280D01*
X99199Y83863D01*
X99118Y83849D01*
X99038Y83827D01*
X98961Y83799D01*
X98887Y83765D01*
X98816Y83723D01*
X98748Y83676D01*
X98685Y83624D01*
X98627Y83565D01*
X98575Y83503D01*
X98527Y83435D01*
X98486Y83364D01*
X98452Y83290D01*
X98423Y83213D01*
X98402Y83133D01*
X98388Y83052D01*
X98381Y82971D01*
Y82888D01*
X98388Y82807D01*
X98402Y82726D01*
X98423Y82646D01*
X98452Y82569D01*
X98486Y82495D01*
X98527Y82424D01*
X98575Y82356D01*
X98627Y82293D01*
X98685Y82235D01*
X98748Y82183D01*
X98816Y82135D01*
X98887Y82094D01*
X98961Y82060D01*
X99038Y82032D01*
X99118Y82010D01*
X99199Y81996D01*
X99280Y81989D01*
X99362D01*
X99444Y81996D01*
X99525Y82010D01*
X99604Y82032D01*
X99682Y82060D01*
X99756Y82094D01*
X99827Y82135D01*
X99894Y82183D01*
X99957Y82235D01*
X100015Y82293D01*
X100068Y82356D01*
X100115Y82424D01*
X100156Y82495D01*
X100191Y82569D01*
X100219Y82646D01*
X100241Y82726D01*
X100255Y82807D01*
X100262Y82888D01*
Y82971D01*
X100255Y83052D01*
X100241Y83133D01*
X100219Y83213D01*
X100191Y83290D01*
X100156Y83364D01*
X100115Y83435D01*
X100068Y83503D01*
X100015Y83565D01*
X99957Y83624D01*
X99894Y83676D01*
X99827Y83723D01*
X99756Y83765D01*
X99682Y83799D01*
X99604Y83827D01*
X99525Y83849D01*
X99444Y83863D01*
X99362Y83870D01*
D02*
G37*
%LPD*%
G36*
X103356Y102379D02*
X101586D01*
Y102717D01*
X101583Y102763D01*
X101574Y102808D01*
X101559Y102851D01*
X101539Y102892D01*
X101513Y102931D01*
X101483Y102965D01*
X101483Y102965D01*
X101445Y103003D01*
X101412Y103042D01*
X101383Y103085D01*
X101357Y103129D01*
X101335Y103176D01*
X101317Y103224D01*
X101304Y103274D01*
X101295Y103325D01*
X101291Y103376D01*
Y103428D01*
X101295Y103479D01*
X101304Y103530D01*
X101317Y103579D01*
X101335Y103628D01*
X101357Y103674D01*
X101383Y103719D01*
X101412Y103761D01*
X101445Y103801D01*
X101483Y103839D01*
X101513Y103873D01*
X101539Y103911D01*
X101559Y103953D01*
X101574Y103996D01*
X101583Y104041D01*
X101586Y104087D01*
Y104346D01*
X103356D01*
Y102379D01*
D02*
G37*
G36*
Y84544D02*
X101586D01*
Y84804D01*
X101583Y84850D01*
X101574Y84894D01*
X101559Y84938D01*
X101539Y84979D01*
X101513Y85017D01*
X101483Y85052D01*
X101483Y85052D01*
X101445Y85090D01*
X101412Y85129D01*
X101383Y85171D01*
X101357Y85216D01*
X101335Y85263D01*
X101317Y85311D01*
X101304Y85361D01*
X101295Y85412D01*
X101291Y85463D01*
Y85514D01*
X101295Y85566D01*
X101304Y85616D01*
X101317Y85666D01*
X101335Y85715D01*
X101357Y85761D01*
X101383Y85806D01*
X101412Y85848D01*
X101445Y85887D01*
X101483Y85925D01*
X101513Y85960D01*
X101539Y85998D01*
X101559Y86039D01*
X101574Y86083D01*
X101583Y86128D01*
X101586Y86173D01*
Y86511D01*
X103356D01*
Y84544D01*
D02*
G37*
D15*
X64013Y39533D02*
X65981D01*
X137821Y133730D02*
X142384Y129167D01*
Y121666D02*
Y129167D01*
X142022Y114336D02*
X142384Y114699D01*
X132905Y45595D02*
X132910Y45590D01*
X132900Y45600D02*
X132905Y45595D01*
X132910Y39533D02*
Y45590D01*
X136847Y39533D02*
X136854Y39539D01*
Y45618D01*
X134879Y39533D02*
X134887Y39541D01*
Y45557D01*
X119131Y42831D02*
X119600Y43300D01*
X119131Y39533D02*
Y42831D01*
X112638Y43326D02*
X113225Y42738D01*
Y39533D02*
Y42738D01*
X63500Y42800D02*
X64060Y42240D01*
X133500Y143900D02*
X133600Y143800D01*
X133500Y143900D02*
Y145500D01*
X132474Y142674D02*
X133600Y143800D01*
X127300Y142674D02*
X132474D01*
X125600Y127900D02*
Y130300D01*
Y133100D01*
Y121973D02*
X128427Y124800D01*
X123600Y119973D02*
X125600Y121973D01*
Y127900D01*
Y133100D02*
X127300Y134800D01*
X121507Y163739D02*
X123163Y165395D01*
X121507Y155057D02*
Y163739D01*
Y151710D02*
X123036Y150181D01*
X123116Y120359D02*
Y120865D01*
X123036Y120945D02*
X123116Y120865D01*
X123502Y119973D02*
X123600D01*
X123116Y120359D02*
X123502Y119973D01*
X123036Y120945D02*
Y150181D01*
X125880Y81961D02*
X125896D01*
X122353Y85488D02*
X125880Y81961D01*
X75280Y125635D02*
Y127864D01*
X77515D01*
X75280D02*
Y129916D01*
X109164Y92563D02*
Y92662D01*
X112125Y89481D02*
Y89603D01*
X102471Y106930D02*
X102471Y106930D01*
X102471Y106930D02*
Y110496D01*
X141755Y99437D02*
X141771Y99421D01*
X141755Y99437D02*
Y102260D01*
X141665Y102350D02*
X141755Y102260D01*
X138936Y102350D02*
X141665D01*
X136478Y106201D02*
X137017Y105662D01*
X126994Y119959D02*
X127380Y120345D01*
X128597D01*
X128730Y120478D01*
X128779D01*
X136478Y106201D02*
Y109796D01*
X128427Y124800D02*
X136327D01*
D23*
X121507Y155057D02*
D03*
Y151710D02*
D03*
X95600Y153574D02*
D03*
X95600Y156920D02*
D03*
X92000Y156920D02*
D03*
X92000Y153574D02*
D03*
X109100Y153574D02*
D03*
X109100Y156920D02*
D03*
X105500Y156920D02*
D03*
X105500Y153574D02*
D03*
X102125Y156920D02*
D03*
Y153574D02*
D03*
X98925D02*
D03*
Y156920D02*
D03*
X99179Y75759D02*
D03*
X99179Y79105D02*
D03*
X95615Y75759D02*
D03*
X95615Y79105D02*
D03*
X92036Y75751D02*
D03*
X92036Y79098D02*
D03*
X75280Y129916D02*
D03*
X75280Y133262D02*
D03*
X75281Y122287D02*
D03*
X75281Y125633D02*
D03*
X78681Y122287D02*
D03*
Y125633D02*
D03*
X78680Y133262D02*
D03*
Y129916D02*
D03*
X141771Y96074D02*
D03*
X141771Y99421D02*
D03*
X141755Y105606D02*
D03*
Y102260D02*
D03*
X126994Y116613D02*
D03*
X126994Y119959D02*
D03*
X123600Y119973D02*
D03*
Y116627D02*
D03*
D24*
X139687Y127955D02*
D03*
X136340D02*
D03*
X128973Y126900D02*
D03*
X125627Y126900D02*
D03*
X125896Y92662D02*
D03*
X122550Y92662D02*
D03*
X125896Y96229D02*
D03*
X122550Y96229D02*
D03*
X122550Y99796D02*
D03*
X125896Y99796D02*
D03*
Y103363D02*
D03*
X122550Y103363D02*
D03*
X119203Y96229D02*
D03*
X115857Y96229D02*
D03*
Y99796D02*
D03*
X119203Y99796D02*
D03*
X119203Y103363D02*
D03*
X115857Y103363D02*
D03*
X109164Y92662D02*
D03*
X112510Y92662D02*
D03*
X115857Y92662D02*
D03*
X119203Y92662D02*
D03*
X109164Y96229D02*
D03*
X112510Y96229D02*
D03*
X122550Y106930D02*
D03*
X125896Y106930D02*
D03*
X115857Y106930D02*
D03*
X119203Y106930D02*
D03*
X122550Y110496D02*
D03*
X125896Y110496D02*
D03*
X119203D02*
D03*
X115857Y110496D02*
D03*
X95778Y106930D02*
D03*
X99124Y106930D02*
D03*
Y103363D02*
D03*
X95778Y103363D02*
D03*
X105817Y103363D02*
D03*
X102471Y103363D02*
D03*
X102471Y106930D02*
D03*
X105817Y106930D02*
D03*
X102471Y96229D02*
D03*
X105817Y96229D02*
D03*
Y92662D02*
D03*
X102471Y92662D02*
D03*
X105817Y99796D02*
D03*
X102471Y99796D02*
D03*
X109164Y99796D02*
D03*
X112510Y99796D02*
D03*
X99124Y110496D02*
D03*
X95778D02*
D03*
X105817Y110496D02*
D03*
X102471Y110496D02*
D03*
X109164Y103363D02*
D03*
X112510Y103363D02*
D03*
Y110496D02*
D03*
X109164Y110496D02*
D03*
X99124Y99796D02*
D03*
X95778Y99796D02*
D03*
X109164Y106930D02*
D03*
X112510Y106930D02*
D03*
X99124Y92662D02*
D03*
X95778Y92662D02*
D03*
Y96229D02*
D03*
X99124Y96229D02*
D03*
X109164Y85528D02*
D03*
X112510Y85528D02*
D03*
Y81961D02*
D03*
X109164Y81961D02*
D03*
X95778Y85528D02*
D03*
X99124Y85528D02*
D03*
X102471Y85528D02*
D03*
X105817Y85528D02*
D03*
X102471Y81961D02*
D03*
X105817Y81961D02*
D03*
X112510Y78394D02*
D03*
X109164Y78394D02*
D03*
X102471Y78394D02*
D03*
X105817Y78394D02*
D03*
X119203Y89095D02*
D03*
X115857Y89095D02*
D03*
X112510Y89095D02*
D03*
X109164Y89095D02*
D03*
X102471Y89095D02*
D03*
X105817Y89095D02*
D03*
X115857Y85528D02*
D03*
X119203Y85528D02*
D03*
X122550Y89095D02*
D03*
X125896D02*
D03*
X95778Y89095D02*
D03*
X99124Y89095D02*
D03*
X122550Y81961D02*
D03*
X125896D02*
D03*
X119203Y81961D02*
D03*
X115857Y81961D02*
D03*
Y78394D02*
D03*
X119203D02*
D03*
X122550D02*
D03*
X125896D02*
D03*
X136327Y124800D02*
D03*
X139673D02*
D03*
D28*
X94864Y127041D02*
D03*
Y124876D02*
D03*
X97865D02*
D03*
Y127041D02*
D03*
X112406D02*
D03*
Y124876D02*
D03*
X115406D02*
D03*
Y127041D02*
D03*
D29*
X95129Y131864D02*
D03*
X92964D02*
D03*
X97664D02*
D03*
X99829D02*
D03*
X112647D02*
D03*
X110482D02*
D03*
X115182D02*
D03*
X117347D02*
D03*
D60*
X93156Y141361D02*
G03*
X94772Y137458I5520J0D01*
G01*
X93361Y141856D02*
G03*
X93503Y142200I-344J344D01*
G01*
X93361Y141856D02*
G03*
X93156Y141361I495J-495D01*
G01*
X92320D02*
G03*
X92115Y141856I-700J0D01*
G01*
X91972Y142200D02*
G03*
X92115Y141856I487J0D01*
G01*
X109108D02*
G03*
X109251Y142200I-344J344D01*
G01*
X107720D02*
G03*
X107863Y141856I487J0D01*
G01*
X109108D02*
G03*
X108904Y141361I495J-495D01*
G01*
X108068D02*
G03*
X107863Y141856I-700J0D01*
G01*
X108904Y141361D02*
G03*
X109964Y138800I3621J0D01*
G01*
X108068Y141361D02*
G03*
X109373Y138209I4457J0D01*
G01*
X105351Y42001D02*
G03*
X104785Y43368I-1933J0D01*
G01*
X105131Y46000D02*
G03*
X104785Y45165I835J-835D01*
G01*
X103949Y43368D02*
G03*
X103383Y42001I1367J-1367D01*
G01*
X103949Y45157D02*
G03*
X103600Y46000I-1192J0D01*
G01*
X93331D02*
G03*
X92975Y45139I861J-861D01*
G01*
X93541Y42001D02*
G03*
X92975Y43368I-1933J0D01*
G01*
X92138D02*
G03*
X91572Y42001I1367J-1367D01*
G01*
X92138Y45183D02*
G03*
X91800Y46000I-1156J0D01*
G01*
X81531D02*
G03*
X81163Y45112I889J-889D01*
G01*
X81729Y42001D02*
G03*
X81163Y43368I-1933J0D01*
G01*
X80327D02*
G03*
X79761Y42001I1367J-1367D01*
G01*
X80327Y45210D02*
G03*
X80000Y46000I-1117J0D01*
G01*
X69918Y42001D02*
G03*
X69352Y43368I-1933J0D01*
G01*
X68516D02*
G03*
X67950Y42001I1367J-1367D01*
G01*
X117162D02*
G03*
X116596Y43368I-1933J0D01*
G01*
X115760D02*
G03*
X115194Y42001I1367J-1367D01*
G01*
X95000Y124741D02*
G03*
X95200Y124658I200J200D01*
G01*
X95464Y127413D02*
G03*
X95077Y127252I0J-548D01*
G01*
X95511Y127413D02*
G03*
X95819Y127541I0J436D01*
G01*
X95609Y118548D02*
G03*
X95947Y119362I-814J814D01*
G01*
X95819Y127541D02*
G03*
X95947Y127849I-308J308D01*
G01*
X96783D02*
G03*
X96910Y127541I436J0D01*
G01*
X96783Y119412D02*
G03*
X97140Y118548I1222J0D01*
G01*
X96910Y127541D02*
G03*
X97219Y127413I308J308D01*
G01*
X95268Y132199D02*
G03*
X95129Y131864I337J-335D01*
G01*
D02*
G03*
X95268Y131528I475J0D01*
G01*
X95268Y132200D02*
G03*
X95268Y132199I336J-336D01*
G01*
X95423Y131373D02*
G03*
X95612Y131294I189J189D01*
G01*
Y132433D02*
G03*
X95423Y132355I0J-268D01*
G01*
X95802Y131216D02*
G03*
X95612Y131294I-189J-189D01*
G01*
Y132433D02*
G03*
X95802Y132512I0J268D01*
G01*
X95979Y130858D02*
G03*
X95851Y131167I-436J0D01*
G01*
X96942D02*
G03*
X96815Y130858I308J-308D01*
G01*
X96992Y132512D02*
G03*
X97181Y132433I189J189D01*
G01*
Y131294D02*
G03*
X96992Y131216I0J-268D01*
G01*
X97181Y131294D02*
G03*
X97370Y131373I0J268D01*
G01*
Y132355D02*
G03*
X97181Y132433I-189J-189D01*
G01*
X92320Y141316D02*
G03*
X94149Y136899I6247J0D01*
G01*
X95979Y133879D02*
G03*
X95137Y135911I-2873J0D01*
G01*
X95851Y132561D02*
G03*
X95979Y132869I-308J308D01*
G01*
X96815Y134052D02*
G03*
X95851Y136379I-3291J0D01*
G01*
X96815Y132869D02*
G03*
X96942Y132561I436J0D01*
G01*
X110408Y119328D02*
G03*
X109369Y118897I0J-1471D01*
G01*
X108779Y119490D02*
G03*
X108777Y119488I1629J-1633D01*
G01*
X110755Y119328D02*
G03*
X112384Y120002I0J2307D01*
G01*
X110408Y120164D02*
G03*
X108779Y119490I0J-2307D01*
G01*
X112384Y120002D02*
G03*
X112386Y120004I-1629J1633D01*
G01*
X110408Y120164D02*
G03*
X112039Y120839I0J2307D01*
G01*
D02*
G03*
X112040Y120840I-1630J1632D01*
G01*
X97653Y127252D02*
G03*
X97265Y127413I-387J-387D01*
G01*
X97526Y132199D02*
G03*
X97525Y132200I-337J-335D01*
G01*
Y131528D02*
G03*
X97526Y131528I-336J336D01*
G01*
X97664Y131864D02*
G03*
X97526Y132199I-475J0D01*
G01*
Y131528D02*
G03*
X97664Y131864I-337J335D01*
G01*
X97529Y124658D02*
G03*
X97729Y124741I0J283D01*
G01*
X113262Y120880D02*
G03*
X114324Y123444I-2564J2564D01*
G01*
X112564Y121364D02*
G03*
X113488Y123596I-2233J2232D01*
G01*
X112514Y124768D02*
G03*
X112781Y124658I267J267D01*
G01*
X115032D02*
G03*
X115299Y124768I0J378D01*
G01*
X113052Y127413D02*
G03*
X112586Y127220I0J-660D01*
G01*
X115227D02*
G03*
X114760Y127413I-466J-467D01*
G01*
X113052D02*
G03*
X113361Y127541I0J436D01*
G01*
X114452D02*
G03*
X114760Y127413I308J308D01*
G01*
X113361Y127541D02*
G03*
X113488Y127849I-308J308D01*
G01*
X114324D02*
G03*
X114452Y127541I436J0D01*
G01*
X113496Y130789D02*
G03*
X113320Y131216I-604J0D01*
G01*
X114509D02*
G03*
X114332Y130789I427J-427D01*
G01*
X113320Y131216D02*
G03*
X113130Y131294I-189J-189D01*
G01*
X114699D02*
G03*
X114509Y131216I0J-268D01*
G01*
X112941Y131373D02*
G03*
X113130Y131294I189J189D01*
G01*
X114699D02*
G03*
X114888Y131373I0J268D01*
G01*
X115043Y131528D02*
G03*
X115044Y131528I-336J336D01*
G01*
X112785D02*
G03*
X112786Y131528I337J335D01*
G01*
X112647Y131864D02*
G03*
X112785Y131528I475J0D01*
G01*
X115044D02*
G03*
X115182Y131864I-337J335D01*
G01*
X112785Y132199D02*
G03*
X112647Y131864I337J-335D01*
G01*
X115182D02*
G03*
X115044Y132199I-475J0D01*
G01*
X112786Y132200D02*
G03*
X112785Y132199I336J-336D01*
G01*
X115044D02*
G03*
X115043Y132200I-337J-335D01*
G01*
X114888Y132355D02*
G03*
X114699Y132433I-189J-189D01*
G01*
X113130D02*
G03*
X112941Y132355I0J-268D01*
G01*
X113130Y132433D02*
G03*
X113320Y132512I0J268D01*
G01*
X114509D02*
G03*
X114699Y132433I189J189D01*
G01*
X113369Y132561D02*
G03*
X113496Y132869I-308J308D01*
G01*
X114332D02*
G03*
X114460Y132561I436J0D01*
G01*
X113496Y133387D02*
G03*
X113003Y134580I-1687J0D01*
G01*
X114332Y133560D02*
G03*
X113716Y135048I-2104J0D01*
G01*
X87069Y46271D02*
G03*
X85017Y51227I-7009J0D01*
G01*
X87635Y42000D02*
G03*
X87069Y43368I-1934J0D01*
G01*
X80621Y58755D02*
G03*
X80274Y57916I839J-839D01*
G01*
Y56943D02*
G03*
X80962Y55282I2349J0D01*
G01*
X86233Y45926D02*
G03*
X84181Y50881I-7006J0D01*
G01*
X86233Y43368D02*
G03*
X85666Y42001I1367J-1367D01*
G01*
X79438Y56943D02*
G03*
X80370Y54692I3185J0D01*
G01*
X79438Y57916D02*
G03*
X79090Y58755I-1187J0D01*
G01*
X85017Y51227D02*
G03*
X85016Y51228I-4958J-4955D01*
G01*
X80370Y54692D02*
G03*
X80371Y54690I2254J2251D01*
G01*
X111257Y42001D02*
G03*
X110691Y43368I-1933J0D01*
G01*
X107984Y56605D02*
G03*
X109008Y54129I3504J0D01*
G01*
X109316Y53821D02*
G03*
X109314Y53823I-3326J-3321D01*
G01*
X110691Y50500D02*
G03*
X109316Y53821I-4700J0D01*
G01*
X107148Y56259D02*
G03*
X108172Y53783I3504J0D01*
G01*
X109854Y43368D02*
G03*
X109288Y42001I1367J-1367D01*
G01*
X109854Y50154D02*
G03*
X108478Y53477I-4700J0D01*
G01*
X109008Y54129D02*
G03*
X109010Y54128I2479J2476D01*
G01*
X108172Y53783D02*
G03*
X108174Y53781I2479J2476D01*
G01*
X75600Y46000D02*
G03*
X75258Y45173I827J-827D01*
G01*
X75824Y42001D02*
G03*
X75258Y43368I-1933J0D01*
G01*
X74422Y45149D02*
G03*
X74069Y46000I-1204J0D01*
G01*
X74422Y43368D02*
G03*
X73855Y42001I1367J-1367D01*
G01*
X99446D02*
G03*
X98879Y43368I-1933J0D01*
G01*
X99231Y46000D02*
G03*
X98879Y45151I849J-849D01*
G01*
X98044Y45171D02*
G03*
X97700Y46000I-1173J0D01*
G01*
X98044Y43368D02*
G03*
X97477Y42001I1367J-1367D01*
G01*
X74108Y122955D02*
X78013D01*
X78000Y139100D02*
Y141311D01*
X82553Y145864D01*
X94290D01*
X96206Y143948D01*
X92320Y141316D02*
Y141361D01*
X96206Y141627D02*
Y143948D01*
X99600Y142100D02*
X101238Y140462D01*
X96206Y141627D02*
X98530Y139303D01*
X101102D01*
X79999Y125028D02*
X80900Y124127D01*
Y118569D02*
Y124127D01*
X78681Y125633D02*
X79287Y125028D01*
X79999D01*
X89400Y105992D02*
X90752Y104640D01*
X89400Y105992D02*
Y111400D01*
X88402Y105443D02*
Y111067D01*
X88280Y105321D02*
X88402Y105443D01*
X81700Y119100D02*
X89400Y111400D01*
X81700Y119100D02*
Y127400D01*
X80900Y118569D02*
X88402Y111067D01*
X79184Y129916D02*
X81700Y127400D01*
X78680Y129916D02*
X79184D01*
X78013Y122955D02*
X78681Y122287D01*
X75280Y133262D02*
X78680D01*
X79100Y133683D01*
Y136300D01*
X73496Y134596D02*
X78000Y139100D01*
X73496Y123566D02*
Y134596D01*
Y123566D02*
X74108Y122955D01*
X105351Y39533D02*
Y42001D01*
X104785Y43368D02*
Y45165D01*
X103949Y43368D02*
Y45157D01*
X103383Y39533D02*
Y42001D01*
X93541Y39532D02*
Y42001D01*
X92975Y43368D02*
Y45139D01*
X92138Y43368D02*
Y45183D01*
X91572Y39532D02*
Y42001D01*
X81729Y39533D02*
Y42001D01*
X81163Y43368D02*
Y45112D01*
X80327Y43368D02*
Y45210D01*
X79761Y39533D02*
Y42001D01*
X69918Y39533D02*
Y42001D01*
X69352Y43368D02*
Y44100D01*
X68516Y43368D02*
Y45684D01*
X67950Y39533D02*
Y42001D01*
X117162Y39533D02*
Y42001D01*
X116596Y43368D02*
Y45230D01*
X115760Y43368D02*
Y43700D01*
X115194Y39533D02*
Y42001D01*
X95778Y110496D02*
X96269Y110006D01*
Y109013D02*
Y110006D01*
X94864Y124876D02*
X95000Y124741D01*
X94864Y127041D02*
X95077Y127252D01*
X95464Y127413D02*
X95511D01*
X95200Y124658D02*
X95947Y123911D01*
Y119362D02*
Y123911D01*
Y127849D02*
Y129854D01*
X96783Y119412D02*
Y123911D01*
Y127849D02*
Y129508D01*
Y123911D02*
X97529Y124658D01*
X97219Y127413D02*
X97265D01*
X95268Y132199D02*
X95268Y132200D01*
X95268Y131528D02*
X95268Y131528D01*
X95423Y131373D01*
X95268Y132200D02*
X95423Y132355D01*
X95802Y132512D02*
X95851Y132561D01*
X95802Y131216D02*
X95851Y131167D01*
X95947Y129854D02*
X95979Y129886D01*
Y130858D01*
X96783Y129508D02*
X96815Y129540D01*
Y130858D01*
X96942Y132561D02*
X96992Y132512D01*
X96942Y131167D02*
X96992Y131216D01*
X94149Y136899D02*
X95137Y135911D01*
X94772Y137458D02*
X95851Y136379D01*
X95979Y132869D02*
Y133879D01*
X96815Y132869D02*
Y134052D01*
X107070Y118273D02*
X107562D01*
X106928Y118130D02*
X107070Y118273D01*
X108010Y117048D02*
X108153Y117190D01*
Y117682D01*
X109369Y118897D01*
X107562Y118273D02*
X108777Y119488D01*
X110408Y119328D02*
X110755D01*
X112386Y120004D02*
X113262Y120880D01*
X112039Y120839D02*
X112040Y120840D01*
X112564Y121364D01*
X97370Y132355D02*
X97525Y132200D01*
X97370Y131373D02*
X97525Y131528D01*
Y132200D02*
X97526Y132199D01*
X97525Y131528D02*
X97526Y131528D01*
X97653Y127252D02*
X97865Y127041D01*
X97729Y124741D02*
X97865Y124876D01*
X112564Y121364D02*
X112564Y121364D01*
X112406Y124876D02*
X112514Y124768D01*
X112406Y127041D02*
X112586Y127220D01*
X101102Y139303D02*
X103505Y136900D01*
X109373Y138209D02*
X113003Y134580D01*
X109964Y138800D02*
X113716Y135048D01*
X114324Y123444D02*
Y123950D01*
X113488Y123596D02*
Y123950D01*
X112781Y124658D02*
X113488Y123950D01*
X114324D02*
X115032Y124658D01*
X112586Y127220D02*
X112586Y127220D01*
X115227D02*
X115227Y127220D01*
X114324Y127849D02*
Y129030D01*
X113488Y127849D02*
Y129376D01*
X114324Y129030D02*
X114332Y129038D01*
X113488Y129376D02*
X113496Y129384D01*
X114332Y129038D02*
Y130789D01*
X113496Y129384D02*
Y130789D01*
X114888Y131373D02*
X115043Y131528D01*
X115299Y124768D02*
X115406Y124876D01*
X115227Y127220D02*
X115406Y127041D01*
X112786Y131528D02*
X112941Y131373D01*
X115043Y131528D02*
X115044Y131528D01*
X112785D02*
X112786Y131528D01*
X115043Y132200D02*
X115044Y132199D01*
X112785D02*
X112786Y132200D01*
X114888Y132355D02*
X115043Y132200D01*
X112786D02*
X112941Y132355D01*
X113320Y132512D02*
X113369Y132561D01*
X114460D02*
X114509Y132512D01*
X113496Y132869D02*
Y133387D01*
X114332Y132869D02*
Y133560D01*
X87069Y43368D02*
Y46271D01*
X87635Y39532D02*
Y42000D01*
X80962Y55282D02*
X85016Y51228D01*
X80274Y56943D02*
Y57916D01*
X86233Y43368D02*
Y45926D01*
X80371Y54690D02*
X84181Y50881D01*
X85666Y39533D02*
Y42001D01*
X79438Y56943D02*
Y57916D01*
X111257Y39533D02*
Y42001D01*
X110691Y43368D02*
Y50500D01*
X107984Y56605D02*
Y58652D01*
X107148Y56259D02*
Y58652D01*
X109854Y43368D02*
Y50154D01*
X108174Y53781D02*
X108478Y53477D01*
X109288Y39533D02*
Y42001D01*
X107984Y58652D02*
X108331Y59000D01*
X106800D02*
X107148Y58652D01*
X109010Y54128D02*
X109314Y53823D01*
X115748Y43712D02*
Y45168D01*
X115376Y45541D02*
X115748Y45168D01*
Y43712D02*
X115760Y43700D01*
X116596Y45230D02*
X116907Y45541D01*
X68200Y46000D02*
X68516Y45684D01*
X69359Y45627D02*
X69731Y46000D01*
X69359Y44107D02*
Y45627D01*
X69352Y44100D02*
X69359Y44107D01*
X75824Y39533D02*
Y42001D01*
X75258Y43368D02*
Y45173D01*
X74422Y43368D02*
Y45149D01*
X73855Y39533D02*
Y42001D01*
X99446Y39533D02*
Y42001D01*
X98879Y43368D02*
Y45151D01*
X98044Y43368D02*
Y45171D01*
X97477Y39533D02*
Y42001D01*
D61*
X95268Y131528D02*
D03*
X112564Y121364D02*
D03*
X112586Y127220D02*
D03*
X115227Y127220D02*
D03*
D68*
X132905Y39538D02*
Y45595D01*
Y39538D02*
X132910Y39533D01*
X64060Y42240D02*
X64260D01*
X63766D02*
X64060D01*
X63672Y42334D02*
Y42443D01*
X63500Y42616D02*
Y42800D01*
X63672Y42334D02*
X63766Y42240D01*
X63500Y42616D02*
X63672Y42443D01*
X65981Y39533D02*
Y41593D01*
X139687Y127955D02*
Y128053D01*
X134238Y130381D02*
X137261D01*
X139051Y128689D02*
X139687Y128053D01*
X138953Y128689D02*
X139051D01*
X137261Y130381D02*
X138953Y128689D01*
X132444Y132175D02*
X134238Y130381D01*
X135219Y127955D02*
X136340D01*
X133745Y126481D02*
X135219Y127955D01*
X132400Y132131D02*
X132444Y132175D01*
X128030Y129370D02*
X128238D01*
X128973Y126900D02*
Y128634D01*
X127900Y129500D02*
X128030Y129370D01*
X128238D02*
X128973Y128634D01*
X102471Y80688D02*
X102475Y80691D01*
X102471Y78394D02*
Y80688D01*
X115857Y76748D02*
X117333Y75272D01*
Y75230D02*
Y75272D01*
X115857Y76748D02*
Y78394D01*
X92964Y130136D02*
Y131864D01*
Y130136D02*
X94000Y129100D01*
X99124Y106930D02*
Y107028D01*
X105817Y106930D02*
Y107028D01*
X141657Y105606D02*
X141755D01*
X141021Y106242D02*
X141657Y105606D01*
X141021Y106242D02*
Y106551D01*
X138749Y108824D02*
X141021Y106551D01*
X117467Y113752D02*
X120289Y116574D01*
X123548D01*
X123600Y116627D01*
X126994Y116613D02*
X126994Y116613D01*
X123502Y116613D02*
X126994D01*
X124029Y119038D02*
Y119544D01*
X123600Y119973D02*
X124029Y119544D01*
X138749Y108824D02*
Y109495D01*
X138447Y109796D02*
X138749Y109495D01*
X99000Y129100D02*
Y129284D01*
X110482Y130118D02*
X111500Y129100D01*
X99000Y129284D02*
X99829Y130113D01*
Y131864D01*
X110482Y130118D02*
Y131864D01*
X116500Y129100D02*
Y129284D01*
X117347Y130131D01*
Y131864D01*
X117325Y53975D02*
X118465D01*
X112241Y59059D02*
X117325Y53975D01*
X118465D02*
X118558Y53882D01*
X112241Y59059D02*
Y69257D01*
D70*
X109134Y153540D02*
X111612D01*
X72867Y145089D02*
X74917D01*
X74811Y143038D02*
Y144641D01*
X83226Y153399D02*
Y153574D01*
X74917Y145089D02*
X83226Y153399D01*
X92000Y153574D02*
X95600D01*
X92000Y156920D02*
X95600D01*
X95600Y156920D01*
X83226Y153574D02*
X92000D01*
X95600Y156920D02*
X98925D01*
X95665Y146707D02*
Y153509D01*
X95600Y153574D02*
X95665Y153509D01*
X95600Y153574D02*
X95600Y153574D01*
X95600Y156920D02*
X95600Y156920D01*
X98925D02*
X102125D01*
X105498Y146656D02*
Y153572D01*
X109100Y153574D02*
X109134Y153540D01*
X105500Y156920D02*
X109100D01*
X109100Y156920D01*
X105500Y153574D02*
X109100D01*
X109100Y153574D01*
X105498Y153572D02*
X105500Y153574D01*
X73570Y141797D02*
X74811Y143038D01*
X73314Y144641D02*
X74811D01*
X72867Y145089D02*
X73314Y144641D01*
X74811Y143038D02*
X75464Y143691D01*
Y144089D01*
X59214Y141939D02*
Y144039D01*
X60264Y145089D01*
X72867D01*
X74811Y144641D02*
X74811Y144641D01*
X99125Y110496D02*
X102471D01*
X99124Y110496D02*
X99125Y110496D01*
D71*
X102125Y143646D02*
X103565Y142207D01*
X97365Y142107D02*
X98925Y143668D01*
X103700Y155812D02*
Y157804D01*
X102923Y155034D02*
X103700Y155812D01*
X100485Y155034D02*
X102923D01*
X103254Y154235D02*
X104168Y155149D01*
X99024Y153574D02*
X100485Y155034D01*
X102786Y154235D02*
X103254D01*
X102125Y153574D02*
X102786Y154235D01*
X98925Y143668D02*
Y153574D01*
X102125Y143646D02*
Y153574D01*
X98925D02*
X99024D01*
X112905Y158495D02*
X115938Y155462D01*
X116100D01*
X112230Y155149D02*
X120800Y146579D01*
X104392Y158495D02*
X112905D01*
X104168Y155149D02*
X112230D01*
X103700Y157804D02*
X104392Y158495D01*
X127206Y74855D02*
X129040D01*
X129410Y75225D01*
X129925D01*
X131544Y76844D01*
Y86452D01*
X125896Y89095D02*
X128901D01*
X131544Y86452D01*
X113845Y113752D02*
Y113817D01*
X129853Y106143D02*
Y106153D01*
X115656Y113752D02*
X120800Y118896D01*
X129853Y106153D02*
X135700Y112000D01*
X129873Y109784D02*
X131984D01*
X142058Y110123D02*
X142384Y109796D01*
X140415D02*
Y111528D01*
X142058Y110123D02*
Y111225D01*
X131984Y109784D02*
X135000Y112800D01*
X139943Y112000D02*
X140415Y111528D01*
X135700Y112000D02*
X139943D01*
X140483Y112800D02*
X142058Y111225D01*
X129906Y111627D02*
Y113766D01*
X135000Y112800D02*
X140483D01*
X131330Y112883D02*
X131469Y113023D01*
Y114058D01*
X129906Y113766D02*
X136152Y120012D01*
X131469Y114058D02*
X138447Y121036D01*
X136152Y120012D02*
Y121356D01*
X138447Y121036D02*
Y121666D01*
X136152Y121356D02*
X136478Y121683D01*
X140415Y121666D02*
Y124058D01*
X139673Y124800D02*
X140415Y124058D01*
X120800Y118896D02*
Y146579D01*
X118089Y60011D02*
X118617D01*
X116178Y69257D02*
X116541Y68894D01*
X116542Y61558D02*
X118089Y60011D01*
X116542Y61558D02*
Y64640D01*
X116541Y64640D02*
Y68894D01*
Y64640D02*
X116542Y64640D01*
X113848Y68895D02*
X114210Y69257D01*
X113848Y61730D02*
X118568Y57010D01*
X113848Y61730D02*
Y68895D01*
X118568Y57010D02*
X118568D01*
D72*
X130610Y73200D02*
X132617Y75207D01*
X125408Y73200D02*
X130610D01*
X123234Y75375D02*
Y77808D01*
Y75375D02*
X125408Y73200D01*
X122550Y78492D02*
Y81961D01*
Y78492D02*
X123234Y77808D01*
X122550Y78492D02*
X123260Y79203D01*
X123629D01*
X124127Y79701D01*
D74*
X131892Y157526D02*
D03*
X68900D02*
D03*
D75*
X83604Y141165D02*
D03*
X117619D02*
D03*
D76*
Y162267D02*
D03*
X83604Y162267D02*
D03*
D77*
X61060Y60300D02*
D03*
D78*
X139800D02*
D03*
D79*
X141453Y119625D02*
D03*
X141697Y107596D02*
D03*
X130961Y45591D02*
D03*
X136854Y45618D02*
D03*
X134887Y45557D02*
D03*
X132900Y45600D02*
D03*
X63500Y42800D02*
D03*
X71877Y42607D02*
D03*
X77800Y42600D02*
D03*
X83700D02*
D03*
X89600D02*
D03*
X95500D02*
D03*
X107314Y42553D02*
D03*
X101400Y42600D02*
D03*
X119600Y43300D02*
D03*
X112638Y43326D02*
D03*
X59719Y96758D02*
D03*
X59400Y95000D02*
D03*
X59187Y136172D02*
D03*
X59196Y111341D02*
D03*
X59304Y108031D02*
D03*
X133600Y143800D02*
D03*
X133500Y145500D02*
D03*
X60600Y79700D02*
D03*
X60500Y75200D02*
D03*
X60600Y87300D02*
D03*
X133745Y126481D02*
D03*
X132444Y132175D02*
D03*
X127900Y129500D02*
D03*
X123163Y165395D02*
D03*
X124499Y113752D02*
D03*
X105500Y156920D02*
D03*
X102125D02*
D03*
X92000D02*
D03*
X95665Y146707D02*
D03*
X95600Y156920D02*
D03*
X88407Y144669D02*
D03*
X98925Y156920D02*
D03*
X91972Y142200D02*
D03*
X93503D02*
D03*
X97365Y142107D02*
D03*
X99600Y142100D02*
D03*
X111612Y153540D02*
D03*
X105498Y146656D02*
D03*
X112817Y144669D02*
D03*
X103565Y142207D02*
D03*
X109251Y142200D02*
D03*
X107720D02*
D03*
X101238Y140462D02*
D03*
X110100Y153600D02*
D03*
X116100Y155462D02*
D03*
X109100Y156920D02*
D03*
X66343Y132865D02*
D03*
X66222Y134273D02*
D03*
X132617Y75207D02*
D03*
X125548Y74638D02*
D03*
X119108Y75255D02*
D03*
X117333Y75230D02*
D03*
X88300Y74300D02*
D03*
X83100D02*
D03*
X127206Y74855D02*
D03*
X90752Y104640D02*
D03*
X88280Y105321D02*
D03*
X90510Y102089D02*
D03*
X79100Y136300D02*
D03*
X77515Y127864D02*
D03*
X73570Y141797D02*
D03*
X73314Y144641D02*
D03*
X75800Y95100D02*
D03*
X69100Y87300D02*
D03*
X67200Y79200D02*
D03*
X60600Y70700D02*
D03*
X67700Y84000D02*
D03*
X59214Y141939D02*
D03*
Y144039D02*
D03*
X60264Y145089D02*
D03*
X62677Y130355D02*
D03*
X65414Y126641D02*
D03*
X66243Y140962D02*
D03*
X66251Y142237D02*
D03*
X66907Y138830D02*
D03*
X67251Y126582D02*
D03*
X67644Y134301D02*
D03*
X67677Y132794D02*
D03*
X67715Y140936D02*
D03*
X67723Y142203D02*
D03*
X74811Y143038D02*
D03*
X75464Y144089D02*
D03*
X71151Y130355D02*
D03*
X72973Y111241D02*
D03*
X68492Y101340D02*
D03*
X62404Y101284D02*
D03*
X62423Y99834D02*
D03*
X63708Y99820D02*
D03*
X63717Y101321D02*
D03*
X64966Y99838D02*
D03*
X64978Y101254D02*
D03*
X67242Y100065D02*
D03*
Y101374D02*
D03*
X68475Y100124D02*
D03*
X69699Y100000D02*
D03*
X69699Y101323D02*
D03*
X73458Y104040D02*
D03*
X78300Y79000D02*
D03*
X81700Y83000D02*
D03*
X74000Y83300D02*
D03*
X77600Y86900D02*
D03*
X80800Y88200D02*
D03*
X78800Y93200D02*
D03*
X81600Y98100D02*
D03*
X86400Y80691D02*
D03*
X90756Y81438D02*
D03*
X99321Y82929D02*
D03*
X84600Y84500D02*
D03*
X88000Y85100D02*
D03*
X99321Y85488D02*
D03*
X95778Y85528D02*
D03*
X99321Y88048D02*
D03*
X88500Y88800D02*
D03*
X84700D02*
D03*
X95778Y89095D02*
D03*
X99321Y90607D02*
D03*
X95778Y92662D02*
D03*
X99321Y93166D02*
D03*
X87300Y93500D02*
D03*
X83600Y93600D02*
D03*
X90804Y93635D02*
D03*
X99321Y95725D02*
D03*
X95872Y96227D02*
D03*
X90516Y98020D02*
D03*
X87500Y98100D02*
D03*
X84727Y98196D02*
D03*
X99321Y98284D02*
D03*
X129834Y79143D02*
D03*
X124127Y79701D02*
D03*
X102475Y80691D02*
D03*
X101880Y82929D02*
D03*
X109558D02*
D03*
X104439D02*
D03*
X106999D02*
D03*
X112117D02*
D03*
X106999Y85488D02*
D03*
X101880D02*
D03*
X109558D02*
D03*
X104439D02*
D03*
X112117D02*
D03*
X109558Y88048D02*
D03*
X106999D02*
D03*
X104439D02*
D03*
X101880D02*
D03*
X112117D02*
D03*
X106999Y90607D02*
D03*
X101880D02*
D03*
X104439D02*
D03*
X109558D02*
D03*
X112117D02*
D03*
X101880Y93166D02*
D03*
X106999D02*
D03*
X109558D02*
D03*
X104439D02*
D03*
X112117D02*
D03*
X101880Y95725D02*
D03*
X106999D02*
D03*
X109558D02*
D03*
X104439D02*
D03*
X109558Y98284D02*
D03*
X106999D02*
D03*
X129834Y80954D02*
D03*
Y82765D02*
D03*
X119794Y82929D02*
D03*
X117235D02*
D03*
X114676D02*
D03*
Y85488D02*
D03*
X117235D02*
D03*
X122353D02*
D03*
X119794D02*
D03*
Y88048D02*
D03*
X114676D02*
D03*
X117235D02*
D03*
X122353D02*
D03*
X142400Y88200D02*
D03*
Y89800D02*
D03*
X129834Y90009D02*
D03*
X114676Y90607D02*
D03*
X117235D02*
D03*
X122353D02*
D03*
X142391Y91444D02*
D03*
X119794Y93166D02*
D03*
X122353D02*
D03*
X142381Y93166D02*
D03*
X142361Y94907D02*
D03*
X124490Y95355D02*
D03*
X112117Y95725D02*
D03*
X119794D02*
D03*
X122353D02*
D03*
X117235Y95725D02*
D03*
X114676D02*
D03*
X122353Y98284D02*
D03*
X99321Y100843D02*
D03*
X76500Y101900D02*
D03*
X80697Y101936D02*
D03*
X87460Y102221D02*
D03*
X85309Y103102D02*
D03*
X99321Y103402D02*
D03*
X75000Y103500D02*
D03*
X78242Y105574D02*
D03*
X99321Y105961D02*
D03*
X95856Y106917D02*
D03*
X75005Y107425D02*
D03*
X96269Y109013D02*
D03*
X81391Y109905D02*
D03*
X91010Y110648D02*
D03*
X74900Y111907D02*
D03*
X85335Y112348D02*
D03*
X89400Y113900D02*
D03*
X82031Y113957D02*
D03*
X78631Y114057D02*
D03*
X87500Y116200D02*
D03*
X85600Y118300D02*
D03*
X97140Y118548D02*
D03*
X95609D02*
D03*
X84300Y121000D02*
D03*
X94000Y122900D02*
D03*
X99000D02*
D03*
X90000Y123000D02*
D03*
X84500Y123100D02*
D03*
X100000Y124800D02*
D03*
X92800Y125000D02*
D03*
X83365Y125007D02*
D03*
X91265D02*
D03*
X100000Y127000D02*
D03*
X92800Y127100D02*
D03*
X91265Y127107D02*
D03*
X83365Y127407D02*
D03*
X84500Y129000D02*
D03*
X90000Y129100D02*
D03*
X94000D02*
D03*
X99000D02*
D03*
X101880Y100843D02*
D03*
X113845Y113752D02*
D03*
X112117Y103402D02*
D03*
X104439Y98284D02*
D03*
Y100843D02*
D03*
X112117D02*
D03*
X109558D02*
D03*
X109558Y105961D02*
D03*
X101880Y103402D02*
D03*
X112117Y105961D02*
D03*
X104525Y108562D02*
D03*
X106999Y100843D02*
D03*
Y105961D02*
D03*
X107375Y108755D02*
D03*
X114676Y98284D02*
D03*
X119794Y98284D02*
D03*
X117235Y98284D02*
D03*
X138928Y100748D02*
D03*
X137013Y100816D02*
D03*
X119794Y100843D02*
D03*
X122353D02*
D03*
X138936Y102350D02*
D03*
X137030Y102401D02*
D03*
X114676Y103402D02*
D03*
X119794D02*
D03*
X122353D02*
D03*
X117235D02*
D03*
X138843Y103918D02*
D03*
X136980Y104015D02*
D03*
X137017Y105662D02*
D03*
X138835Y105672D02*
D03*
X114676Y105961D02*
D03*
X119794D02*
D03*
X117235D02*
D03*
X122353D02*
D03*
X129853Y106143D02*
D03*
X129867Y107967D02*
D03*
X129873Y109784D02*
D03*
X129906Y111627D02*
D03*
X131330Y112883D02*
D03*
X115656Y113752D02*
D03*
X121089D02*
D03*
X122900D02*
D03*
X119278D02*
D03*
X117467D02*
D03*
X128433Y113905D02*
D03*
X108010Y117048D02*
D03*
X106928Y118130D02*
D03*
X107500Y123100D02*
D03*
X102500D02*
D03*
X111400D02*
D03*
X101600Y124800D02*
D03*
X108500Y125100D02*
D03*
X110500D02*
D03*
X101600Y127000D02*
D03*
X108500Y127100D02*
D03*
X110500D02*
D03*
X102500Y129100D02*
D03*
X108000D02*
D03*
X111500D02*
D03*
X116265Y133507D02*
D03*
X109600Y134200D02*
D03*
X102465Y135007D02*
D03*
X115865D02*
D03*
X103505Y136900D02*
D03*
X142022Y114336D02*
D03*
X124029Y119038D02*
D03*
X128779Y120478D02*
D03*
X116500Y123100D02*
D03*
X117500Y124800D02*
D03*
Y127000D02*
D03*
X116500Y129100D02*
D03*
X135959Y133730D02*
D03*
X137821D02*
D03*
X132444Y133831D02*
D03*
X132413Y135383D02*
D03*
X137801Y135481D02*
D03*
X136000Y135500D02*
D03*
X72400Y80100D02*
D03*
X74400Y91900D02*
D03*
X73400Y98600D02*
D03*
X123231Y61661D02*
D03*
X118617Y60011D02*
D03*
X115064Y64499D02*
D03*
X133883Y63991D02*
D03*
X131990Y63965D02*
D03*
X135900Y65100D02*
D03*
X133900D02*
D03*
X132000D02*
D03*
X118558Y53882D02*
D03*
X114800Y58700D02*
D03*
X118568Y57010D02*
D03*
X81531Y46000D02*
D03*
X80000D02*
D03*
X83150Y62865D02*
D03*
Y60565D02*
D03*
X82250Y64565D02*
D03*
X112800Y54300D02*
D03*
X108000Y50100D02*
D03*
X101700Y51300D02*
D03*
X105000Y54600D02*
D03*
X101300Y64400D02*
D03*
X90200Y51500D02*
D03*
X95500D02*
D03*
X95400Y64400D02*
D03*
X90300Y60500D02*
D03*
X90100Y55900D02*
D03*
X90300Y64400D02*
D03*
X79800Y53000D02*
D03*
X87200Y64000D02*
D03*
X87300Y58700D02*
D03*
X86100Y53600D02*
D03*
X72000Y64200D02*
D03*
X71800Y58800D02*
D03*
X67000Y58900D02*
D03*
Y52400D02*
D03*
X66900Y64300D02*
D03*
X63000Y64500D02*
D03*
X135905Y63948D02*
D03*
X80621Y58755D02*
D03*
X79090D02*
D03*
X108331Y59000D02*
D03*
X106800D02*
D03*
X115376Y45541D02*
D03*
X116907D02*
D03*
X103600Y46000D02*
D03*
X105131D02*
D03*
X91800D02*
D03*
X93331D02*
D03*
X68200D02*
D03*
X69731D02*
D03*
X75600D02*
D03*
X74069D02*
D03*
X114192Y44041D02*
D03*
Y47041D02*
D03*
X118192Y44041D02*
D03*
Y47041D02*
D03*
X76450Y60665D02*
D03*
X76550Y62865D02*
D03*
X76950Y64565D02*
D03*
Y58865D02*
D03*
X82301Y58851D02*
D03*
X99231Y46000D02*
D03*
X97700D02*
D03*
X101763Y59862D02*
D03*
Y57662D02*
D03*
X95763Y61462D02*
D03*
X101163D02*
D03*
X96070Y55862D02*
D03*
X100963D02*
D03*
X95163Y59862D02*
D03*
Y57662D02*
D03*
X102417Y44500D02*
D03*
Y47500D02*
D03*
X106417Y44500D02*
D03*
Y47500D02*
D03*
X96517Y44500D02*
D03*
Y47500D02*
D03*
X100517Y44500D02*
D03*
Y47500D02*
D03*
X90617Y44500D02*
D03*
Y47500D02*
D03*
X94617Y44500D02*
D03*
Y47500D02*
D03*
X78817Y44500D02*
D03*
Y47500D02*
D03*
X82817Y44500D02*
D03*
Y47500D02*
D03*
X72886Y44500D02*
D03*
Y47500D02*
D03*
X76886Y44500D02*
D03*
Y47500D02*
D03*
X67017Y44500D02*
D03*
Y47500D02*
D03*
X71017Y44500D02*
D03*
Y47500D02*
D03*
X109900Y64853D02*
D03*
X104300Y60953D02*
D03*
X105200Y59153D02*
D03*
X110000D02*
D03*
X110900Y60953D02*
D03*
X104300Y63153D02*
D03*
X105300Y64853D02*
D03*
X110900Y63353D02*
D03*
X72650Y50200D02*
D03*
X71550Y51800D02*
D03*
Y54000D02*
D03*
X72650Y55600D02*
D03*
X77204Y55610D02*
D03*
X78150Y54000D02*
D03*
Y51800D02*
D03*
X77150Y50200D02*
D03*
D80*
X127300Y134800D02*
D03*
Y142674D02*
D03*
D81*
X139431Y115731D02*
D03*
D82*
X142384Y109796D02*
D03*
X140415D02*
D03*
X138447D02*
D03*
X136478D02*
D03*
X142384Y121666D02*
D03*
X140415D02*
D03*
X138447D02*
D03*
X136478D02*
D03*
D83*
X64013Y39533D02*
D03*
X64997Y69257D02*
D03*
X65981Y39533D02*
D03*
X66966Y69257D02*
D03*
X71887Y39533D02*
D03*
X74840Y69257D02*
D03*
X76808D02*
D03*
X77792Y39533D02*
D03*
X78777Y69257D02*
D03*
X80745D02*
D03*
X83698Y39533D02*
D03*
X89604Y39532D02*
D03*
X95509Y39533D02*
D03*
X101414D02*
D03*
X107320D02*
D03*
X112241Y69257D02*
D03*
X113225Y39533D02*
D03*
X114210Y69257D02*
D03*
X116178D02*
D03*
X119131Y39533D02*
D03*
X131926Y69257D02*
D03*
X132910Y39533D02*
D03*
X133895Y69257D02*
D03*
X134879Y39533D02*
D03*
X135863Y69257D02*
D03*
X136847Y39533D02*
D03*
X73855D02*
D03*
X75824D02*
D03*
X85666D02*
D03*
X87635Y39532D02*
D03*
X97477Y39533D02*
D03*
X99446D02*
D03*
X109288D02*
D03*
X111257D02*
D03*
X103383D02*
D03*
X91572Y39532D02*
D03*
X79761Y39533D02*
D03*
X67950D02*
D03*
X105351D02*
D03*
X93541Y39532D02*
D03*
X81729Y39533D02*
D03*
X69918D02*
D03*
X115194D02*
D03*
X117162D02*
D03*
X130942D02*
D03*
X129958Y69257D02*
D03*
X128973Y39533D02*
D03*
X92556Y69257D02*
D03*
X90587D02*
D03*
X88619D02*
D03*
X86650D02*
D03*
X120115Y69257D02*
D03*
X118147D02*
D03*
X110273D02*
D03*
X108304D02*
D03*
X106336D02*
D03*
X104367D02*
D03*
X102399D02*
D03*
X100430D02*
D03*
X84682D02*
D03*
X82714D02*
D03*
X72871D02*
D03*
X70903D02*
D03*
X68934D02*
D03*
X94525D02*
D03*
X96493D02*
D03*
X98462D02*
D03*
D84*
X59682Y42584D02*
D03*
X141178D02*
D03*
D85*
X90971Y76718D02*
X91937Y75751D01*
X95615D01*
X80132Y76718D02*
X90971D01*
X122421Y73565D02*
X123300Y72686D01*
Y68000D02*
Y72686D01*
X116608Y73565D02*
X116633Y73540D01*
X118033D02*
X118058Y73565D01*
X116633Y73540D02*
X118033D01*
X118058Y73565D02*
X122421D01*
X112635D02*
X116608D01*
X110441Y75759D02*
X112635Y73565D01*
X99179Y75759D02*
X110441D01*
X95615Y75751D02*
X99172D01*
X99179Y75759D01*
X123300Y68000D02*
X127352Y63948D01*
X131990D02*
X133883D01*
X127352D02*
X131990D01*
X133883D02*
X135905D01*
M02*
