G04*
G04 #@! TF.GenerationSoftware,Altium Limited,Altium Designer,21.2.1 (34)*
G04*
G04 Layer_Physical_Order=3*
G04 Layer_Color=6736896*
%FSLAX25Y25*%
%MOIN*%
G70*
G04*
G04 #@! TF.SameCoordinates,309C0993-0839-4B3B-9E80-2D82E5661E4B*
G04*
G04*
G04 #@! TF.FilePolarity,Positive*
G04*
G01*
G75*
%ADD15C,0.01000*%
%ADD67C,0.04000*%
%ADD68C,0.00500*%
%ADD70C,0.02000*%
%ADD74C,0.15748*%
%ADD75O,0.03937X0.08263*%
%ADD76O,0.03937X0.10231*%
%ADD79C,0.01181*%
G36*
X143775Y60917D02*
X143275Y60851D01*
X143061Y61651D01*
X142600Y62449D01*
X141949Y63100D01*
X141151Y63561D01*
X140261Y63800D01*
X139339D01*
X138449Y63561D01*
X137651Y63100D01*
X137000Y62449D01*
X136539Y61651D01*
X136300Y60761D01*
Y59839D01*
X136539Y58949D01*
X137000Y58151D01*
X137651Y57500D01*
X138449Y57039D01*
X139339Y56800D01*
X140261D01*
X141151Y57039D01*
X141949Y57500D01*
X142600Y58151D01*
X143061Y58949D01*
X143275Y59749D01*
X143775Y59683D01*
Y35877D01*
X57360D01*
X57007Y36231D01*
X57028Y168500D01*
X143775D01*
Y60917D01*
D02*
G37*
%LPC*%
G36*
X123350Y166335D02*
X122976D01*
X122630Y166192D01*
X122366Y165928D01*
X122222Y165582D01*
Y165208D01*
X122366Y164862D01*
X122630Y164597D01*
X122976Y164454D01*
X123350D01*
X123696Y164597D01*
X123960Y164862D01*
X124103Y165208D01*
Y165582D01*
X123960Y165928D01*
X123696Y166192D01*
X123350Y166335D01*
D02*
G37*
G36*
X116287Y156402D02*
X115913D01*
X115567Y156259D01*
X115303Y155995D01*
X115159Y155649D01*
Y155275D01*
X114774Y154898D01*
X110496D01*
X110100Y154976D01*
X109573Y154872D01*
X109127Y154573D01*
X108828Y154127D01*
X108724Y153600D01*
X108828Y153073D01*
X109127Y152627D01*
X109205Y152548D01*
X109652Y152250D01*
X110179Y152145D01*
X119209D01*
X131037Y140316D01*
Y135383D01*
Y133898D01*
X131024Y133831D01*
Y132144D01*
X131128Y131617D01*
X131427Y131171D01*
X131474Y130692D01*
X118818Y118037D01*
X118628Y117578D01*
Y114612D01*
X118187Y114432D01*
X118045Y114503D01*
X117999Y114549D01*
X117654Y114692D01*
X117280D01*
X116934Y114549D01*
X116888Y114503D01*
X116561Y114339D01*
X116235Y114503D01*
X116188Y114549D01*
X115843Y114692D01*
X115469D01*
X115123Y114549D01*
X115077Y114503D01*
X114750Y114339D01*
X114424Y114503D01*
X114377Y114549D01*
X114032Y114692D01*
X113657D01*
X113312Y114549D01*
X113047Y114285D01*
X112904Y113939D01*
Y113565D01*
X113047Y113219D01*
X113312Y112955D01*
X113657Y112811D01*
X114032D01*
X114377Y112955D01*
X114424Y113001D01*
X114750Y113165D01*
X115077Y113001D01*
X115123Y112955D01*
X115469Y112811D01*
X115843D01*
X116188Y112955D01*
X116235Y113001D01*
X116561Y113165D01*
X116888Y113001D01*
X116934Y112955D01*
X117280Y112811D01*
X117654D01*
X117999Y112955D01*
X118045Y113001D01*
X118372Y113165D01*
X118699Y113001D01*
X118745Y112955D01*
X119091Y112811D01*
X119465D01*
X119810Y112955D01*
X119857Y113001D01*
X120183Y113165D01*
X120510Y113001D01*
X120556Y112955D01*
X120902Y112811D01*
X121276D01*
X121622Y112955D01*
X121668Y113001D01*
X121994Y113165D01*
X122321Y113001D01*
X122367Y112955D01*
X122713Y112811D01*
X123087D01*
X123433Y112955D01*
X123700Y113217D01*
X123967Y112955D01*
X124312Y112811D01*
X124687D01*
X125032Y112955D01*
X125297Y113219D01*
X125440Y113565D01*
Y113939D01*
X125297Y114285D01*
X125032Y114549D01*
X124687Y114692D01*
X124312D01*
X123967Y114549D01*
X123700Y114287D01*
X123433Y114549D01*
X123087Y114692D01*
X122713D01*
X122367Y114549D01*
X122321Y114503D01*
X121994Y114339D01*
X121668Y114503D01*
X121622Y114549D01*
X121276Y114692D01*
X120902D01*
X120556Y114549D01*
X120510Y114503D01*
X120369Y114432D01*
X119927Y114612D01*
Y117309D01*
X132859Y130241D01*
X133049Y130700D01*
Y130954D01*
X133373Y131171D01*
X133672Y131617D01*
X133776Y132144D01*
Y133777D01*
X133790Y133844D01*
Y135383D01*
Y140887D01*
X133685Y141413D01*
X133387Y141860D01*
X120752Y154495D01*
X120306Y154793D01*
X119779Y154898D01*
X117426D01*
X117041Y155275D01*
Y155649D01*
X116897Y155995D01*
X116633Y156259D01*
X116287Y156402D01*
D02*
G37*
G36*
X105453Y148077D02*
X95671D01*
X95144Y147973D01*
X94697Y147674D01*
X94399Y147228D01*
X94294Y146701D01*
X94399Y146174D01*
X94697Y145728D01*
X95144Y145429D01*
X95671Y145325D01*
X105270D01*
X105498Y145279D01*
X106025Y145384D01*
X106471Y145682D01*
X106770Y146129D01*
X106875Y146656D01*
X106770Y147182D01*
X106471Y147629D01*
X106444Y147647D01*
X106426Y147674D01*
X105979Y147973D01*
X105453Y148077D01*
D02*
G37*
G36*
X109438Y143141D02*
X109064D01*
X108718Y142997D01*
X108486Y142765D01*
X108253Y142997D01*
X107907Y143141D01*
X107533D01*
X107187Y142997D01*
X106923Y142733D01*
X106780Y142387D01*
Y142013D01*
X106923Y141667D01*
X107187Y141403D01*
X107533Y141259D01*
X107907D01*
X108253Y141403D01*
X108486Y141635D01*
X108718Y141403D01*
X109064Y141259D01*
X109438D01*
X109784Y141403D01*
X110048Y141667D01*
X110192Y142013D01*
Y142387D01*
X110048Y142733D01*
X109784Y142997D01*
X109438Y143141D01*
D02*
G37*
G36*
X93690D02*
X93316D01*
X92970Y142997D01*
X92738Y142765D01*
X92505Y142997D01*
X92159Y143141D01*
X91785D01*
X91439Y142997D01*
X91175Y142733D01*
X91031Y142387D01*
Y142013D01*
X91175Y141667D01*
X91439Y141403D01*
X91785Y141259D01*
X92159D01*
X92505Y141403D01*
X92738Y141635D01*
X92970Y141403D01*
X93316Y141259D01*
X93690D01*
X94036Y141403D01*
X94301Y141667D01*
X94444Y142013D01*
Y142387D01*
X94301Y142733D01*
X94036Y142997D01*
X93690Y143141D01*
D02*
G37*
G36*
X103752Y143148D02*
X103377D01*
X103032Y143005D01*
X102767Y142740D01*
X102624Y142394D01*
Y142020D01*
X102767Y141674D01*
X103032Y141410D01*
X103377Y141267D01*
X103752D01*
X104097Y141410D01*
X104362Y141674D01*
X104505Y142020D01*
Y142394D01*
X104362Y142740D01*
X104097Y143005D01*
X103752Y143148D01*
D02*
G37*
G36*
X60451Y146030D02*
X60077D01*
X59731Y145886D01*
X59467Y145622D01*
X59323Y145276D01*
Y144980D01*
X59027D01*
X58682Y144837D01*
X58417Y144572D01*
X58274Y144227D01*
Y143852D01*
X58417Y143507D01*
X58682Y143242D01*
Y142736D01*
X58417Y142471D01*
X58274Y142126D01*
Y141752D01*
X58417Y141406D01*
X58682Y141141D01*
X59027Y140998D01*
X59401D01*
X59747Y141141D01*
X60012Y141406D01*
X60155Y141752D01*
Y142126D01*
X60012Y142471D01*
X59747Y142736D01*
Y143242D01*
X60012Y143507D01*
X60155Y143852D01*
Y144149D01*
X60451D01*
X60797Y144292D01*
X61061Y144556D01*
X61204Y144902D01*
Y145276D01*
X61061Y145622D01*
X60797Y145886D01*
X60451Y146030D01*
D02*
G37*
G36*
X73501Y145582D02*
X73127D01*
X72782Y145439D01*
X72517Y145174D01*
X72374Y144828D01*
Y144454D01*
X72517Y144108D01*
X72782Y143844D01*
X73127Y143701D01*
X73501D01*
X73532Y143713D01*
X73914Y143331D01*
X73871Y143225D01*
Y143200D01*
X73780Y142829D01*
X73409Y142738D01*
X73383D01*
X73038Y142595D01*
X72773Y142330D01*
X72630Y141984D01*
Y141610D01*
X72773Y141265D01*
X73038Y141000D01*
X73383Y140857D01*
X73757D01*
X74103Y141000D01*
X74368Y141265D01*
X74511Y141610D01*
Y141636D01*
X74602Y142007D01*
X74973Y142098D01*
X74998D01*
X75344Y142241D01*
X75608Y142505D01*
X75752Y142851D01*
Y143190D01*
X75997Y143292D01*
X76261Y143556D01*
X76405Y143902D01*
Y144276D01*
X76261Y144622D01*
X75997Y144886D01*
X75651Y145030D01*
X75277D01*
X74931Y144886D01*
X74755Y144710D01*
X74316Y144814D01*
X74245Y144853D01*
X74112Y145174D01*
X73847Y145439D01*
X73501Y145582D01*
D02*
G37*
G36*
X97552Y143048D02*
X97177D01*
X96832Y142904D01*
X96567Y142640D01*
X96424Y142294D01*
Y141920D01*
X96567Y141574D01*
X96832Y141310D01*
X97177Y141167D01*
X97552D01*
X97897Y141310D01*
X98162Y141574D01*
X98210Y141691D01*
X98751D01*
X98803Y141567D01*
X99067Y141303D01*
X99413Y141159D01*
X99787D01*
X100056Y141271D01*
X100128Y141218D01*
X100357Y140990D01*
X100409Y140917D01*
X100298Y140649D01*
Y140275D01*
X100441Y139929D01*
X100706Y139664D01*
X101051Y139521D01*
X101426D01*
X101771Y139664D01*
X102036Y139929D01*
X102179Y140275D01*
Y140649D01*
X102036Y140994D01*
X101771Y141259D01*
X101426Y141402D01*
X101051D01*
X100783Y141291D01*
X100710Y141343D01*
X100482Y141572D01*
X100429Y141645D01*
X100540Y141913D01*
Y142287D01*
X100397Y142633D01*
X100133Y142897D01*
X99787Y143041D01*
X99413D01*
X99067Y142897D01*
X98803Y142633D01*
X98754Y142516D01*
X98213D01*
X98162Y142640D01*
X97897Y142904D01*
X97552Y143048D01*
D02*
G37*
G36*
X103692Y137840D02*
X103318D01*
X102973Y137697D01*
X102708Y137433D01*
X102565Y137087D01*
Y136713D01*
X102708Y136367D01*
X102973Y136103D01*
X103318Y135959D01*
X103692D01*
X104038Y136103D01*
X104303Y136367D01*
X104446Y136713D01*
Y137087D01*
X104303Y137433D01*
X104038Y137697D01*
X103692Y137840D01*
D02*
G37*
G36*
X79287Y137241D02*
X78913D01*
X78567Y137097D01*
X78303Y136833D01*
X78159Y136487D01*
Y136113D01*
X78303Y135767D01*
X78567Y135503D01*
X78913Y135359D01*
X79287D01*
X79633Y135503D01*
X79897Y135767D01*
X80041Y136113D01*
Y136487D01*
X79897Y136833D01*
X79633Y137097D01*
X79287Y137241D01*
D02*
G37*
G36*
X59374Y137113D02*
X59000D01*
X58654Y136970D01*
X58389Y136705D01*
X58246Y136359D01*
Y135985D01*
X58320Y135807D01*
Y133846D01*
X58386Y133514D01*
X58574Y133233D01*
X61806Y130001D01*
X61880Y129822D01*
X62145Y129558D01*
X62490Y129414D01*
X62864D01*
X63043Y129488D01*
X70786D01*
X70964Y129414D01*
X71338D01*
X71684Y129558D01*
X71949Y129822D01*
X72092Y130168D01*
Y130542D01*
X71949Y130888D01*
X71684Y131152D01*
X71338Y131296D01*
X70964D01*
X70786Y131222D01*
X63043D01*
X63032Y131226D01*
X60053Y134205D01*
Y135807D01*
X60127Y135985D01*
Y136359D01*
X59984Y136705D01*
X59719Y136970D01*
X59374Y137113D01*
D02*
G37*
G36*
X133932Y127422D02*
X133558D01*
X133213Y127279D01*
X132948Y127014D01*
X132805Y126668D01*
Y126294D01*
X132948Y125948D01*
X133213Y125684D01*
X133558Y125541D01*
X133932D01*
X134278Y125684D01*
X134543Y125948D01*
X134686Y126294D01*
Y126668D01*
X134543Y127014D01*
X134278Y127279D01*
X133932Y127422D01*
D02*
G37*
G36*
X98811Y127874D02*
X93811D01*
Y124092D01*
X98811D01*
Y127874D01*
D02*
G37*
G36*
X116378Y127849D02*
X111378D01*
Y124067D01*
X116378D01*
Y127849D01*
D02*
G37*
G36*
X97328Y119488D02*
X96953D01*
X96608Y119345D01*
X96375Y119112D01*
X96142Y119345D01*
X95796Y119488D01*
X95422D01*
X95077Y119345D01*
X94812Y119080D01*
X94669Y118735D01*
Y118360D01*
X94812Y118015D01*
X95077Y117750D01*
X95422Y117607D01*
X95796D01*
X96142Y117750D01*
X96375Y117983D01*
X96608Y117750D01*
X96953Y117607D01*
X97328D01*
X97673Y117750D01*
X97938Y118015D01*
X98081Y118360D01*
Y118735D01*
X97938Y119080D01*
X97673Y119345D01*
X97328Y119488D01*
D02*
G37*
G36*
X107115Y119071D02*
X106741D01*
X106395Y118928D01*
X106130Y118663D01*
X105987Y118317D01*
Y117943D01*
X106130Y117597D01*
X106395Y117333D01*
X106741Y117190D01*
X107070D01*
Y116860D01*
X107213Y116515D01*
X107478Y116250D01*
X107823Y116107D01*
X108197D01*
X108543Y116250D01*
X108808Y116515D01*
X108951Y116860D01*
Y117235D01*
X108808Y117580D01*
X108543Y117845D01*
X108197Y117988D01*
X107868D01*
Y118317D01*
X107725Y118663D01*
X107460Y118928D01*
X107115Y119071D01*
D02*
G37*
G36*
X96456Y109954D02*
X96082D01*
X95736Y109811D01*
X95472Y109546D01*
X95328Y109201D01*
Y108826D01*
X95472Y108481D01*
X95736Y108216D01*
X96082Y108073D01*
X96456D01*
X96802Y108216D01*
X97066Y108481D01*
X97209Y108826D01*
Y109201D01*
X97066Y109546D01*
X96802Y109811D01*
X96456Y109954D01*
D02*
G37*
G36*
X124216Y119978D02*
X123842D01*
X123496Y119835D01*
X123232Y119571D01*
X123089Y119225D01*
Y118851D01*
X123232Y118505D01*
X123496Y118240D01*
X123842Y118097D01*
X124216D01*
X124395Y118171D01*
X130391D01*
X136151Y112411D01*
Y107308D01*
X131154D01*
X130859Y107605D01*
X130814Y107676D01*
X130787Y107730D01*
X130808Y107780D01*
Y108154D01*
X130665Y108500D01*
X130619Y108546D01*
X130458Y108879D01*
X130619Y109199D01*
X130671Y109251D01*
X130814Y109597D01*
Y109971D01*
X130671Y110317D01*
X130622Y110365D01*
X130479Y110727D01*
X130625Y111016D01*
X130703Y111095D01*
X130847Y111440D01*
Y111524D01*
X131102Y111885D01*
X131308Y111942D01*
X131517D01*
X131862Y112086D01*
X132127Y112350D01*
X132270Y112696D01*
Y113070D01*
X132127Y113416D01*
X131862Y113680D01*
X131517Y113823D01*
X131142D01*
X130797Y113680D01*
X130532Y113416D01*
X130389Y113070D01*
Y112987D01*
X130133Y112625D01*
X129927Y112568D01*
X129719D01*
X129373Y112425D01*
X129109Y112160D01*
X128965Y111814D01*
Y111440D01*
X129109Y111095D01*
X129157Y111046D01*
X129300Y110684D01*
X129155Y110395D01*
X129076Y110317D01*
X128933Y109971D01*
Y109597D01*
X129076Y109251D01*
X129122Y109205D01*
X129283Y108871D01*
X129122Y108552D01*
X129070Y108500D01*
X128927Y108154D01*
Y107780D01*
X128950Y107722D01*
X128950Y107722D01*
X128874Y107589D01*
X128581Y107308D01*
X120862D01*
X120821Y107291D01*
X120777Y107299D01*
X120691Y107238D01*
X120595Y107197D01*
X120577Y107156D01*
X120541Y107130D01*
X120402Y106906D01*
X120395Y106869D01*
X120369Y106841D01*
X120264Y106565D01*
X120268Y106424D01*
Y106285D01*
X120355Y106073D01*
Y105849D01*
X120270Y105643D01*
X120112Y105485D01*
X119905Y105399D01*
X119682D01*
X119476Y105485D01*
X119318Y105643D01*
X119232Y105849D01*
Y106073D01*
X119320Y106285D01*
Y106425D01*
X119324Y106565D01*
X119218Y106841D01*
X119192Y106869D01*
X119186Y106906D01*
X119047Y107130D01*
X119010Y107156D01*
X118993Y107197D01*
X118896Y107238D01*
X118811Y107299D01*
X118767Y107291D01*
X118725Y107308D01*
X114381D01*
X114113Y107197D01*
X113128Y106213D01*
X113017Y105945D01*
Y103109D01*
X113128Y102841D01*
X114209Y101760D01*
X114477Y101649D01*
X117316D01*
X118064Y100901D01*
X118161Y100653D01*
X118181Y100507D01*
X118181Y100349D01*
X118172Y100255D01*
X118135Y100168D01*
Y99736D01*
X117635Y99492D01*
X117523Y99538D01*
X115564D01*
X113825Y101277D01*
X113755Y101306D01*
X113702Y101359D01*
X113627D01*
X113557Y101388D01*
X113488Y101359D01*
X113412D01*
X112912Y101152D01*
X112859Y101099D01*
X112789Y101070D01*
X112760Y101001D01*
X112707Y100947D01*
Y100872D01*
X112678Y100802D01*
Y100731D01*
X112593Y100525D01*
X112435Y100367D01*
X112228Y100281D01*
X112005D01*
X111799Y100367D01*
X111640Y100525D01*
X111555Y100731D01*
Y100955D01*
X111640Y101161D01*
X111834Y101355D01*
X111838Y101364D01*
X111847Y101368D01*
X111847Y101369D01*
X111893Y101497D01*
X111945Y101622D01*
X111941Y101632D01*
X111944Y101641D01*
X111940Y101735D01*
X111940Y101735D01*
X111920Y101778D01*
X111925Y101824D01*
X111805Y102230D01*
X111746Y102303D01*
X111709Y102390D01*
X111658Y102412D01*
X111623Y102455D01*
X111529Y102465D01*
X111442Y102501D01*
X104596D01*
X104328Y102390D01*
X103145Y101207D01*
X103034Y100940D01*
Y87715D01*
X103079Y87606D01*
X102833Y87106D01*
X102626D01*
X102566Y87081D01*
X102500Y87084D01*
X102437Y87027D01*
X102358Y86995D01*
X102333Y86935D01*
X102284Y86891D01*
X102236Y86790D01*
X101860Y86816D01*
X101725Y86857D01*
X101682Y86962D01*
X101630Y87094D01*
X101627Y87096D01*
X101625Y87099D01*
X101072Y87653D01*
Y103341D01*
X101318Y103587D01*
X101347Y103657D01*
X101400Y103710D01*
X101404Y103720D01*
X101562Y103878D01*
X101572Y103882D01*
X101602Y103912D01*
X101643D01*
X101769Y103964D01*
X101992D01*
X102118Y103912D01*
X102193D01*
X102263Y103883D01*
X109456D01*
X109724Y103994D01*
X110532Y104802D01*
X110643Y105069D01*
Y106826D01*
X110532Y107094D01*
X107511Y110115D01*
X107510Y110115D01*
X107510Y110116D01*
X107377Y110170D01*
X107244Y110225D01*
X107242Y110225D01*
X107241Y110225D01*
X107097Y110225D01*
X100256D01*
X99988Y110114D01*
X97519Y107645D01*
X97408Y107377D01*
Y102176D01*
X96600D01*
X96600Y102176D01*
X96073Y102072D01*
X95627Y101773D01*
X91030Y97176D01*
X79523D01*
X75082Y101617D01*
X74636Y101916D01*
X74109Y102021D01*
X70752D01*
X70705Y102257D01*
X70186Y103034D01*
X69409Y103554D01*
X68492Y103736D01*
X67575Y103554D01*
X66797Y103034D01*
X66742Y102979D01*
X66367Y102417D01*
X66365Y102416D01*
X65798Y102436D01*
X65411Y103016D01*
X64634Y103535D01*
X63717Y103717D01*
X62800Y103535D01*
X62023Y103016D01*
X61503Y102238D01*
X61321Y101321D01*
Y76935D01*
X61321Y76935D01*
X61503Y76018D01*
X62023Y75240D01*
X67598Y69665D01*
X67598Y69665D01*
X68375Y69146D01*
X69292Y68963D01*
X69292Y68963D01*
X106138D01*
X106138Y68963D01*
X107055Y69146D01*
X107833Y69665D01*
X115091Y76923D01*
X115091Y76923D01*
X115610Y77700D01*
X115792Y78617D01*
Y81582D01*
X117461D01*
X117729Y81693D01*
X118369Y82334D01*
X118480Y82601D01*
Y90499D01*
X118942Y90690D01*
X120694Y88938D01*
Y84914D01*
X120805Y84646D01*
X122219Y83232D01*
X122487Y83121D01*
X128781D01*
X128894Y82952D01*
Y82578D01*
X129037Y82232D01*
X129083Y82186D01*
X129247Y81859D01*
X129083Y81533D01*
X129037Y81486D01*
X128894Y81141D01*
Y80767D01*
X129037Y80421D01*
X129083Y80375D01*
X129247Y80048D01*
X129083Y79722D01*
X129037Y79676D01*
X128894Y79330D01*
Y78956D01*
X129037Y78610D01*
X129302Y78345D01*
X129647Y78202D01*
X130022D01*
X130367Y78345D01*
X130632Y78610D01*
X130775Y78956D01*
Y79330D01*
X130632Y79676D01*
X130586Y79722D01*
X130421Y80048D01*
X130586Y80375D01*
X130632Y80421D01*
X130775Y80767D01*
Y81141D01*
X130632Y81486D01*
X130586Y81533D01*
X130421Y81859D01*
X130586Y82186D01*
X130632Y82232D01*
X130775Y82578D01*
Y82952D01*
X130888Y83121D01*
X136641D01*
Y76297D01*
X122876Y62532D01*
X122698Y62458D01*
X122433Y62194D01*
X122290Y61848D01*
Y61474D01*
X122433Y61128D01*
X122698Y60864D01*
X123044Y60720D01*
X123418D01*
X123764Y60864D01*
X124028Y61128D01*
X124102Y61307D01*
X138120Y75325D01*
X138308Y75606D01*
X138374Y75938D01*
Y83121D01*
X139700D01*
X139968Y83232D01*
X140868Y84132D01*
X140979Y84400D01*
Y105400D01*
X140868Y105668D01*
X139338Y107197D01*
X139070Y107308D01*
X137884D01*
Y112770D01*
X137818Y113102D01*
X137630Y113383D01*
X131363Y119651D01*
X131081Y119839D01*
X130750Y119904D01*
X124395D01*
X124216Y119978D01*
D02*
G37*
G36*
X141640Y120565D02*
X141266D01*
X140921Y120422D01*
X140656Y120158D01*
X140513Y119812D01*
Y119534D01*
X139498Y118519D01*
X139308Y118060D01*
Y113977D01*
X139498Y113518D01*
X141047Y111969D01*
Y108277D01*
X140899Y108129D01*
X140756Y107783D01*
Y107409D01*
X140899Y107063D01*
X141164Y106799D01*
X141510Y106655D01*
X141884D01*
X142229Y106799D01*
X142494Y107063D01*
X142637Y107409D01*
Y107783D01*
X142494Y108129D01*
X142346Y108277D01*
Y112238D01*
X142156Y112697D01*
X140607Y114246D01*
Y117791D01*
X141500Y118684D01*
X141640D01*
X141986Y118827D01*
X142251Y119092D01*
X142394Y119438D01*
Y119812D01*
X142251Y120158D01*
X141986Y120422D01*
X141640Y120565D01*
D02*
G37*
G36*
X88467Y106262D02*
X88093D01*
X87747Y106118D01*
X87483Y105854D01*
X87339Y105508D01*
Y105134D01*
X87483Y104788D01*
X87747Y104524D01*
X88093Y104380D01*
X88467D01*
X88813Y104524D01*
X89077Y104788D01*
X89220Y105134D01*
Y105508D01*
X89077Y105854D01*
X88813Y106118D01*
X88467Y106262D01*
D02*
G37*
G36*
X90939Y105581D02*
X90565D01*
X90219Y105438D01*
X89955Y105173D01*
X89811Y104827D01*
Y104453D01*
X89955Y104107D01*
X90219Y103843D01*
X90565Y103700D01*
X90939D01*
X91285Y103843D01*
X91549Y104107D01*
X91693Y104453D01*
Y104827D01*
X91549Y105173D01*
X91285Y105438D01*
X90939Y105581D01*
D02*
G37*
G36*
X65601Y127582D02*
X65227D01*
X64882Y127439D01*
X64617Y127174D01*
X64474Y126828D01*
Y126454D01*
X64548Y126276D01*
Y114501D01*
X58949Y108902D01*
X58771Y108828D01*
X58506Y108564D01*
X58363Y108218D01*
Y107844D01*
X58506Y107498D01*
X58771Y107234D01*
X59117Y107090D01*
X59491D01*
X59836Y107234D01*
X60101Y107498D01*
X60175Y107677D01*
X65884Y113386D01*
X66384Y113184D01*
Y110247D01*
X66450Y109915D01*
X66638Y109634D01*
X72587Y103685D01*
X72661Y103507D01*
X72925Y103242D01*
X73271Y103099D01*
X73645D01*
X73991Y103242D01*
X74255Y103507D01*
X74398Y103852D01*
Y104227D01*
X74255Y104572D01*
X73991Y104837D01*
X73812Y104911D01*
X68118Y110605D01*
Y126216D01*
X68191Y126395D01*
Y126769D01*
X68048Y127114D01*
X67784Y127379D01*
X67438Y127522D01*
X67064D01*
X66718Y127379D01*
X66683Y127344D01*
X66295Y127204D01*
X66036Y127350D01*
X65947Y127439D01*
X65601Y127582D01*
D02*
G37*
G36*
X124314Y80642D02*
X123940D01*
X123594Y80499D01*
X123330Y80234D01*
X123186Y79888D01*
Y79514D01*
X123330Y79168D01*
X123594Y78904D01*
X123940Y78761D01*
X124314D01*
X124660Y78904D01*
X124924Y79168D01*
X125067Y79514D01*
Y79888D01*
X124924Y80234D01*
X124660Y80499D01*
X124314Y80642D01*
D02*
G37*
G36*
X119296Y76196D02*
X118921D01*
X118576Y76053D01*
X118535Y76012D01*
X118235Y75827D01*
X117882Y76012D01*
X117866Y76028D01*
X117520Y76171D01*
X117146D01*
X116800Y76028D01*
X116536Y75763D01*
X116393Y75417D01*
Y75043D01*
X116536Y74698D01*
X116800Y74433D01*
X117146Y74290D01*
X117520D01*
X117866Y74433D01*
X117907Y74474D01*
X118206Y74658D01*
X118560Y74474D01*
X118576Y74458D01*
X118921Y74315D01*
X119296D01*
X119641Y74458D01*
X119906Y74722D01*
X120049Y75068D01*
Y75442D01*
X119906Y75788D01*
X119641Y76053D01*
X119296Y76196D01*
D02*
G37*
G36*
X132804Y76147D02*
X132430D01*
X132084Y76004D01*
X131820Y75739D01*
X131676Y75394D01*
Y75020D01*
X131820Y74674D01*
X132084Y74409D01*
X132430Y74266D01*
X132804D01*
X133150Y74409D01*
X133414Y74674D01*
X133558Y75020D01*
Y75394D01*
X133414Y75739D01*
X133150Y76004D01*
X132804Y76147D01*
D02*
G37*
G36*
X127393Y75795D02*
X127019D01*
X126673Y75652D01*
X126409Y75387D01*
X126266Y75042D01*
Y74668D01*
X126409Y74322D01*
X126673Y74057D01*
X127019Y73914D01*
X127393D01*
X127739Y74057D01*
X128004Y74322D01*
X128147Y74668D01*
Y75042D01*
X128004Y75387D01*
X127739Y75652D01*
X127393Y75795D01*
D02*
G37*
G36*
X136087Y66040D02*
X135713D01*
X135367Y65897D01*
X135199Y65729D01*
X134900Y65672D01*
X134601Y65729D01*
X134433Y65897D01*
X134087Y66040D01*
X133713D01*
X133367Y65897D01*
X133270Y65800D01*
X132950Y65687D01*
X132631Y65800D01*
X132533Y65897D01*
X132187Y66040D01*
X131813D01*
X131467Y65897D01*
X131203Y65633D01*
X131059Y65287D01*
Y64913D01*
X131203Y64567D01*
X131232Y64538D01*
X131192Y64498D01*
X131049Y64152D01*
Y63778D01*
X131192Y63433D01*
X131457Y63168D01*
X131802Y63025D01*
X132177D01*
X132522Y63168D01*
X132623Y63269D01*
X132920Y63390D01*
X133265Y63279D01*
X133351Y63194D01*
X133696Y63050D01*
X134071D01*
X134416Y63194D01*
X134588Y63365D01*
X134943Y63399D01*
X135176Y63347D01*
X135372Y63151D01*
X135718Y63008D01*
X136092D01*
X136438Y63151D01*
X136703Y63415D01*
X136846Y63761D01*
Y64135D01*
X136703Y64481D01*
X136657Y64527D01*
X136697Y64567D01*
X136841Y64913D01*
Y65287D01*
X136697Y65633D01*
X136433Y65897D01*
X136087Y66040D01*
D02*
G37*
G36*
X108372Y59940D02*
X108290D01*
X108208Y59933D01*
X108127Y59919D01*
X108048Y59898D01*
X107990Y59877D01*
X107952Y59861D01*
X107896Y59835D01*
X107825Y59794D01*
X107758Y59747D01*
X107701Y59700D01*
X107566Y59565D01*
X107430Y59700D01*
X107373Y59747D01*
X107306Y59794D01*
X107235Y59835D01*
X107179Y59861D01*
X107141Y59877D01*
X107083Y59898D01*
X107004Y59919D01*
X106923Y59933D01*
X106841Y59940D01*
X106759D01*
X106677Y59933D01*
X106596Y59919D01*
X106517Y59898D01*
X106459Y59877D01*
X106421Y59861D01*
X106365Y59835D01*
X106294Y59794D01*
X106227Y59747D01*
X106164Y59694D01*
X106106Y59636D01*
X106053Y59573D01*
X106006Y59506D01*
X105965Y59435D01*
X105939Y59379D01*
X105923Y59341D01*
X105902Y59283D01*
X105881Y59204D01*
X105867Y59123D01*
X105859Y59041D01*
Y58959D01*
X105867Y58877D01*
X105881Y58796D01*
X105902Y58717D01*
X105923Y58659D01*
X105939Y58621D01*
X105965Y58565D01*
X106006Y58494D01*
X106035Y58453D01*
X106032Y58438D01*
X106267Y58203D01*
X106613Y58060D01*
X106987D01*
X107333Y58203D01*
X107566Y58435D01*
X107798Y58203D01*
X108144Y58060D01*
X108518D01*
X108864Y58203D01*
X109099Y58438D01*
X109097Y58453D01*
X109125Y58494D01*
X109166Y58565D01*
X109192Y58621D01*
X109208Y58659D01*
X109229Y58717D01*
X109250Y58796D01*
X109265Y58877D01*
X109272Y58959D01*
Y59041D01*
X109265Y59123D01*
X109250Y59204D01*
X109229Y59283D01*
X109208Y59341D01*
X109192Y59379D01*
X109166Y59435D01*
X109125Y59506D01*
X109078Y59573D01*
X109025Y59636D01*
X108967Y59694D01*
X108904Y59747D01*
X108837Y59794D01*
X108766Y59835D01*
X108710Y59861D01*
X108672Y59877D01*
X108614Y59898D01*
X108535Y59919D01*
X108454Y59933D01*
X108372Y59940D01*
D02*
G37*
G36*
X80663Y59696D02*
X80580D01*
X80499Y59688D01*
X80418Y59674D01*
X80338Y59653D01*
X80281Y59632D01*
X80243Y59616D01*
X80187Y59590D01*
X80116Y59549D01*
X80048Y59502D01*
X79991Y59455D01*
X79856Y59320D01*
X79721Y59455D01*
X79663Y59502D01*
X79596Y59549D01*
X79525Y59590D01*
X79470Y59616D01*
X79431Y59632D01*
X79374Y59653D01*
X79294Y59674D01*
X79213Y59688D01*
X79132Y59696D01*
X79049D01*
X78967Y59688D01*
X78887Y59674D01*
X78807Y59653D01*
X78750Y59632D01*
X78711Y59616D01*
X78656Y59590D01*
X78585Y59549D01*
X78517Y59502D01*
X78454Y59449D01*
X78396Y59391D01*
X78343Y59328D01*
X78296Y59261D01*
X78255Y59190D01*
X78229Y59134D01*
X78214Y59096D01*
X78193Y59038D01*
X78171Y58959D01*
X78157Y58878D01*
X78150Y58796D01*
Y58714D01*
X78157Y58632D01*
X78171Y58551D01*
X78193Y58472D01*
X78214Y58414D01*
X78229Y58376D01*
X78255Y58320D01*
X78296Y58249D01*
X78343Y58182D01*
X78396Y58119D01*
X78558Y57958D01*
X78903Y57814D01*
X79277D01*
X79623Y57958D01*
X79856Y58190D01*
X80089Y57958D01*
X80434Y57814D01*
X80809D01*
X81154Y57958D01*
X81262Y58065D01*
X81316Y58119D01*
D01*
X81368Y58182D01*
X81415Y58249D01*
X81457Y58320D01*
X81483Y58376D01*
X81498Y58414D01*
X81519Y58472D01*
X81541Y58551D01*
X81555Y58632D01*
X81562Y58714D01*
Y58796D01*
X81555Y58878D01*
X81541Y58959D01*
X81519Y59038D01*
X81498Y59096D01*
X81483Y59134D01*
X81457Y59190D01*
X81415Y59261D01*
X81368Y59328D01*
X81316Y59391D01*
X81258Y59449D01*
X81195Y59502D01*
X81127Y59549D01*
X81056Y59590D01*
X81001Y59616D01*
X80962Y59632D01*
X80905Y59653D01*
X80825Y59674D01*
X80744Y59688D01*
X80663Y59696D01*
D02*
G37*
G36*
X118804Y60952D02*
X118430D01*
X118084Y60808D01*
X117819Y60544D01*
X117676Y60198D01*
Y59824D01*
X117819Y59478D01*
X118084Y59214D01*
X118430Y59070D01*
X118804D01*
X119150Y59214D01*
X119414Y59478D01*
X119557Y59824D01*
Y60198D01*
X119414Y60544D01*
X119150Y60808D01*
X118804Y60952D01*
D02*
G37*
G36*
X61560Y62815D02*
X60560D01*
X59635Y62432D01*
X58928Y61725D01*
X58545Y60800D01*
Y59800D01*
X58928Y58875D01*
X59635Y58168D01*
X60560Y57785D01*
X61560D01*
X62485Y58168D01*
X63192Y58875D01*
X63575Y59800D01*
Y60800D01*
X63192Y61725D01*
X62485Y62432D01*
X61560Y62815D01*
D02*
G37*
G36*
X118755Y57951D02*
X118381D01*
X118035Y57807D01*
X117771Y57543D01*
X117628Y57197D01*
Y56823D01*
X117771Y56477D01*
X118035Y56213D01*
X118381Y56069D01*
X118755D01*
X119101Y56213D01*
X119366Y56477D01*
X119509Y56823D01*
Y57197D01*
X119366Y57543D01*
X119101Y57807D01*
X118755Y57951D01*
D02*
G37*
G36*
X118745Y54823D02*
X118371D01*
X118025Y54680D01*
X117760Y54415D01*
X117617Y54070D01*
Y53695D01*
X117760Y53350D01*
X118025Y53085D01*
X118371Y52942D01*
X118745D01*
X119090Y53085D01*
X119355Y53350D01*
X119498Y53695D01*
Y54070D01*
X119355Y54415D01*
X119090Y54680D01*
X118745Y54823D01*
D02*
G37*
G36*
X105318Y46941D02*
X104944D01*
X104598Y46797D01*
X104366Y46565D01*
X104133Y46797D01*
X103787Y46941D01*
X103413D01*
X103067Y46797D01*
X102803Y46533D01*
X102659Y46187D01*
Y45813D01*
X102803Y45467D01*
X103067Y45203D01*
X103413Y45059D01*
X103787D01*
X104133Y45203D01*
X104366Y45435D01*
X104598Y45203D01*
X104944Y45059D01*
X105318D01*
X105664Y45203D01*
X105929Y45467D01*
X106072Y45813D01*
Y46187D01*
X105929Y46533D01*
X105664Y46797D01*
X105318Y46941D01*
D02*
G37*
G36*
X99418D02*
X99044D01*
X98698Y46797D01*
X98466Y46565D01*
X98233Y46797D01*
X97887Y46941D01*
X97513D01*
X97167Y46797D01*
X96903Y46533D01*
X96759Y46187D01*
Y45813D01*
X96903Y45467D01*
X97167Y45203D01*
X97513Y45059D01*
X97887D01*
X98233Y45203D01*
X98466Y45435D01*
X98698Y45203D01*
X99044Y45059D01*
X99418D01*
X99764Y45203D01*
X100029Y45467D01*
X100172Y45813D01*
Y46187D01*
X100029Y46533D01*
X99764Y46797D01*
X99418Y46941D01*
D02*
G37*
G36*
X93518D02*
X93144D01*
X92798Y46797D01*
X92566Y46565D01*
X92333Y46797D01*
X91987Y46941D01*
X91613D01*
X91267Y46797D01*
X91003Y46533D01*
X90860Y46187D01*
Y45813D01*
X91003Y45467D01*
X91267Y45203D01*
X91613Y45059D01*
X91987D01*
X92333Y45203D01*
X92566Y45435D01*
X92798Y45203D01*
X93144Y45059D01*
X93518D01*
X93864Y45203D01*
X94129Y45467D01*
X94272Y45813D01*
Y46187D01*
X94129Y46533D01*
X93864Y46797D01*
X93518Y46941D01*
D02*
G37*
G36*
X81718D02*
X81344D01*
X80998Y46797D01*
X80765Y46565D01*
X80533Y46797D01*
X80187Y46941D01*
X79813D01*
X79467Y46797D01*
X79203Y46533D01*
X79059Y46187D01*
Y45813D01*
X79203Y45467D01*
X79467Y45203D01*
X79813Y45059D01*
X80187D01*
X80533Y45203D01*
X80765Y45435D01*
X80998Y45203D01*
X81344Y45059D01*
X81718D01*
X82064Y45203D01*
X82328Y45467D01*
X82472Y45813D01*
Y46187D01*
X82328Y46533D01*
X82064Y46797D01*
X81718Y46941D01*
D02*
G37*
G36*
X75787D02*
X75413D01*
X75067Y46797D01*
X74835Y46565D01*
X74602Y46797D01*
X74256Y46941D01*
X73882D01*
X73536Y46797D01*
X73272Y46533D01*
X73128Y46187D01*
Y45813D01*
X73272Y45467D01*
X73536Y45203D01*
X73882Y45059D01*
X74256D01*
X74602Y45203D01*
X74835Y45435D01*
X75067Y45203D01*
X75413Y45059D01*
X75787D01*
X76133Y45203D01*
X76397Y45467D01*
X76540Y45813D01*
Y46187D01*
X76397Y46533D01*
X76133Y46797D01*
X75787Y46941D01*
D02*
G37*
G36*
X69918D02*
X69544D01*
X69198Y46797D01*
X68966Y46565D01*
X68733Y46797D01*
X68387Y46941D01*
X68013D01*
X67667Y46797D01*
X67403Y46533D01*
X67260Y46187D01*
Y45813D01*
X67403Y45467D01*
X67667Y45203D01*
X68013Y45059D01*
X68387D01*
X68733Y45203D01*
X68966Y45435D01*
X69198Y45203D01*
X69544Y45059D01*
X69918D01*
X70264Y45203D01*
X70529Y45467D01*
X70672Y45813D01*
Y46187D01*
X70529Y46533D01*
X70264Y46797D01*
X69918Y46941D01*
D02*
G37*
G36*
X117094Y46481D02*
X116720D01*
X116374Y46338D01*
X116141Y46105D01*
X115909Y46338D01*
X115563Y46481D01*
X115189D01*
X114843Y46338D01*
X114578Y46073D01*
X114435Y45728D01*
Y45353D01*
X114578Y45008D01*
X114843Y44743D01*
X115189Y44600D01*
X115563D01*
X115909Y44743D01*
X116141Y44976D01*
X116374Y44743D01*
X116720Y44600D01*
X117094D01*
X117440Y44743D01*
X117704Y45008D01*
X117847Y45353D01*
Y45728D01*
X117704Y46073D01*
X117440Y46338D01*
X117094Y46481D01*
D02*
G37*
G36*
X94922Y43326D02*
X90193D01*
Y36485D01*
X94922D01*
Y43326D01*
D02*
G37*
G36*
X118544Y43326D02*
X113815D01*
Y36485D01*
X118544D01*
Y43326D01*
D02*
G37*
G36*
X112638D02*
X107910D01*
Y36485D01*
X112638D01*
Y43326D01*
D02*
G37*
G36*
X106732D02*
X102004D01*
Y36485D01*
X106732D01*
Y43326D01*
D02*
G37*
G36*
X100827D02*
X96099D01*
Y36485D01*
X100827D01*
Y43326D01*
D02*
G37*
G36*
X89016D02*
X84288D01*
Y36485D01*
X89016D01*
Y43326D01*
D02*
G37*
G36*
X83110D02*
X78382D01*
Y36485D01*
X83110D01*
Y43326D01*
D02*
G37*
G36*
X77205D02*
X72477D01*
Y36485D01*
X77205D01*
Y43326D01*
D02*
G37*
G36*
X71299D02*
X66571D01*
Y36485D01*
X71299D01*
Y43326D01*
D02*
G37*
%LPD*%
G36*
X140600Y105400D02*
Y84400D01*
X139700Y83500D01*
X130429D01*
X130367Y83562D01*
X130022Y83705D01*
X129647D01*
X129302Y83562D01*
X129239Y83500D01*
X122487D01*
X121073Y84914D01*
Y89095D01*
X118514Y91654D01*
Y95050D01*
X118920Y95169D01*
X119014Y95174D01*
X119261Y94927D01*
X119607Y94784D01*
X119981D01*
X120327Y94927D01*
X120591Y95192D01*
X120734Y95538D01*
Y95912D01*
X120591Y96258D01*
X120327Y96522D01*
X119981Y96665D01*
X119607D01*
X119261Y96522D01*
X119014Y96275D01*
X118920Y96280D01*
X118514Y96400D01*
Y97609D01*
X118920Y97728D01*
X119014Y97733D01*
X119261Y97486D01*
X119607Y97343D01*
X119981D01*
X120327Y97486D01*
X120591Y97751D01*
X120734Y98097D01*
Y98471D01*
X120591Y98817D01*
X120327Y99081D01*
X119981Y99224D01*
X119607D01*
X119261Y99081D01*
X119014Y98834D01*
X118920Y98839D01*
X118514Y98959D01*
Y100168D01*
X118920Y100287D01*
X119014Y100292D01*
X119261Y100046D01*
X119607Y99902D01*
X119981D01*
X120327Y100046D01*
X120591Y100310D01*
X120734Y100656D01*
Y101030D01*
X120591Y101376D01*
X120327Y101640D01*
X119981Y101783D01*
X119607D01*
X119261Y101640D01*
X118996Y101376D01*
X118925Y101203D01*
X118399Y101111D01*
X118388Y101113D01*
X117473Y102028D01*
X114477D01*
X113396Y103109D01*
Y105945D01*
X114381Y106930D01*
X118725D01*
X118864Y106706D01*
X118970Y106430D01*
X118853Y106148D01*
Y105774D01*
X118996Y105428D01*
X119261Y105164D01*
X119607Y105020D01*
X119981D01*
X120327Y105164D01*
X120591Y105428D01*
X120734Y105774D01*
Y106148D01*
X120618Y106430D01*
X120723Y106706D01*
X120862Y106930D01*
X128656D01*
X128954Y106430D01*
X128912Y106330D01*
Y105956D01*
X129056Y105610D01*
X129320Y105345D01*
X129666Y105202D01*
X130040D01*
X130386Y105345D01*
X130650Y105610D01*
X130793Y105956D01*
Y106330D01*
X130752Y106430D01*
X131049Y106930D01*
X139070D01*
X140600Y105400D01*
D02*
G37*
G36*
X110264Y106826D02*
Y105069D01*
X109456Y104262D01*
X102263D01*
X102067Y104342D01*
X101693D01*
X101498Y104262D01*
X101457D01*
X101427Y104232D01*
X101348Y104199D01*
X101083Y103935D01*
X101050Y103855D01*
X100693Y103498D01*
Y87496D01*
X101357Y86831D01*
X101348Y86310D01*
X101339Y86278D01*
X101083Y86021D01*
X100940Y85676D01*
Y85302D01*
X101083Y84956D01*
X101348Y84691D01*
X101693Y84548D01*
X102067D01*
X102413Y84691D01*
X102678Y84956D01*
X102821Y85302D01*
Y85676D01*
X102678Y86021D01*
X102472Y86227D01*
X102519Y86505D01*
X102626Y86727D01*
X107170D01*
X108014Y85883D01*
Y82430D01*
X107342Y81758D01*
X102716Y81758D01*
X102539Y82258D01*
X102678Y82397D01*
X102821Y82742D01*
Y83117D01*
X102678Y83462D01*
X102413Y83727D01*
X102067Y83870D01*
X101693D01*
X101348Y83727D01*
X101083Y83462D01*
X101007Y83280D01*
X100553Y83050D01*
X100440Y83031D01*
X100262Y83117D01*
X100119Y83462D01*
X99854Y83727D01*
X99509Y83870D01*
X99332D01*
X97787Y85415D01*
Y107377D01*
X100256Y109846D01*
X107098D01*
X107244Y109847D01*
X110264Y106826D01*
D02*
G37*
G36*
X111561Y101716D02*
X111566Y101622D01*
X111319Y101376D01*
X111176Y101030D01*
Y100656D01*
X111319Y100310D01*
X111584Y100046D01*
X111930Y99902D01*
X112304D01*
X112649Y100046D01*
X112914Y100310D01*
X113057Y100656D01*
Y100802D01*
X113557Y101010D01*
X115407Y99159D01*
X117523D01*
X118102Y98581D01*
Y82601D01*
X117461Y81961D01*
X111765D01*
X111176Y82550D01*
Y86577D01*
X110443Y87310D01*
X110472Y87798D01*
X110498Y87861D01*
Y88235D01*
X110355Y88580D01*
X110090Y88845D01*
X109745Y88988D01*
X109371D01*
X109025Y88845D01*
X108760Y88580D01*
X108617Y88235D01*
Y87861D01*
X108639Y87807D01*
X108315Y87307D01*
X103827Y87301D01*
X103413Y87715D01*
Y100940D01*
X104596Y102122D01*
X111442D01*
X111561Y101716D01*
D02*
G37*
G36*
X77980Y94827D02*
X78426Y94528D01*
X78953Y94424D01*
X91600D01*
X92127Y94528D01*
X92573Y94827D01*
X96908Y99161D01*
X97408Y98954D01*
Y85415D01*
X97519Y85147D01*
X99064Y83602D01*
X99332Y83491D01*
X99433D01*
X99640Y83406D01*
X99798Y83248D01*
X99912Y82972D01*
X100007Y82876D01*
X100097Y82775D01*
X100275Y82689D01*
X100391Y82683D01*
X100504Y82657D01*
X100617Y82677D01*
X100666Y82708D01*
X100723Y82712D01*
X101178Y82942D01*
X101264Y83042D01*
X101357Y83135D01*
X101404Y83248D01*
X101562Y83406D01*
X101769Y83491D01*
X101992D01*
X102199Y83406D01*
X102357Y83248D01*
X102442Y83041D01*
Y82818D01*
X102357Y82611D01*
X102271Y82526D01*
X102246Y82465D01*
X102197Y82420D01*
X102192Y82336D01*
X102160Y82258D01*
X102185Y82197D01*
X102182Y82131D01*
X102359Y81631D01*
X102416Y81568D01*
X102448Y81490D01*
X102509Y81465D01*
X102553Y81416D01*
X102638Y81411D01*
X102716Y81379D01*
X103843D01*
X104035Y80917D01*
X102995Y79877D01*
X83169D01*
X70788Y92259D01*
X70862Y92634D01*
Y99268D01*
X73539D01*
X77980Y94827D01*
D02*
G37*
G36*
X66772Y90939D02*
X67550Y90420D01*
X68466Y90238D01*
X68841Y90312D01*
X81626Y77528D01*
X82072Y77229D01*
X82599Y77125D01*
X103566D01*
X104092Y77229D01*
X104539Y77528D01*
X107972Y80961D01*
X108270Y81407D01*
X108375Y81934D01*
Y82387D01*
X108393Y82430D01*
Y85883D01*
X108282Y86151D01*
X107967Y86466D01*
X108158Y86928D01*
X108316Y86928D01*
X108354Y86944D01*
X108394Y86936D01*
X108483Y86998D01*
X108583Y87039D01*
X108599Y87077D01*
X108633Y87101D01*
X108957Y87601D01*
X108964Y87637D01*
X108989Y87662D01*
X108989Y87775D01*
X109010Y87887D01*
X108996Y87906D01*
Y88159D01*
X109081Y88366D01*
X109239Y88524D01*
X109446Y88609D01*
X109669D01*
X109876Y88524D01*
X110034Y88366D01*
X110119Y88159D01*
Y87872D01*
X110094Y87820D01*
X110065Y87332D01*
X110069Y87321D01*
X110065Y87310D01*
X110116Y87185D01*
X110160Y87058D01*
X110171Y87053D01*
X110176Y87042D01*
X110797Y86420D01*
Y82550D01*
X110908Y82282D01*
X111000Y82190D01*
Y79610D01*
X105146Y73756D01*
X70284D01*
X66113Y77927D01*
Y91026D01*
X66613Y91178D01*
X66772Y90939D01*
D02*
G37*
%LPC*%
G36*
X119981Y104342D02*
X119607D01*
X119261Y104199D01*
X118996Y103935D01*
X118853Y103589D01*
Y103215D01*
X118996Y102869D01*
X119261Y102604D01*
X119607Y102461D01*
X119981D01*
X120327Y102604D01*
X120591Y102869D01*
X120734Y103215D01*
Y103589D01*
X120591Y103935D01*
X120327Y104199D01*
X119981Y104342D01*
D02*
G37*
G36*
X124677Y96295D02*
X124303D01*
X123958Y96152D01*
X123693Y95888D01*
X123550Y95542D01*
Y95168D01*
X123693Y94822D01*
X123958Y94557D01*
X124303Y94414D01*
X124677D01*
X125023Y94557D01*
X125288Y94822D01*
X125431Y95168D01*
Y95542D01*
X125288Y95888D01*
X125023Y96152D01*
X124677Y96295D01*
D02*
G37*
G36*
X130022Y90949D02*
X129647D01*
X129302Y90806D01*
X129037Y90542D01*
X128894Y90196D01*
Y89822D01*
X129037Y89476D01*
X129302Y89211D01*
X129647Y89068D01*
X130022D01*
X130367Y89211D01*
X130632Y89476D01*
X130775Y89822D01*
Y90196D01*
X130632Y90542D01*
X130367Y90806D01*
X130022Y90949D01*
D02*
G37*
G36*
X112304Y96665D02*
X111930D01*
X111584Y96522D01*
X111319Y96258D01*
X111176Y95912D01*
Y95538D01*
X111319Y95192D01*
X111584Y94927D01*
X111930Y94784D01*
X112304D01*
X112649Y94927D01*
X112914Y95192D01*
X113057Y95538D01*
Y95912D01*
X112914Y96258D01*
X112649Y96522D01*
X112304Y96665D01*
D02*
G37*
G36*
Y94106D02*
X111930D01*
X111584Y93963D01*
X111319Y93699D01*
X111176Y93353D01*
Y92979D01*
X111319Y92633D01*
X111584Y92368D01*
X111930Y92225D01*
X112304D01*
X112649Y92368D01*
X112914Y92633D01*
X113057Y92979D01*
Y93353D01*
X112914Y93699D01*
X112649Y93963D01*
X112304Y94106D01*
D02*
G37*
G36*
X109745Y91547D02*
X109371D01*
X109025Y91404D01*
X108760Y91139D01*
X108617Y90794D01*
Y90420D01*
X108760Y90074D01*
X109025Y89809D01*
X109371Y89666D01*
X109745D01*
X110090Y89809D01*
X110355Y90074D01*
X110498Y90420D01*
Y90794D01*
X110355Y91139D01*
X110090Y91404D01*
X109745Y91547D01*
D02*
G37*
%LPD*%
D15*
X59187Y133846D02*
X62677Y130355D01*
X59187Y133846D02*
Y136172D01*
X65414Y114142D02*
Y126641D01*
X59304Y108031D02*
X65414Y114142D01*
X137013Y100767D02*
X137508Y100272D01*
Y75938D02*
Y100272D01*
X123231Y61661D02*
X137508Y75938D01*
X62677Y130355D02*
Y130355D01*
Y130355D02*
X71151D01*
X67251Y110247D02*
Y126582D01*
Y110247D02*
X73458Y104040D01*
X137013Y100767D02*
Y100816D01*
X137017Y105662D02*
Y112770D01*
X124029Y119038D02*
X130750D01*
X137017Y112770D01*
D67*
X63717Y76935D02*
X69292Y71359D01*
X63717Y76935D02*
Y101321D01*
X69292Y71359D02*
X106138D01*
X68436Y100003D02*
X68466Y99973D01*
Y92634D02*
Y99973D01*
X106138Y71359D02*
X113396Y78617D01*
X68436Y100003D02*
Y101285D01*
X68492Y101340D01*
X113396Y78617D02*
Y82945D01*
D68*
X139957Y118060D02*
X141453Y119556D01*
Y119625D01*
X139957Y113977D02*
Y118060D01*
Y113977D02*
X141697Y112238D01*
Y107596D02*
Y112238D01*
X119278Y113752D02*
Y117578D01*
X132400Y130700D01*
Y132144D01*
D70*
Y133831D01*
X110179Y153521D02*
X119779D01*
X132413Y140887D01*
X95671Y146701D02*
X105453D01*
X105498Y146656D02*
X105498D01*
X110100Y153600D02*
X110179Y153521D01*
X82599Y78501D02*
X103566D01*
X68466Y92634D02*
X82599Y78501D01*
X103566D02*
X106999Y81934D01*
Y82929D01*
X68436Y100644D02*
X74109D01*
X78953Y95800D01*
X91600D01*
X96600Y100800D01*
X99278D01*
X99321Y100843D01*
X132400Y133831D02*
X132413Y133844D01*
Y135383D01*
Y140887D01*
D74*
X131892Y157526D02*
D03*
X68900D02*
D03*
D75*
X83604Y141165D02*
D03*
X117619D02*
D03*
D76*
Y162267D02*
D03*
X83604Y162267D02*
D03*
D79*
X141453Y119625D02*
D03*
X141697Y107596D02*
D03*
X130961Y45591D02*
D03*
X136854Y45618D02*
D03*
X134887Y45557D02*
D03*
X132900Y45600D02*
D03*
X63500Y42800D02*
D03*
X71877Y42607D02*
D03*
X77800Y42600D02*
D03*
X83700D02*
D03*
X89600D02*
D03*
X95500D02*
D03*
X107314Y42553D02*
D03*
X101400Y42600D02*
D03*
X119600Y43300D02*
D03*
X112638Y43326D02*
D03*
X59719Y96758D02*
D03*
X59400Y95000D02*
D03*
X59187Y136172D02*
D03*
X59196Y111341D02*
D03*
X59304Y108031D02*
D03*
X133600Y143800D02*
D03*
X133500Y145500D02*
D03*
X60600Y79700D02*
D03*
X60500Y75200D02*
D03*
X60600Y87300D02*
D03*
X132444Y132175D02*
D03*
X127900Y129500D02*
D03*
X105500Y156920D02*
D03*
X102125D02*
D03*
X92000D02*
D03*
X95665Y146707D02*
D03*
X95600Y156920D02*
D03*
X88407Y144669D02*
D03*
X98925Y156920D02*
D03*
X111612Y153540D02*
D03*
X105498Y146656D02*
D03*
X112817Y144669D02*
D03*
X110100Y153600D02*
D03*
X109100Y156920D02*
D03*
X66343Y132865D02*
D03*
X66222Y134273D02*
D03*
X125548Y74638D02*
D03*
X88300Y74300D02*
D03*
X83100D02*
D03*
X90510Y102089D02*
D03*
X77515Y127864D02*
D03*
X75800Y95100D02*
D03*
X69100Y87300D02*
D03*
X67200Y79200D02*
D03*
X60600Y70700D02*
D03*
X67700Y84000D02*
D03*
X62677Y130355D02*
D03*
X65414Y126641D02*
D03*
X66243Y140962D02*
D03*
X66251Y142237D02*
D03*
X66907Y138830D02*
D03*
X67251Y126582D02*
D03*
X67644Y134301D02*
D03*
X67677Y132794D02*
D03*
X67715Y140936D02*
D03*
X67723Y142203D02*
D03*
X71151Y130355D02*
D03*
X72973Y111241D02*
D03*
X68492Y101340D02*
D03*
X62404Y101284D02*
D03*
X62423Y99834D02*
D03*
X63708Y99820D02*
D03*
X63717Y101321D02*
D03*
X64966Y99838D02*
D03*
X64978Y101254D02*
D03*
X67242Y100065D02*
D03*
Y101374D02*
D03*
X68475Y100124D02*
D03*
X69699Y100000D02*
D03*
X69699Y101323D02*
D03*
X73458Y104040D02*
D03*
X78300Y79000D02*
D03*
X81700Y83000D02*
D03*
X74000Y83300D02*
D03*
X77600Y86900D02*
D03*
X80800Y88200D02*
D03*
X78800Y93200D02*
D03*
X81600Y98100D02*
D03*
X86400Y80691D02*
D03*
X90756Y81438D02*
D03*
X99321Y82929D02*
D03*
X84600Y84500D02*
D03*
X88000Y85100D02*
D03*
X99321Y85488D02*
D03*
X95778Y85528D02*
D03*
X99321Y88048D02*
D03*
X88500Y88800D02*
D03*
X84700D02*
D03*
X95778Y89095D02*
D03*
X99321Y90607D02*
D03*
X95778Y92662D02*
D03*
X99321Y93166D02*
D03*
X87300Y93500D02*
D03*
X83600Y93600D02*
D03*
X90804Y93635D02*
D03*
X99321Y95725D02*
D03*
X95872Y96227D02*
D03*
X90516Y98020D02*
D03*
X87500Y98100D02*
D03*
X84727Y98196D02*
D03*
X99321Y98284D02*
D03*
X102475Y80691D02*
D03*
X101880Y82929D02*
D03*
X109558D02*
D03*
X104439D02*
D03*
X106999D02*
D03*
X112117D02*
D03*
X106999Y85488D02*
D03*
X109558D02*
D03*
X104439D02*
D03*
X112117D02*
D03*
X109558Y88048D02*
D03*
X106999D02*
D03*
X104439D02*
D03*
X101880D02*
D03*
X112117D02*
D03*
X106999Y90607D02*
D03*
X101880D02*
D03*
X104439D02*
D03*
X112117D02*
D03*
X101880Y93166D02*
D03*
X106999D02*
D03*
X109558D02*
D03*
X104439D02*
D03*
X101880Y95725D02*
D03*
X106999D02*
D03*
X109558D02*
D03*
X104439D02*
D03*
X109558Y98284D02*
D03*
X106999D02*
D03*
X119794Y82929D02*
D03*
X117235D02*
D03*
X114676D02*
D03*
Y85488D02*
D03*
X117235D02*
D03*
X122353D02*
D03*
X119794D02*
D03*
Y88048D02*
D03*
X114676D02*
D03*
X117235D02*
D03*
X122353D02*
D03*
X142400Y88200D02*
D03*
Y89800D02*
D03*
X114676Y90607D02*
D03*
X117235D02*
D03*
X122353D02*
D03*
X142391Y91444D02*
D03*
X119794Y93166D02*
D03*
X122353D02*
D03*
X142381Y93166D02*
D03*
X142361Y94907D02*
D03*
X122353Y95725D02*
D03*
X117235Y95725D02*
D03*
X114676D02*
D03*
X122353Y98284D02*
D03*
X99321Y100843D02*
D03*
X76500Y101900D02*
D03*
X80697Y101936D02*
D03*
X87460Y102221D02*
D03*
X85309Y103102D02*
D03*
X99321Y103402D02*
D03*
X75000Y103500D02*
D03*
X78242Y105574D02*
D03*
X99321Y105961D02*
D03*
X95856Y106917D02*
D03*
X75005Y107425D02*
D03*
X81391Y109905D02*
D03*
X91010Y110648D02*
D03*
X74900Y111907D02*
D03*
X85335Y112348D02*
D03*
X89400Y113900D02*
D03*
X82031Y113957D02*
D03*
X78631Y114057D02*
D03*
X87500Y116200D02*
D03*
X85600Y118300D02*
D03*
X84300Y121000D02*
D03*
X94000Y122900D02*
D03*
X99000D02*
D03*
X90000Y123000D02*
D03*
X84500Y123100D02*
D03*
X100000Y124800D02*
D03*
X92800Y125000D02*
D03*
X83365Y125007D02*
D03*
X91265D02*
D03*
X100000Y127000D02*
D03*
X92800Y127100D02*
D03*
X91265Y127107D02*
D03*
X83365Y127407D02*
D03*
X84500Y129000D02*
D03*
X90000Y129100D02*
D03*
X94000D02*
D03*
X99000D02*
D03*
X101880Y100843D02*
D03*
X112117Y103402D02*
D03*
X104439Y98284D02*
D03*
Y100843D02*
D03*
X112117D02*
D03*
X109558D02*
D03*
X109558Y105961D02*
D03*
X101880Y103402D02*
D03*
X112117Y105961D02*
D03*
X104525Y108562D02*
D03*
X106999Y100843D02*
D03*
Y105961D02*
D03*
X107375Y108755D02*
D03*
X114676Y98284D02*
D03*
X117235D02*
D03*
X138928Y100748D02*
D03*
X137013Y100816D02*
D03*
X122353Y100843D02*
D03*
X138936Y102350D02*
D03*
X137030Y102401D02*
D03*
X114676Y103402D02*
D03*
X122353D02*
D03*
X117235D02*
D03*
X138843Y103918D02*
D03*
X136980Y104015D02*
D03*
X137017Y105662D02*
D03*
X138835Y105672D02*
D03*
X114676Y105961D02*
D03*
X119794D02*
D03*
X117235D02*
D03*
X122353D02*
D03*
X119278Y113752D02*
D03*
X128433Y113905D02*
D03*
X107500Y123100D02*
D03*
X102500D02*
D03*
X111400D02*
D03*
X101600Y124800D02*
D03*
X108500Y125100D02*
D03*
X110500D02*
D03*
X101600Y127000D02*
D03*
X108500Y127100D02*
D03*
X110500D02*
D03*
X102500Y129100D02*
D03*
X108000D02*
D03*
X111500D02*
D03*
X116265Y133507D02*
D03*
X109600Y134200D02*
D03*
X102465Y135007D02*
D03*
X115865D02*
D03*
X142022Y114336D02*
D03*
X124029Y119038D02*
D03*
X128779Y120478D02*
D03*
X116500Y123100D02*
D03*
X117500Y124800D02*
D03*
Y127000D02*
D03*
X116500Y129100D02*
D03*
X135959Y133730D02*
D03*
X137821D02*
D03*
X132444Y133831D02*
D03*
X132413Y135383D02*
D03*
X137801Y135481D02*
D03*
X136000Y135500D02*
D03*
X72400Y80100D02*
D03*
X74400Y91900D02*
D03*
X73400Y98600D02*
D03*
X123231Y61661D02*
D03*
X115064Y64499D02*
D03*
X114800Y58700D02*
D03*
X83150Y62865D02*
D03*
Y60565D02*
D03*
X82250Y64565D02*
D03*
X112800Y54300D02*
D03*
X108000Y50100D02*
D03*
X101700Y51300D02*
D03*
X105000Y54600D02*
D03*
X101300Y64400D02*
D03*
X90200Y51500D02*
D03*
X95500D02*
D03*
X95400Y64400D02*
D03*
X90300Y60500D02*
D03*
X90100Y55900D02*
D03*
X90300Y64400D02*
D03*
X79800Y53000D02*
D03*
X87200Y64000D02*
D03*
X87300Y58700D02*
D03*
X86100Y53600D02*
D03*
X72000Y64200D02*
D03*
X71800Y58800D02*
D03*
X67000Y58900D02*
D03*
Y52400D02*
D03*
X66900Y64300D02*
D03*
X63000Y64500D02*
D03*
X114192Y44041D02*
D03*
Y47041D02*
D03*
X118192Y44041D02*
D03*
Y47041D02*
D03*
X76450Y60665D02*
D03*
X76550Y62865D02*
D03*
X76950Y64565D02*
D03*
Y58865D02*
D03*
X82301Y58851D02*
D03*
X101763Y59862D02*
D03*
Y57662D02*
D03*
X95763Y61462D02*
D03*
X101163D02*
D03*
X96070Y55862D02*
D03*
X100963D02*
D03*
X95163Y59862D02*
D03*
Y57662D02*
D03*
X102417Y44500D02*
D03*
Y47500D02*
D03*
X106417Y44500D02*
D03*
Y47500D02*
D03*
X96517Y44500D02*
D03*
Y47500D02*
D03*
X100517Y44500D02*
D03*
Y47500D02*
D03*
X90617Y44500D02*
D03*
Y47500D02*
D03*
X94617Y44500D02*
D03*
Y47500D02*
D03*
X78817Y44500D02*
D03*
Y47500D02*
D03*
X82817Y44500D02*
D03*
Y47500D02*
D03*
X72886Y44500D02*
D03*
Y47500D02*
D03*
X76886Y44500D02*
D03*
Y47500D02*
D03*
X67017Y44500D02*
D03*
Y47500D02*
D03*
X71017Y44500D02*
D03*
Y47500D02*
D03*
X109900Y64853D02*
D03*
X104300Y60953D02*
D03*
X105200Y59153D02*
D03*
X110000D02*
D03*
X110900Y60953D02*
D03*
X104300Y63153D02*
D03*
X105300Y64853D02*
D03*
X110900Y63353D02*
D03*
X72650Y50200D02*
D03*
X71550Y51800D02*
D03*
Y54000D02*
D03*
X72650Y55600D02*
D03*
X77204Y55610D02*
D03*
X78150Y54000D02*
D03*
Y51800D02*
D03*
X77150Y50200D02*
D03*
M02*
