G04*
G04 #@! TF.GenerationSoftware,Altium Limited,Altium Designer,21.2.1 (34)*
G04*
G04 Layer_Color=65535*
%FSLAX25Y25*%
%MOIN*%
G70*
G04*
G04 #@! TF.SameCoordinates,309C0993-0839-4B3B-9E80-2D82E5661E4B*
G04*
G04*
G04 #@! TF.FilePolarity,Positive*
G04*
G01*
G75*
%ADD10C,0.00402*%
%ADD11C,0.00787*%
%ADD12C,0.00984*%
%ADD13C,0.00591*%
%ADD14C,0.00591*%
%ADD15C,0.01000*%
%ADD16C,0.00400*%
%ADD17C,0.00600*%
%ADD18C,0.00394*%
%ADD19C,0.00598*%
G36*
X125335Y68970D02*
X128698D01*
Y70770D01*
X125335D01*
Y68970D01*
D01*
D02*
G37*
G36*
X143465D02*
X140102D01*
Y70770D01*
X143465D01*
Y68970D01*
D01*
D02*
G37*
D10*
X65695Y145291D02*
G03*
X62143Y145297I-1780J-2797D01*
G01*
Y139186D02*
G03*
X65695Y139191I1772J2802D01*
G01*
X58705Y113122D02*
G03*
X58700Y109570I2797J-1780D01*
G01*
X64811D02*
G03*
X64805Y113122I-2802J1772D01*
G01*
X73464Y109461D02*
G03*
X73470Y113013I-2797J1780D01*
G01*
X67359D02*
G03*
X67364Y109461I2802J-1772D01*
G01*
X68243Y139186D02*
G03*
X71795Y139191I1772J2802D01*
G01*
Y145291D02*
G03*
X68243Y145297I-1780J-2797D01*
G01*
X73468Y102681D02*
G03*
X73474Y106233I-2797J1780D01*
G01*
X67363D02*
G03*
X67368Y102681I2802J-1772D01*
G01*
X64793Y105931D02*
G03*
X64787Y109483I-2802J1772D01*
G01*
X58687D02*
G03*
X58682Y105931I2797J-1780D01*
G01*
X87089Y107826D02*
G03*
X83537Y107831I-1780J-2797D01*
G01*
Y101720D02*
G03*
X87089Y101725I1772J2802D01*
G01*
X83529Y107599D02*
G03*
X87081Y107593I1780J2797D01*
G01*
Y113704D02*
G03*
X83529Y113699I-1772J-2802D01*
G01*
X136893Y114751D02*
G03*
X136898Y111199I2802J-1772D01*
G01*
X142998D02*
G03*
X143003Y114751I-2797J1780D01*
G01*
X137104Y128578D02*
G03*
X137110Y132130I-2797J1780D01*
G01*
X130999D02*
G03*
X131005Y128578I2802J-1772D01*
G01*
X142978Y128609D02*
G03*
X142973Y132161I-2802J1772D01*
G01*
X136873D02*
G03*
X136867Y128609I2797J-1780D01*
G01*
X143111Y96150D02*
G03*
X143105Y99702I-2802J1772D01*
G01*
X137005D02*
G03*
X137000Y96150I2797J-1780D01*
G01*
X137008Y80544D02*
G03*
X137003Y76992I2797J-1780D01*
G01*
X143114D02*
G03*
X143108Y80544I-2802J1772D01*
G01*
X136981Y87673D02*
G03*
X136976Y84121I2797J-1780D01*
G01*
X143087D02*
G03*
X143081Y87673I-2802J1772D01*
G01*
X136993Y84106D02*
G03*
X136988Y80554I2797J-1780D01*
G01*
X143099D02*
G03*
X143093Y84106I-2802J1772D01*
G01*
X137017Y76938D02*
G03*
X137011Y73386I2797J-1780D01*
G01*
X143122D02*
G03*
X143117Y76938I-2802J1772D01*
G01*
X65699Y142635D02*
Y145299D01*
X62129Y142635D02*
Y145299D01*
Y139184D02*
Y141848D01*
X65699Y139184D02*
Y141848D01*
X58698Y113126D02*
X61362D01*
X58698Y109556D02*
X61362D01*
X62149D02*
X64813D01*
X62149Y113126D02*
X64813D01*
X70808Y109456D02*
X73472D01*
X70808Y113026D02*
X73472D01*
X67357D02*
X70021D01*
X67357Y109456D02*
X70021D01*
X71799Y139184D02*
Y141848D01*
X68229Y139184D02*
Y141848D01*
Y142635D02*
Y145299D01*
X71799Y142635D02*
Y145299D01*
X70812Y102676D02*
X73476D01*
X70812Y106246D02*
X73476D01*
X67361D02*
X70024D01*
X67361Y102676D02*
X70024D01*
X62131Y109488D02*
X64795D01*
X62131Y105917D02*
X64795D01*
X58680D02*
X61343D01*
X58680Y109488D02*
X61343D01*
X87094Y105169D02*
Y107833D01*
X83524Y105169D02*
Y107833D01*
Y101718D02*
Y104382D01*
X87094Y101718D02*
Y104382D01*
X83524Y107591D02*
Y110255D01*
X87094Y107591D02*
Y110255D01*
Y111042D02*
Y113706D01*
X83524Y111042D02*
Y113706D01*
X136890Y111194D02*
X139554D01*
X136890Y114764D02*
X139554D01*
X140342D02*
X143006D01*
X140342Y111194D02*
X143006D01*
X134448Y128574D02*
X137112D01*
X134448Y132144D02*
X137112D01*
X130997D02*
X133661D01*
X130997Y128574D02*
X133661D01*
X140316Y132166D02*
X142980D01*
X140316Y128595D02*
X142980D01*
X136865D02*
X139529D01*
X136865Y132166D02*
X139529D01*
X140449Y99707D02*
X143113D01*
X140449Y96137D02*
X143113D01*
X136998D02*
X139662D01*
X136998Y99707D02*
X139662D01*
X137001Y80549D02*
X139665D01*
X137001Y76979D02*
X139665D01*
X140452D02*
X143116D01*
X140452Y80549D02*
X143116D01*
X136974Y87678D02*
X139638D01*
X136974Y84108D02*
X139638D01*
X140425D02*
X143089D01*
X140425Y87678D02*
X143089D01*
X136986Y84110D02*
X139650D01*
X136986Y80540D02*
X139650D01*
X140437D02*
X143101D01*
X140437Y84110D02*
X143101D01*
X137009Y76943D02*
X139673D01*
X137009Y73372D02*
X139673D01*
X140461D02*
X143124D01*
X140461Y76943D02*
X143124D01*
D11*
X62808Y128209D02*
G03*
X62808Y128209I-394J0D01*
G01*
D12*
X131841Y114957D02*
G03*
X131841Y114957I-492J0D01*
G01*
D13*
X130736Y125928D02*
G03*
X130736Y125928I-318J0D01*
G01*
X131402Y115731D02*
Y116334D01*
Y126940D02*
Y127542D01*
X142425Y115731D02*
Y116333D01*
Y126940D02*
Y127542D01*
X131402D02*
X142425D01*
X131402Y115731D02*
X142425D01*
D14*
X139279Y97058D02*
G03*
X139279Y97058I-295J0D01*
G01*
D15*
X83604Y169236D02*
X117619D01*
X113904Y141066D02*
X114347D01*
X100117D02*
X101090D01*
X86876D02*
X87310D01*
X83604Y146405D02*
Y156436D01*
Y168098D02*
Y169236D01*
X117619Y168098D02*
Y169236D01*
Y146405D02*
Y156436D01*
X66124Y114166D02*
Y124167D01*
X57305Y114166D02*
Y124167D01*
X74924Y114166D02*
Y124166D01*
X66105Y114166D02*
Y124166D01*
D16*
X61539Y135639D02*
Y138395D01*
X58389Y135639D02*
X61539D01*
X58389D02*
Y138395D01*
Y139183D02*
Y141939D01*
X61539Y139183D02*
Y141939D01*
X58389D02*
X61539D01*
X70808Y109416D02*
X73564D01*
Y106266D02*
Y109416D01*
X70808Y106266D02*
X73564D01*
X67265D02*
X70021D01*
X67265Y109416D02*
X70021D01*
X67265Y106266D02*
Y109416D01*
X58140Y96465D02*
X61289D01*
X58140D02*
Y99221D01*
X61289Y96465D02*
Y99221D01*
Y100008D02*
Y102764D01*
X58140D02*
X61289D01*
X58140Y100008D02*
Y102764D01*
X58586Y102775D02*
Y105924D01*
X61342D01*
X58586Y102775D02*
X61342D01*
X62129D02*
X64885D01*
Y105924D01*
X62129D02*
X64885D01*
X62287Y95514D02*
X65043D01*
X62287D02*
Y98664D01*
X65043D01*
X65831D02*
X68587D01*
X65831Y95514D02*
X68587D01*
Y98664D01*
X143086Y108061D02*
Y111210D01*
X140330Y108061D02*
X143086D01*
X140330Y111210D02*
X143086D01*
X136787D02*
X139543D01*
X136787Y108061D02*
Y111210D01*
Y108061D02*
X139543D01*
X140122Y100821D02*
X143272D01*
X140122D02*
Y103577D01*
X143272Y100821D02*
Y103577D01*
Y104364D02*
Y107120D01*
X140122D02*
X143272D01*
X140122Y104364D02*
Y107120D01*
X124569Y55432D02*
Y58582D01*
X121813Y55432D02*
X124569D01*
X121813Y58582D02*
X124569D01*
X118270D02*
X121026D01*
X118270Y55432D02*
Y58582D01*
Y55432D02*
X121026D01*
X118254Y58572D02*
X121010D01*
X118254D02*
Y61721D01*
X121010D01*
X121798D02*
X124553D01*
X121798Y58572D02*
X124553D01*
Y61721D01*
X124559Y52305D02*
Y55454D01*
X121803Y52305D02*
X124559D01*
X121803Y55454D02*
X124559D01*
X118260D02*
X121016D01*
X118260Y52305D02*
Y55454D01*
Y52305D02*
X121016D01*
D17*
X71151Y129304D02*
Y131406D01*
Y135677D02*
Y137778D01*
X62677Y135677D02*
Y137778D01*
Y129304D02*
Y131406D01*
X135338Y88450D02*
Y95350D01*
X140662Y88450D02*
Y95350D01*
X124063Y164485D02*
Y167591D01*
X120137D02*
X124063D01*
X120137Y164485D02*
Y167591D01*
X124063Y159647D02*
Y162153D01*
X123463Y159047D02*
X124063Y159647D01*
X120737Y159047D02*
X123463D01*
X120137Y159647D02*
X120737Y159047D01*
X120137Y159647D02*
Y162153D01*
X140302Y39930D02*
X143165D01*
X125635D02*
X128498D01*
X125635Y63278D02*
X143165D01*
Y39930D02*
Y69270D01*
X125635Y39930D02*
Y69270D01*
D18*
X130522Y74760D02*
Y114130D01*
X91152D02*
X130522D01*
X91152Y74760D02*
X130522D01*
X91152D02*
Y114130D01*
D19*
X81785Y102427D02*
X84345D01*
Y105177D01*
X76273Y103409D02*
X83163D01*
X83360D01*
Y112070D01*
X76273D02*
X83360D01*
X76273Y103409D02*
Y112070D01*
M02*
