M48
;Layer_Color=9474304
;FILE_FORMAT=2:5
INCH,LZ
;TYPE=PLATED
T1F00S00C0.00787
T3F00S00C0.12598
;TYPE=NON_PLATED
T4F00S00C0.04331
T5F00S00C0.06299
%
T01
X00955Y00426
X0096517Y00445
X00977Y0046
X0099231
X0100517Y00475
X0102417
X01036Y0046
X0105131
X0106417Y00475
Y00445
X0107314Y0042553
X01014Y00426
X0100517Y00445
X0102417
X01017Y00513
X0100963Y0055862
X0101763Y0057662
Y0059862
X0101163Y0061462
X01013Y00644
X01043Y0063153
Y0060953
X01052Y0059153
X01068Y0059
X0108331
X011Y0059153
X01109Y0060953
Y0063353
X01099Y0064853
X01053
X0115064Y0064499
X01148Y00587
X0118617Y0060011
X0118568Y005701
X0118558Y0053882
X01128Y00543
X0105Y00546
X0108Y00501
X0114192Y0047041
X0115376Y0045541
X0116907
X0118192Y0047041
Y0044041
X01196Y00433
X0114192Y0044041
X0112638Y0043326
X0096517Y00475
X00955Y00515
X009607Y0055862
X0095763Y0061462
X0095778Y0085528
Y0089095
Y0092662
X0095872Y0096227
X0099321Y0095725
Y0093166
Y0090607
Y0088048
Y0085488
Y0082929
X010188
X0104439
X0106999
X0109558
X0112117
Y0085488
X0109558
X0106999
X0104439
X010188
Y0088048
X0104439
X0106999
X0109558
X0112117
Y0090607
X0109558
X0106999
X0104439
X010188
Y0093166
X0104439
X0106999
X0109558
X0112117
Y0095725
X0109558
X0106999
X0104439
X010188
X0099321Y0098284
Y0100843
Y0103402
Y0105961
X0095856Y0106917
X0096269Y0109013
X0104525Y0108562
X0107375Y0108755
X0106999Y0105961
X0109558Y0105961
X0112117Y0105961
Y0103402
Y0100843
X0109558
Y0098284
X0106999
X0104439
Y0100843
X010188
Y0103402
X0106999Y0100843
X0114676Y0098284
Y0095725
X0117235
Y0098284
X0119794Y0098284
Y0095725
Y0093166
X0122353
Y0090607
Y0088048
Y0085488
X0119794
Y0082929
X0117235
X0114676
Y0085488
X0117235
Y0088048
X0119794
X0114676
Y0090607
X0117235
X0122353Y0095725
X012449Y0095355
X0122353Y0098284
Y0100843
X0119794
Y0103402
X0122353
Y0105961
X0119794
X0117235
Y0103402
X0114676
Y0105961
X0113845Y0113752
X0115656
X0117467
X0119278
X0121089
X01229
X0124499
X0128433Y0113905
X0129906Y0111627
X0129873Y0109784
X0129867Y0107967
X0129853Y0106143
X0137017Y0105662
X013698Y0104015
X013703Y0102401
X0137013Y0100816
X0138928Y0100748
X0138936Y010235
X0138843Y0103918
X0138835Y0105672
X0141697Y0107596
X0142022Y0114336
X0141453Y0119625
X0128779Y0120478
X0124029Y0119038
X01165Y01231
X01175Y01248
Y0127
X01165Y01291
X0116265Y0133507
X0115865Y0135007
X01096Y01342
X0108Y01291
X01085Y01271
Y01251
X01105
Y01271
X01115Y01291
X01114Y01231
X01075
X01025
X01016Y01248
X01
Y0127
X01016
X01025Y01291
X0099
Y01229
X009714Y0118548
X0095609
X0106928Y011813
X010801Y0117048
X0102465Y0135007
X0103505Y01369
X0103565Y0142207
X00996Y01421
X0097365Y0142107
X0101238Y0140462
X010772Y01422
X0109251
X0112817Y0144669
X0105498Y0146656
X0095665Y0146707
X01335Y01455
X01336Y01438
X0132413Y0135383
X0132444Y0133831
Y0132175
X0135959Y013373
X0136Y01355
X0137801Y0135481
X0137821Y013373
X0133745Y0126481
X01279Y01295
X013133Y0112883
X0129834Y0090009
Y0082765
Y0080954
Y0079143
X0124127Y0079701
X0125548Y0074638
X0127206Y0074855
X0132617Y0075207
X0132Y00651
X013199Y0063965
X0133883Y0063991
X01339Y00651
X01359
X0135905Y0063948
X0123231Y0061661
X0119108Y0075255
X0117333Y007523
X0102475Y0080691
X01424Y00882
Y00898
X0142391Y0091444
X0142381Y0093166
X0142361Y0094907
X0136854Y0045618
X0134887Y0045557
X01329Y00456
X0130961Y0045591
X0094617Y00445
X0093331Y0046
X00918
X0090617Y00475
Y00445
X00896Y00426
X00837
X0082817Y00445
X0081531Y0046
X008
X0078817Y00475
X0076886
X00756Y0046
X0074069
X0072886Y00475
X0071017
X0069731Y0046
X00682
X0067017Y00475
Y00445
X0071017
X0072886
X0071877Y0042607
X00778Y00426
X0076886Y00445
X0078817
X0082817Y00475
X007715Y00502
X007815Y00518
Y0054
X0077204Y005561
X007695Y0058865
X007909Y0058755
X0080621
X0082301Y0058851
X008315Y0060565
Y0062865
X008225Y0064565
X007695
X007655Y0062865
X007645Y0060665
X00718Y00588
X007265Y00556
X007155Y0054
Y00518
X007265Y00502
X0067Y00524
Y00589
X00669Y00643
X0063Y00645
X00606Y00707
X00605Y00752
X00606Y00797
X00672Y00792
X00677Y0084
X00691Y00873
X00606
X00594Y0095
X0059719Y0096758
X0062423Y0099834
X0063708Y009982
X0064966Y0099838
X0064978Y0101254
X0063717Y0101321
X0062404Y0101284
X0067242Y0101374
X0068492Y010134
X0069699Y0101323
X0069699Y01
X0068475Y0100124
X0067242Y0100065
X00734Y00986
X0073458Y010404
X0075Y01035
X00765Y01019
X0080697Y0101936
X00816Y00981
X0084727Y0098196
X00875Y00981
X0090516Y009802
X009051Y0102089
X0090752Y010464
X008828Y0105321
X008746Y0102221
X0085309Y0103102
X0085335Y0112348
X0082031Y0113957
X0078631Y0114057
X00749Y0111907
X0072973Y0111241
X0075005Y0107425
X0078242Y0105574
X0081391Y0109905
X009101Y0110648
X00894Y01139
X00875Y01162
X00856Y01183
X00843Y0121
X00845Y01231
X0083365Y0125007
Y0127407
X00845Y0129
X009Y01291
X0091265Y0127107
X00928Y01271
Y0125
X0091265Y0125007
X009Y0123
X0094Y01229
Y01291
X0093503Y01422
X0091972
X0088407Y0144669
X0075464Y0144089
X0074811Y0143038
X007357Y0141797
X0073314Y0144641
X0067723Y0142203
X0067715Y0140936
X0066243Y0140962
X0066251Y0142237
X0066907Y013883
X0066222Y0134273
X0067644Y0134301
X0067677Y0132794
X0066343Y0132865
X0062677Y0130355
X0065414Y0126641
X0067251Y0126582
X0071151Y0130355
X0077515Y0127864
X00791Y01363
X0059187Y0136172
X0059214Y0141939
Y0144039
X0060264Y0145089
X0059196Y0111341
X0059304Y0108031
X00758Y00951
X00744Y00919
X00788Y00932
X00836Y00936
X00873Y00935
X0090804Y0093635
X00885Y00888
X00847
X00846Y00845
X0088Y00851
X00864Y0080691
X0090756Y0081438
X00883Y00743
X00831
X00783Y0079
X00724Y00801
X0074Y00833
X00776Y00869
X00808Y00882
X00817Y0083
X00872Y0064
X00903Y00644
Y00605
X00901Y00559
X00902Y00515
X00861Y00536
X00873Y00587
X0095163Y0057662
Y0059862
X00954Y00644
X0094617Y00475
X00798Y0053
X0072Y00642
X00635Y00428
X0092Y015692
X00956
X0098925
X0102125
X01055
X01091
X01101Y01536
X0111612Y015354
X01161Y0155462
X0123163Y0165395
T03
X00689Y0157526
X0131892
T04
X006106Y00603
T05
X01398Y00603
M30
