G04*
G04 #@! TF.GenerationSoftware,Altium Limited,Altium Designer,21.2.1 (34)*
G04*
G04 Layer_Color=0*
%FSLAX25Y25*%
%MOIN*%
G70*
G04*
G04 #@! TF.SameCoordinates,309C0993-0839-4B3B-9E80-2D82E5661E4B*
G04*
G04*
G04 #@! TF.FilePolarity,Positive*
G04*
G01*
G75*
%ADD17C,0.00600*%
D17*
X119827Y145766D02*
X127825D01*
X119827Y148432D02*
Y143100D01*
X124016Y142148D02*
Y138720D01*
X123635Y137577D01*
X123255Y137196D01*
X122493Y136815D01*
X121350D01*
X120589Y137196D01*
X120208Y137577D01*
X119827Y138720D01*
Y142148D01*
X127825D01*
X121350Y135025D02*
X120969Y134264D01*
X119827Y133121D01*
X127825D01*
X119827Y145766D02*
X127825D01*
X119827Y148432D02*
Y143100D01*
X124016Y142148D02*
Y138720D01*
X123635Y137577D01*
X123255Y137196D01*
X122493Y136815D01*
X121350D01*
X120589Y137196D01*
X120208Y137577D01*
X119827Y138720D01*
Y142148D01*
X127825D01*
X121731Y134644D02*
X121350D01*
X120589Y134264D01*
X120208Y133883D01*
X119827Y133121D01*
Y131597D01*
X120208Y130836D01*
X120589Y130455D01*
X121350Y130074D01*
X122112D01*
X122874Y130455D01*
X124016Y131217D01*
X127825Y135025D01*
Y129693D01*
M02*
