G04*
G04 #@! TF.GenerationSoftware,Altium Limited,Altium Designer,21.2.1 (34)*
G04*
G04 Layer_Color=8388736*
%FSLAX25Y25*%
%MOIN*%
G70*
G04*
G04 #@! TF.SameCoordinates,309C0993-0839-4B3B-9E80-2D82E5661E4B*
G04*
G04*
G04 #@! TF.FilePolarity,Negative*
G04*
G01*
G75*
%ADD36R,0.01981X0.03950*%
%ADD37R,0.04737X0.03556*%
%ADD38R,0.01981X0.03556*%
%ADD39R,0.02568X0.02372*%
%ADD40R,0.02372X0.02568*%
%ADD41R,0.07493X0.04737*%
%ADD42R,0.01502X0.03018*%
%ADD43R,0.03018X0.01502*%
%ADD44R,0.03156X0.03156*%
%ADD45C,0.01587*%
%ADD46R,0.03162X0.03674*%
%ADD47R,0.02375X0.01981*%
%ADD48R,0.01981X0.02375*%
%ADD49R,0.03359X0.02572*%
%ADD50R,0.05131X0.08280*%
%ADD51R,0.04186X0.02769*%
%ADD52R,0.01902X0.03103*%
%ADD53R,0.02926X0.03306*%
%ADD54R,0.11005X0.09491*%
%ADD55C,0.16548*%
%ADD56O,0.04737X0.09063*%
%ADD57O,0.04737X0.11031*%
%ADD58C,0.05131*%
%ADD59C,0.07099*%
D36*
X112423Y139354D02*
D03*
X106517D02*
D03*
X104549D02*
D03*
X102580D02*
D03*
X98643D02*
D03*
X96675D02*
D03*
X94706D02*
D03*
X88801D02*
D03*
X110454D02*
D03*
X108486D02*
D03*
X90769D02*
D03*
X92738D02*
D03*
D37*
X112817Y144669D02*
D03*
X88406Y144669D02*
D03*
D38*
X105532D02*
D03*
X103565D02*
D03*
X101595D02*
D03*
X99628D02*
D03*
X97658D02*
D03*
X95691D02*
D03*
X91754D02*
D03*
X93721D02*
D03*
X109469D02*
D03*
X107502D02*
D03*
D39*
X59964Y137116D02*
D03*
Y140462D02*
D03*
X63914Y140568D02*
D03*
X63914Y143914D02*
D03*
X70014D02*
D03*
X70014Y140568D02*
D03*
X59714Y97941D02*
D03*
Y101288D02*
D03*
X85309Y103102D02*
D03*
X85309Y106449D02*
D03*
X85309Y112322D02*
D03*
X85309Y108976D02*
D03*
X141697Y102297D02*
D03*
Y105644D02*
D03*
D40*
X63428Y111341D02*
D03*
X60082Y111341D02*
D03*
X68741Y111241D02*
D03*
X72088Y111241D02*
D03*
X68745Y104461D02*
D03*
X72091Y104461D02*
D03*
X60064Y107702D02*
D03*
X63410Y107702D02*
D03*
X72088Y107841D02*
D03*
X68741D02*
D03*
X60062Y104349D02*
D03*
X63408D02*
D03*
X63764Y97089D02*
D03*
X67110D02*
D03*
X141610Y109635D02*
D03*
X138263D02*
D03*
X141621Y112979D02*
D03*
X138275Y112979D02*
D03*
X132381Y130359D02*
D03*
X135728Y130359D02*
D03*
X138249Y130381D02*
D03*
X141596Y130381D02*
D03*
X138382Y97922D02*
D03*
X141729Y97922D02*
D03*
X141732Y78764D02*
D03*
X138385Y78764D02*
D03*
X141705Y85893D02*
D03*
X138358Y85893D02*
D03*
X138370Y82325D02*
D03*
X141717Y82325D02*
D03*
X141740Y75157D02*
D03*
X138393Y75157D02*
D03*
X119747Y57007D02*
D03*
X123093D02*
D03*
X119731Y60147D02*
D03*
X123077D02*
D03*
X119736Y53880D02*
D03*
X123083D02*
D03*
D41*
X61714Y122513D02*
D03*
Y115820D02*
D03*
X70514Y122513D02*
D03*
Y115820D02*
D03*
D42*
X63961Y129968D02*
D03*
X65930D02*
D03*
X67898D02*
D03*
X69867D02*
D03*
Y137114D02*
D03*
X67898D02*
D03*
X65930D02*
D03*
X63961D02*
D03*
D43*
X70487Y132557D02*
D03*
Y134525D02*
D03*
X63341D02*
D03*
Y132557D02*
D03*
D44*
X66914Y133541D02*
D03*
D45*
X98042Y107240D02*
D03*
X123632D02*
D03*
Y102122D02*
D03*
Y99563D02*
D03*
Y89327D02*
D03*
Y86768D02*
D03*
Y81650D02*
D03*
X121073Y107240D02*
D03*
Y102122D02*
D03*
Y99563D02*
D03*
Y89327D02*
D03*
Y86768D02*
D03*
Y81650D02*
D03*
X118514Y107240D02*
D03*
Y102122D02*
D03*
Y99563D02*
D03*
Y89327D02*
D03*
Y86768D02*
D03*
Y81650D02*
D03*
X115955Y107240D02*
D03*
Y102122D02*
D03*
Y99563D02*
D03*
Y89327D02*
D03*
Y86768D02*
D03*
Y81650D02*
D03*
X113396Y107240D02*
D03*
Y102122D02*
D03*
Y99563D02*
D03*
Y89327D02*
D03*
Y86768D02*
D03*
Y81650D02*
D03*
X110837Y107240D02*
D03*
Y102122D02*
D03*
Y99563D02*
D03*
Y89327D02*
D03*
Y86768D02*
D03*
Y81650D02*
D03*
X108278Y107240D02*
D03*
Y102122D02*
D03*
Y99563D02*
D03*
Y89327D02*
D03*
Y86768D02*
D03*
Y81650D02*
D03*
X105719Y107240D02*
D03*
Y102122D02*
D03*
Y99563D02*
D03*
Y89327D02*
D03*
Y86768D02*
D03*
Y81650D02*
D03*
X103160Y107240D02*
D03*
Y102122D02*
D03*
Y99563D02*
D03*
Y89327D02*
D03*
Y86768D02*
D03*
Y81650D02*
D03*
X100601Y107240D02*
D03*
Y102122D02*
D03*
Y99563D02*
D03*
Y89327D02*
D03*
Y86768D02*
D03*
Y81650D02*
D03*
X98042Y102122D02*
D03*
Y99563D02*
D03*
Y89327D02*
D03*
Y86768D02*
D03*
Y81650D02*
D03*
X123632Y84209D02*
D03*
X121073D02*
D03*
X118514D02*
D03*
X115955D02*
D03*
X113396D02*
D03*
X110837D02*
D03*
X108278D02*
D03*
X105719D02*
D03*
X103160D02*
D03*
X100601D02*
D03*
X98042D02*
D03*
X123632Y91886D02*
D03*
X121073D02*
D03*
X118514D02*
D03*
X115955D02*
D03*
X113396D02*
D03*
X110837D02*
D03*
X108278D02*
D03*
X105719D02*
D03*
X103160D02*
D03*
X100601D02*
D03*
X98042D02*
D03*
X123632Y94445D02*
D03*
X121073D02*
D03*
X118514D02*
D03*
X115955D02*
D03*
X113396D02*
D03*
X110837D02*
D03*
X108278D02*
D03*
X105719D02*
D03*
X103160D02*
D03*
X100601D02*
D03*
X98042D02*
D03*
X123632Y97004D02*
D03*
X121073D02*
D03*
X118514D02*
D03*
X115955D02*
D03*
X113396D02*
D03*
X110837D02*
D03*
X108278D02*
D03*
X105719D02*
D03*
X103160D02*
D03*
X100601D02*
D03*
X98042D02*
D03*
X123632Y104682D02*
D03*
X121073D02*
D03*
X118514D02*
D03*
X115955D02*
D03*
X113396D02*
D03*
X110837D02*
D03*
X108278D02*
D03*
X105719D02*
D03*
X103160D02*
D03*
X100601D02*
D03*
X98042D02*
D03*
X128947Y112556D02*
D03*
Y110745D02*
D03*
Y108933D02*
D03*
Y107122D02*
D03*
Y105311D02*
D03*
Y103500D02*
D03*
Y101689D02*
D03*
Y99878D02*
D03*
Y98067D02*
D03*
Y96256D02*
D03*
Y94445D02*
D03*
Y92634D02*
D03*
Y90823D02*
D03*
Y89012D02*
D03*
Y87201D02*
D03*
Y85390D02*
D03*
Y83579D02*
D03*
Y81768D02*
D03*
Y79957D02*
D03*
Y78146D02*
D03*
Y76335D02*
D03*
X127136Y112556D02*
D03*
Y110745D02*
D03*
Y108933D02*
D03*
Y107122D02*
D03*
Y105311D02*
D03*
Y103500D02*
D03*
Y101689D02*
D03*
Y99878D02*
D03*
Y98067D02*
D03*
Y96256D02*
D03*
Y94445D02*
D03*
Y92634D02*
D03*
Y90823D02*
D03*
Y89012D02*
D03*
Y87201D02*
D03*
Y85390D02*
D03*
Y83579D02*
D03*
Y81768D02*
D03*
Y79957D02*
D03*
Y78146D02*
D03*
Y76335D02*
D03*
X125325Y112556D02*
D03*
Y110745D02*
D03*
Y78146D02*
D03*
Y76335D02*
D03*
X123514Y112556D02*
D03*
Y110745D02*
D03*
Y78146D02*
D03*
Y76335D02*
D03*
X121703Y112556D02*
D03*
Y110745D02*
D03*
Y78146D02*
D03*
Y76335D02*
D03*
X119892Y112556D02*
D03*
Y110745D02*
D03*
Y78146D02*
D03*
Y76335D02*
D03*
X118081Y112556D02*
D03*
Y110745D02*
D03*
Y78146D02*
D03*
Y76335D02*
D03*
X116270Y112556D02*
D03*
Y110745D02*
D03*
Y78146D02*
D03*
Y76335D02*
D03*
X114459Y112556D02*
D03*
Y110745D02*
D03*
Y78146D02*
D03*
Y76335D02*
D03*
X112648Y112556D02*
D03*
Y110745D02*
D03*
Y78146D02*
D03*
Y76335D02*
D03*
X110837Y112556D02*
D03*
Y110745D02*
D03*
Y78146D02*
D03*
Y76335D02*
D03*
X109026Y112556D02*
D03*
Y110745D02*
D03*
Y78146D02*
D03*
Y76335D02*
D03*
X107215Y112556D02*
D03*
Y110745D02*
D03*
X105404Y78146D02*
D03*
Y76335D02*
D03*
X103593Y112556D02*
D03*
Y110745D02*
D03*
X101782Y78146D02*
D03*
Y76335D02*
D03*
X99971Y112556D02*
D03*
Y110745D02*
D03*
X98160Y78146D02*
D03*
Y76335D02*
D03*
X96349Y112556D02*
D03*
Y110745D02*
D03*
X94538Y108933D02*
D03*
Y107122D02*
D03*
Y105311D02*
D03*
Y103500D02*
D03*
Y101689D02*
D03*
Y98067D02*
D03*
Y96256D02*
D03*
Y94445D02*
D03*
Y92634D02*
D03*
Y89012D02*
D03*
Y85390D02*
D03*
Y81768D02*
D03*
Y78146D02*
D03*
Y76335D02*
D03*
X92727Y112556D02*
D03*
Y110745D02*
D03*
Y108933D02*
D03*
Y107122D02*
D03*
Y105311D02*
D03*
Y103500D02*
D03*
Y101689D02*
D03*
Y98067D02*
D03*
Y96256D02*
D03*
Y94445D02*
D03*
Y92634D02*
D03*
Y89012D02*
D03*
Y85390D02*
D03*
Y81768D02*
D03*
Y78146D02*
D03*
Y76335D02*
D03*
X98160Y110745D02*
D03*
X101782Y112556D02*
D03*
X98160D02*
D03*
X101782Y110745D02*
D03*
X94538D02*
D03*
X105404Y112556D02*
D03*
X94538D02*
D03*
X105404Y110745D02*
D03*
X99971Y78146D02*
D03*
X103593D02*
D03*
X99971Y76335D02*
D03*
X103593D02*
D03*
X92727Y99878D02*
D03*
X94538D02*
D03*
Y87201D02*
D03*
Y83579D02*
D03*
X92727Y87201D02*
D03*
Y83579D02*
D03*
Y90823D02*
D03*
X94538Y79957D02*
D03*
X96349Y76335D02*
D03*
X107215D02*
D03*
X94538Y90823D02*
D03*
X92727Y79957D02*
D03*
X96349Y78146D02*
D03*
X107215D02*
D03*
D46*
X78242Y105574D02*
D03*
Y109905D02*
D03*
X81391D02*
D03*
Y105574D02*
D03*
D47*
X85729Y127041D02*
D03*
Y124876D02*
D03*
X88729D02*
D03*
Y127041D02*
D03*
X103665D02*
D03*
Y124876D02*
D03*
X106665D02*
D03*
Y127041D02*
D03*
X109100Y61000D02*
D03*
Y63165D02*
D03*
X106100D02*
D03*
Y61000D02*
D03*
X99963Y57709D02*
D03*
Y59873D02*
D03*
X96963D02*
D03*
Y57709D02*
D03*
X78365Y60660D02*
D03*
Y62824D02*
D03*
X81365D02*
D03*
Y60660D02*
D03*
X76350Y51795D02*
D03*
Y53959D02*
D03*
X73350D02*
D03*
Y51795D02*
D03*
D48*
X85976Y131864D02*
D03*
X83811D02*
D03*
X88494D02*
D03*
X90658D02*
D03*
X103865D02*
D03*
X101700D02*
D03*
X106400D02*
D03*
X108564D02*
D03*
D49*
X132484Y125475D02*
D03*
Y122916D02*
D03*
Y120357D02*
D03*
Y117798D02*
D03*
X141343Y122916D02*
D03*
Y125475D02*
D03*
Y117798D02*
D03*
Y120357D02*
D03*
D50*
X136914Y121636D02*
D03*
D51*
X138000Y91900D02*
D03*
D52*
X138984Y89075D02*
D03*
X137016D02*
D03*
Y94725D02*
D03*
X138984D02*
D03*
D53*
X122100Y165438D02*
D03*
Y161200D02*
D03*
D54*
X134400Y40776D02*
D03*
Y68424D02*
D03*
D55*
X131892Y157526D02*
D03*
X68900D02*
D03*
D56*
X83604Y141165D02*
D03*
X117619D02*
D03*
D57*
Y162267D02*
D03*
X83604Y162267D02*
D03*
D58*
X61060Y60300D02*
D03*
D59*
X139800D02*
D03*
M02*
